STARTFONT 2.1
COMMENT
COMMENT Converted from OpenType font "KH-Dot-Akihabara-16.ttf" by "otf2bdf 3.0".
COMMENT
FONT -FreeType-KH Dot Akihabara 16-Medium-R-Normal--17-120-100-100-P-155-ISO10646-1
SIZE 12 100 100
FONTBOUNDINGBOX 17 17 0 -2
STARTPROPERTIES 19
FOUNDRY "FreeType"
FAMILY_NAME "KH Dot Akihabara 16"
WEIGHT_NAME "Medium"
SLANT "R"
SETWIDTH_NAME "Normal"
ADD_STYLE_NAME ""
PIXEL_SIZE 17
POINT_SIZE 120
RESOLUTION_X 100
RESOLUTION_Y 100
SPACING "P"
AVERAGE_WIDTH 155
CHARSET_REGISTRY "ISO10646"
CHARSET_ENCODING "1"
FONT_ASCENT 14
FONT_DESCENT 2
COPYRIGHT "Copyright (c) Keitarou Hiraki, Font Silo. 1990-2015"
_OTF_FONTFILE "KH-Dot-Akihabara-16.ttf"
_OTF_PSNAME "KH-Dot-Akihabara-16"
ENDPROPERTIES
CHARS 7263
STARTCHAR 0020
ENCODING 32
SWIDTH 540 0
DWIDTH 9 0
BBX 0 0 0 0
BITMAP
ENDCHAR
STARTCHAR 0021
ENCODING 33
SWIDTH 540 0
DWIDTH 9 0
BBX 1 12 3 0
BITMAP
80
80
80
80
80
80
80
00
00
80
80
80
ENDCHAR
STARTCHAR 0022
ENCODING 34
SWIDTH 540 0
DWIDTH 9 0
BBX 5 6 1 8
BITMAP
D8
D8
D8
48
48
90
ENDCHAR
STARTCHAR 0023
ENCODING 35
SWIDTH 540 0
DWIDTH 9 0
BBX 7 11 0 1
BITMAP
44
44
44
FE
44
44
44
FE
44
44
44
ENDCHAR
STARTCHAR 0024
ENCODING 36
SWIDTH 540 0
DWIDTH 9 0
BBX 7 17 0 -2
BITMAP
10
10
10
38
54
92
90
50
38
14
12
92
92
54
38
10
10
ENDCHAR
STARTCHAR 0025
ENCODING 37
SWIDTH 540 0
DWIDTH 9 0
BBX 7 11 0 1
BITMAP
60
92
92
94
68
10
2C
52
92
92
0C
ENDCHAR
STARTCHAR 0026
ENCODING 38
SWIDTH 540 0
DWIDTH 9 0
BBX 7 12 0 0
BITMAP
70
88
88
88
90
64
A4
94
94
88
88
76
ENDCHAR
STARTCHAR 0027
ENCODING 39
SWIDTH 540 0
DWIDTH 9 0
BBX 2 6 2 8
BITMAP
C0
C0
C0
40
40
80
ENDCHAR
STARTCHAR 0028
ENCODING 40
SWIDTH 540 0
DWIDTH 9 0
BBX 4 16 3 -1
BITMAP
10
20
20
40
40
80
80
80
80
80
80
80
40
40
20
10
ENDCHAR
STARTCHAR 0029
ENCODING 41
SWIDTH 540 0
DWIDTH 9 0
BBX 4 16 1 -1
BITMAP
80
40
40
20
20
10
10
10
10
10
10
10
20
20
40
80
ENDCHAR
STARTCHAR 002A
ENCODING 42
SWIDTH 540 0
DWIDTH 9 0
BBX 7 8 0 2
BITMAP
10
92
54
38
38
54
92
10
ENDCHAR
STARTCHAR 002B
ENCODING 43
SWIDTH 540 0
DWIDTH 9 0
BBX 7 9 0 2
BITMAP
10
10
10
10
FE
10
10
10
10
ENDCHAR
STARTCHAR 002C
ENCODING 44
SWIDTH 540 0
DWIDTH 9 0
BBX 2 5 3 -2
BITMAP
C0
C0
40
40
80
ENDCHAR
STARTCHAR 002D
ENCODING 45
SWIDTH 540 0
DWIDTH 9 0
BBX 7 1 0 6
BITMAP
FE
ENDCHAR
STARTCHAR 002E
ENCODING 46
SWIDTH 540 0
DWIDTH 9 0
BBX 2 2 3 1
BITMAP
C0
C0
ENDCHAR
STARTCHAR 002F
ENCODING 47
SWIDTH 540 0
DWIDTH 9 0
BBX 7 17 0 -2
BITMAP
02
02
02
04
04
08
08
08
10
10
20
20
20
40
40
80
80
ENDCHAR
STARTCHAR 0030
ENCODING 48
SWIDTH 540 0
DWIDTH 9 0
BBX 6 12 1 0
BITMAP
30
48
84
84
84
84
84
84
84
84
48
30
ENDCHAR
STARTCHAR 0031
ENCODING 49
SWIDTH 540 0
DWIDTH 9 0
BBX 4 12 1 0
BITMAP
E0
10
10
10
10
10
10
10
10
10
10
10
ENDCHAR
STARTCHAR 0032
ENCODING 50
SWIDTH 540 0
DWIDTH 9 0
BBX 6 12 1 0
BITMAP
78
84
84
04
08
10
20
40
40
80
80
7C
ENDCHAR
STARTCHAR 0033
ENCODING 51
SWIDTH 540 0
DWIDTH 9 0
BBX 6 12 1 0
BITMAP
70
88
84
04
08
70
08
04
04
84
88
70
ENDCHAR
STARTCHAR 0034
ENCODING 52
SWIDTH 540 0
DWIDTH 9 0
BBX 6 12 1 0
BITMAP
10
28
28
48
48
88
88
88
7C
08
08
08
ENDCHAR
STARTCHAR 0035
ENCODING 53
SWIDTH 540 0
DWIDTH 9 0
BBX 6 12 1 0
BITMAP
7C
80
80
80
B0
C8
04
04
04
84
88
70
ENDCHAR
STARTCHAR 0036
ENCODING 54
SWIDTH 540 0
DWIDTH 9 0
BBX 6 12 1 0
BITMAP
38
44
84
80
B0
C8
84
84
84
84
48
30
ENDCHAR
STARTCHAR 0037
ENCODING 55
SWIDTH 540 0
DWIDTH 9 0
BBX 6 12 1 0
BITMAP
F8
04
04
04
08
08
10
10
20
20
20
20
ENDCHAR
STARTCHAR 0038
ENCODING 56
SWIDTH 540 0
DWIDTH 9 0
BBX 6 12 1 0
BITMAP
30
48
84
84
48
30
48
84
84
84
48
30
ENDCHAR
STARTCHAR 0039
ENCODING 57
SWIDTH 540 0
DWIDTH 9 0
BBX 6 12 1 0
BITMAP
30
48
84
84
84
84
4C
34
04
84
88
70
ENDCHAR
STARTCHAR 003A
ENCODING 58
SWIDTH 540 0
DWIDTH 9 0
BBX 2 8 3 1
BITMAP
C0
C0
00
00
00
00
C0
C0
ENDCHAR
STARTCHAR 003B
ENCODING 59
SWIDTH 540 0
DWIDTH 9 0
BBX 2 11 3 -2
BITMAP
C0
C0
00
00
00
00
C0
C0
40
40
80
ENDCHAR
STARTCHAR 003C
ENCODING 60
SWIDTH 540 0
DWIDTH 9 0
BBX 7 14 0 0
BITMAP
02
02
04
08
10
20
40
80
40
20
10
08
04
02
ENDCHAR
STARTCHAR 003D
ENCODING 61
SWIDTH 540 0
DWIDTH 9 0
BBX 7 4 0 4
BITMAP
FE
00
00
FE
ENDCHAR
STARTCHAR 003E
ENCODING 62
SWIDTH 540 0
DWIDTH 9 0
BBX 7 14 0 0
BITMAP
80
80
40
20
10
08
04
02
04
08
10
20
40
80
ENDCHAR
STARTCHAR 003F
ENCODING 63
SWIDTH 540 0
DWIDTH 9 0
BBX 7 12 0 0
BITMAP
38
44
82
82
04
08
10
10
00
10
10
10
ENDCHAR
STARTCHAR 0040
ENCODING 64
SWIDTH 540 0
DWIDTH 9 0
BBX 7 12 0 0
BITMAP
38
44
82
9A
AA
AA
AA
AA
9C
40
42
3C
ENDCHAR
STARTCHAR 0041
ENCODING 65
SWIDTH 540 0
DWIDTH 9 0
BBX 7 12 0 0
BITMAP
38
44
82
82
82
82
82
FE
82
82
82
82
ENDCHAR
STARTCHAR 0042
ENCODING 66
SWIDTH 540 0
DWIDTH 9 0
BBX 7 12 0 0
BITMAP
78
84
82
82
84
F8
84
82
82
82
84
78
ENDCHAR
STARTCHAR 0043
ENCODING 67
SWIDTH 540 0
DWIDTH 9 0
BBX 7 12 0 0
BITMAP
3C
42
42
80
80
80
80
80
82
42
42
3C
ENDCHAR
STARTCHAR 0044
ENCODING 68
SWIDTH 540 0
DWIDTH 9 0
BBX 7 12 0 0
BITMAP
70
88
84
82
82
82
82
82
82
84
88
70
ENDCHAR
STARTCHAR 0045
ENCODING 69
SWIDTH 540 0
DWIDTH 9 0
BBX 7 12 0 0
BITMAP
7E
80
80
80
80
FE
80
80
80
80
80
7E
ENDCHAR
STARTCHAR 0046
ENCODING 70
SWIDTH 540 0
DWIDTH 9 0
BBX 7 12 0 0
BITMAP
7E
80
80
80
80
FE
80
80
80
80
80
80
ENDCHAR
STARTCHAR 0047
ENCODING 71
SWIDTH 540 0
DWIDTH 9 0
BBX 7 12 0 0
BITMAP
38
44
82
82
80
80
9C
82
82
82
44
38
ENDCHAR
STARTCHAR 0048
ENCODING 72
SWIDTH 540 0
DWIDTH 9 0
BBX 7 12 0 0
BITMAP
82
82
82
82
82
FE
82
82
82
82
82
82
ENDCHAR
STARTCHAR 0049
ENCODING 73
SWIDTH 540 0
DWIDTH 9 0
BBX 1 12 3 0
BITMAP
80
80
80
80
80
80
80
80
80
80
80
80
ENDCHAR
STARTCHAR 004A
ENCODING 74
SWIDTH 540 0
DWIDTH 9 0
BBX 6 14 0 -2
BITMAP
04
04
04
04
04
04
04
04
04
04
84
84
48
30
ENDCHAR
STARTCHAR 004B
ENCODING 75
SWIDTH 540 0
DWIDTH 9 0
BBX 7 12 0 0
BITMAP
82
82
82
84
88
F0
88
84
82
82
82
82
ENDCHAR
STARTCHAR 004C
ENCODING 76
SWIDTH 540 0
DWIDTH 9 0
BBX 7 12 0 0
BITMAP
80
80
80
80
80
80
80
80
80
80
80
7E
ENDCHAR
STARTCHAR 004D
ENCODING 77
SWIDTH 540 0
DWIDTH 9 0
BBX 7 12 0 0
BITMAP
6C
92
92
92
92
92
92
92
92
92
92
92
ENDCHAR
STARTCHAR 004E
ENCODING 78
SWIDTH 540 0
DWIDTH 9 0
BBX 7 12 0 0
BITMAP
38
44
82
82
82
82
82
82
82
82
82
82
ENDCHAR
STARTCHAR 004F
ENCODING 79
SWIDTH 540 0
DWIDTH 9 0
BBX 7 12 0 0
BITMAP
38
44
82
82
82
82
82
82
82
82
44
38
ENDCHAR
STARTCHAR 0050
ENCODING 80
SWIDTH 540 0
DWIDTH 9 0
BBX 7 12 0 0
BITMAP
78
84
82
82
82
84
F8
80
80
80
80
80
ENDCHAR
STARTCHAR 0051
ENCODING 81
SWIDTH 540 0
DWIDTH 9 0
BBX 7 13 0 -1
BITMAP
38
44
82
82
82
82
82
82
B2
8A
44
3A
02
ENDCHAR
STARTCHAR 0052
ENCODING 82
SWIDTH 540 0
DWIDTH 9 0
BBX 7 12 0 0
BITMAP
78
84
82
82
84
F8
84
84
82
82
82
82
ENDCHAR
STARTCHAR 0053
ENCODING 83
SWIDTH 540 0
DWIDTH 9 0
BBX 7 12 0 0
BITMAP
3C
40
80
80
40
38
04
02
02
02
04
F8
ENDCHAR
STARTCHAR 0054
ENCODING 84
SWIDTH 540 0
DWIDTH 9 0
BBX 7 12 0 0
BITMAP
FE
10
10
10
10
10
10
10
10
10
10
10
ENDCHAR
STARTCHAR 0055
ENCODING 85
SWIDTH 540 0
DWIDTH 9 0
BBX 7 12 0 0
BITMAP
82
82
82
82
82
82
82
82
82
82
44
38
ENDCHAR
STARTCHAR 0056
ENCODING 86
SWIDTH 540 0
DWIDTH 9 0
BBX 7 12 0 0
BITMAP
82
82
82
82
82
84
84
84
88
88
90
60
ENDCHAR
STARTCHAR 0057
ENCODING 87
SWIDTH 540 0
DWIDTH 9 0
BBX 7 12 0 0
BITMAP
92
92
92
92
92
92
92
92
92
92
92
6C
ENDCHAR
STARTCHAR 0058
ENCODING 88
SWIDTH 540 0
DWIDTH 9 0
BBX 7 12 0 0
BITMAP
C6
28
28
10
10
10
10
10
10
28
28
C6
ENDCHAR
STARTCHAR 0059
ENCODING 89
SWIDTH 540 0
DWIDTH 9 0
BBX 7 12 0 0
BITMAP
82
82
82
82
82
44
38
10
10
10
10
10
ENDCHAR
STARTCHAR 005A
ENCODING 90
SWIDTH 540 0
DWIDTH 9 0
BBX 7 12 0 0
BITMAP
FC
02
02
04
08
10
20
40
80
80
80
7E
ENDCHAR
STARTCHAR 005B
ENCODING 91
SWIDTH 540 0
DWIDTH 9 0
BBX 5 15 2 0
BITMAP
78
80
80
80
80
80
80
80
80
80
80
80
80
80
78
ENDCHAR
STARTCHAR 005C
ENCODING 92
SWIDTH 540 0
DWIDTH 9 0
BBX 7 12 0 0
BITMAP
82
82
82
44
38
10
FE
10
FE
10
10
10
ENDCHAR
STARTCHAR 005D
ENCODING 93
SWIDTH 540 0
DWIDTH 9 0
BBX 5 15 1 0
BITMAP
F0
08
08
08
08
08
08
08
08
08
08
08
08
08
F0
ENDCHAR
STARTCHAR 005E
ENCODING 94
SWIDTH 540 0
DWIDTH 9 0
BBX 7 5 0 9
BITMAP
10
10
28
44
82
ENDCHAR
STARTCHAR 005F
ENCODING 95
SWIDTH 540 0
DWIDTH 9 0
BBX 7 1 0 0
BITMAP
FE
ENDCHAR
STARTCHAR 0060
ENCODING 96
SWIDTH 540 0
DWIDTH 9 0
BBX 2 6 3 8
BITMAP
40
40
80
80
C0
C0
ENDCHAR
STARTCHAR 0061
ENCODING 97
SWIDTH 540 0
DWIDTH 9 0
BBX 7 9 0 0
BITMAP
3A
46
82
82
82
82
82
46
3A
ENDCHAR
STARTCHAR 0062
ENCODING 98
SWIDTH 540 0
DWIDTH 9 0
BBX 7 15 0 0
BITMAP
80
80
80
80
80
80
B8
C4
82
82
82
82
82
44
38
ENDCHAR
STARTCHAR 0063
ENCODING 99
SWIDTH 540 0
DWIDTH 9 0
BBX 7 9 0 0
BITMAP
38
44
82
80
80
80
82
44
38
ENDCHAR
STARTCHAR 0064
ENCODING 100
SWIDTH 540 0
DWIDTH 9 0
BBX 7 15 0 0
BITMAP
02
02
02
02
02
02
3A
46
82
82
82
82
82
44
38
ENDCHAR
STARTCHAR 0065
ENCODING 101
SWIDTH 540 0
DWIDTH 9 0
BBX 7 9 0 0
BITMAP
38
44
82
82
FE
80
80
42
3C
ENDCHAR
STARTCHAR 0066
ENCODING 102
SWIDTH 540 0
DWIDTH 9 0
BBX 7 15 0 0
BITMAP
0E
10
10
20
20
20
FC
20
20
20
20
20
20
20
20
ENDCHAR
STARTCHAR 0067
ENCODING 103
SWIDTH 540 0
DWIDTH 9 0
BBX 7 11 0 -2
BITMAP
38
44
82
82
82
82
46
3A
02
84
78
ENDCHAR
STARTCHAR 0068
ENCODING 104
SWIDTH 540 0
DWIDTH 9 0
BBX 7 15 0 0
BITMAP
80
80
80
80
80
80
B8
C4
82
82
82
82
82
82
82
ENDCHAR
STARTCHAR 0069
ENCODING 105
SWIDTH 540 0
DWIDTH 9 0
BBX 1 15 3 0
BITMAP
80
80
80
80
00
00
80
80
80
80
80
80
80
80
80
ENDCHAR
STARTCHAR 006A
ENCODING 106
SWIDTH 540 0
DWIDTH 9 0
BBX 6 17 0 -2
BITMAP
04
04
04
04
00
00
04
04
04
04
04
04
84
84
84
48
30
ENDCHAR
STARTCHAR 006B
ENCODING 107
SWIDTH 540 0
DWIDTH 9 0
BBX 7 15 0 0
BITMAP
80
80
80
80
80
80
82
82
84
F8
84
84
82
82
82
ENDCHAR
STARTCHAR 006C
ENCODING 108
SWIDTH 540 0
DWIDTH 9 0
BBX 1 15 3 0
BITMAP
80
80
80
80
80
80
80
80
80
80
80
80
80
80
80
ENDCHAR
STARTCHAR 006D
ENCODING 109
SWIDTH 540 0
DWIDTH 9 0
BBX 7 9 0 0
BITMAP
6C
92
92
92
92
92
92
92
92
ENDCHAR
STARTCHAR 006E
ENCODING 110
SWIDTH 540 0
DWIDTH 9 0
BBX 7 9 0 0
BITMAP
38
44
82
82
82
82
82
82
82
ENDCHAR
STARTCHAR 006F
ENCODING 111
SWIDTH 540 0
DWIDTH 9 0
BBX 7 9 0 0
BITMAP
38
44
82
82
82
82
82
44
38
ENDCHAR
STARTCHAR 0070
ENCODING 112
SWIDTH 540 0
DWIDTH 9 0
BBX 7 11 0 -2
BITMAP
38
44
82
82
82
82
82
C4
B8
80
80
ENDCHAR
STARTCHAR 0071
ENCODING 113
SWIDTH 540 0
DWIDTH 9 0
BBX 7 11 0 -2
BITMAP
38
44
82
82
82
82
82
46
3A
02
02
ENDCHAR
STARTCHAR 0072
ENCODING 114
SWIDTH 540 0
DWIDTH 9 0
BBX 7 9 0 0
BITMAP
BC
C2
80
80
80
80
80
80
80
ENDCHAR
STARTCHAR 0073
ENCODING 115
SWIDTH 540 0
DWIDTH 9 0
BBX 7 9 0 0
BITMAP
7C
80
80
80
7C
02
02
02
FC
ENDCHAR
STARTCHAR 0074
ENCODING 116
SWIDTH 540 0
DWIDTH 9 0
BBX 6 12 0 0
BITMAP
20
20
20
FC
20
20
20
20
20
20
10
0C
ENDCHAR
STARTCHAR 0075
ENCODING 117
SWIDTH 540 0
DWIDTH 9 0
BBX 7 9 0 0
BITMAP
82
82
82
82
82
82
82
44
38
ENDCHAR
STARTCHAR 0076
ENCODING 118
SWIDTH 540 0
DWIDTH 9 0
BBX 7 9 0 0
BITMAP
82
82
82
82
84
84
88
90
60
ENDCHAR
STARTCHAR 0077
ENCODING 119
SWIDTH 540 0
DWIDTH 9 0
BBX 7 9 0 0
BITMAP
92
92
92
92
92
92
92
92
6C
ENDCHAR
STARTCHAR 0078
ENCODING 120
SWIDTH 540 0
DWIDTH 9 0
BBX 7 9 0 0
BITMAP
C6
28
28
10
10
10
28
28
C6
ENDCHAR
STARTCHAR 0079
ENCODING 121
SWIDTH 540 0
DWIDTH 9 0
BBX 7 11 0 -2
BITMAP
82
82
82
82
82
82
46
3A
02
84
78
ENDCHAR
STARTCHAR 007A
ENCODING 122
SWIDTH 540 0
DWIDTH 9 0
BBX 7 9 0 0
BITMAP
FC
02
04
18
20
40
80
80
7E
ENDCHAR
STARTCHAR 007B
ENCODING 123
SWIDTH 540 0
DWIDTH 9 0
BBX 6 16 1 -1
BITMAP
04
08
08
10
20
20
20
20
C0
20
20
20
20
10
08
04
ENDCHAR
STARTCHAR 007C
ENCODING 124
SWIDTH 540 0
DWIDTH 9 0
BBX 1 17 3 -2
BITMAP
80
80
80
80
80
80
80
80
80
80
80
80
80
80
80
80
80
ENDCHAR
STARTCHAR 007D
ENCODING 125
SWIDTH 540 0
DWIDTH 9 0
BBX 6 16 1 -1
BITMAP
80
40
40
20
10
10
10
10
0C
10
10
10
10
20
40
80
ENDCHAR
STARTCHAR 00A0
ENCODING 160
SWIDTH 540 0
DWIDTH 9 0
BBX 0 0 0 0
BITMAP
ENDCHAR
STARTCHAR 00A2
ENCODING 162
SWIDTH 1020 0
DWIDTH 17 0
BBX 8 14 4 -2
BITMAP
02
02
02
02
3E
4D
8D
8C
98
98
59
3E
20
20
ENDCHAR
STARTCHAR 00A3
ENCODING 163
SWIDTH 1020 0
DWIDTH 17 0
BBX 12 13 2 -1
BITMAP
0F80
1040
2000
2000
1000
FFC0
1000
0800
0810
6810
9810
9720
60C0
ENDCHAR
STARTCHAR 00A5
ENCODING 165
SWIDTH 540 0
DWIDTH 9 0
BBX 7 12 0 0
BITMAP
82
82
82
44
38
10
FE
10
FE
10
10
10
ENDCHAR
STARTCHAR 00A7
ENCODING 167
SWIDTH 1020 0
DWIDTH 17 0
BBX 8 16 4 -1
BITMAP
3C
42
42
81
81
40
38
4E
81
62
1C
02
81
81
42
3C
ENDCHAR
STARTCHAR 00A8
ENCODING 168
SWIDTH 1020 0
DWIDTH 17 0
BBX 7 3 4 12
BITMAP
CE
CE
CE
ENDCHAR
STARTCHAR 00AC
ENCODING 172
SWIDTH 1020 0
DWIDTH 17 0
BBX 12 5 2 3
BITMAP
FFF0
0010
0010
0010
0010
ENDCHAR
STARTCHAR 00B0
ENCODING 176
SWIDTH 1020 0
DWIDTH 17 0
BBX 5 6 0 9
BITMAP
70
88
88
88
88
70
ENDCHAR
STARTCHAR 00B1
ENCODING 177
SWIDTH 1020 0
DWIDTH 17 0
BBX 12 13 2 1
BITMAP
0600
0600
0600
0600
0600
FFF0
0600
0600
0600
0600
0000
0000
FFF0
ENDCHAR
STARTCHAR 00B4
ENCODING 180
SWIDTH 1020 0
DWIDTH 17 0
BBX 4 4 6 11
BITMAP
70
60
60
80
ENDCHAR
STARTCHAR 00B6
ENCODING 182
SWIDTH 1020 0
DWIDTH 17 0
BBX 10 15 2 -1
BITMAP
3FC0
3FC0
7840
F840
F840
7840
3840
0840
0840
0840
0840
0840
0840
0840
0840
ENDCHAR
STARTCHAR 00D7
ENCODING 215
SWIDTH 1020 0
DWIDTH 17 0
BBX 10 10 3 1
BITMAP
8040
4080
2100
1600
0C00
0C00
1600
2100
4080
8040
ENDCHAR
STARTCHAR 00F7
ENCODING 247
SWIDTH 1020 0
DWIDTH 17 0
BBX 12 11 2 1
BITMAP
0600
0F00
0600
0000
0000
FFF0
0000
0000
0600
0F00
0600
ENDCHAR
STARTCHAR 0391
ENCODING 913
SWIDTH 1020 0
DWIDTH 17 0
BBX 10 12 3 0
BITMAP
1E00
2100
4080
8040
8040
8040
8040
FFC0
8040
8040
8040
8040
ENDCHAR
STARTCHAR 0392
ENCODING 914
SWIDTH 1020 0
DWIDTH 17 0
BBX 10 12 3 0
BITMAP
7E00
8100
8080
8080
8100
FF00
8080
8040
8040
8040
8080
7F00
ENDCHAR
STARTCHAR 0393
ENCODING 915
SWIDTH 1020 0
DWIDTH 17 0
BBX 9 12 4 0
BITMAP
7F80
8000
8000
8000
8000
8000
8000
8000
8000
8000
8000
8000
ENDCHAR
STARTCHAR 0394
ENCODING 916
SWIDTH 1020 0
DWIDTH 17 0
BBX 12 12 2 0
BITMAP
0600
0600
0B00
0B00
1080
1080
2040
2040
4020
4020
8010
FFF0
ENDCHAR
STARTCHAR 0395
ENCODING 917
SWIDTH 1020 0
DWIDTH 17 0
BBX 9 12 4 0
BITMAP
7F80
8000
8000
8000
8000
FF80
8000
8000
8000
8000
8000
7F80
ENDCHAR
STARTCHAR 0396
ENCODING 918
SWIDTH 1020 0
DWIDTH 17 0
BBX 10 12 4 0
BITMAP
FF00
0080
0100
0200
0C00
1800
2000
4000
4000
8000
8000
7FC0
ENDCHAR
STARTCHAR 0397
ENCODING 919
SWIDTH 1020 0
DWIDTH 17 0
BBX 9 12 4 0
BITMAP
8080
8080
8080
8080
8080
FF80
8080
8080
8080
8080
8080
8080
ENDCHAR
STARTCHAR 0398
ENCODING 920
SWIDTH 1020 0
DWIDTH 17 0
BBX 12 12 2 0
BITMAP
1F80
2040
4020
8010
8010
9F90
8010
8010
8010
4020
2040
1F80
ENDCHAR
STARTCHAR 0399
ENCODING 921
SWIDTH 1020 0
DWIDTH 17 0
BBX 2 12 7 0
BITMAP
C0
C0
C0
C0
C0
C0
C0
C0
C0
C0
C0
C0
ENDCHAR
STARTCHAR 039A
ENCODING 922
SWIDTH 1020 0
DWIDTH 17 0
BBX 9 12 3 0
BITMAP
8080
8080
8080
8100
8600
FC00
8600
8100
8100
8080
8080
8080
ENDCHAR
STARTCHAR 039B
ENCODING 923
SWIDTH 1020 0
DWIDTH 17 0
BBX 10 12 3 0
BITMAP
1E00
2100
4080
8040
8040
8040
8040
8040
8040
8040
8040
8040
ENDCHAR
STARTCHAR 039C
ENCODING 924
SWIDTH 1020 0
DWIDTH 17 0
BBX 12 12 2 0
BITMAP
30C0
4B20
8610
8610
8610
8610
8610
8610
8610
8610
8610
8610
ENDCHAR
STARTCHAR 039D
ENCODING 925
SWIDTH 1020 0
DWIDTH 17 0
BBX 10 12 3 0
BITMAP
6040
9040
9040
9040
8C40
8C40
8C40
8C40
8640
8640
8640
8180
ENDCHAR
STARTCHAR 039E
ENCODING 926
SWIDTH 1020 0
DWIDTH 17 0
BBX 12 12 2 0
BITMAP
FFF0
0000
0000
0000
0000
7FE0
0000
0000
0000
0000
0000
FFF0
ENDCHAR
STARTCHAR 039F
ENCODING 927
SWIDTH 1020 0
DWIDTH 17 0
BBX 12 12 2 0
BITMAP
1F80
2040
4020
8010
8010
8010
8010
8010
8010
4020
2040
1F80
ENDCHAR
STARTCHAR 03A0
ENCODING 928
SWIDTH 1020 0
DWIDTH 17 0
BBX 9 12 4 0
BITMAP
3E00
4100
8080
8080
8080
8080
8080
8080
8080
8080
8080
8080
ENDCHAR
STARTCHAR 03A1
ENCODING 929
SWIDTH 1020 0
DWIDTH 17 0
BBX 9 12 4 0
BITMAP
7E00
8100
8080
8080
8080
8100
FE00
8000
8000
8000
8000
8000
ENDCHAR
STARTCHAR 03A3
ENCODING 931
SWIDTH 1020 0
DWIDTH 17 0
BBX 11 12 3 0
BITMAP
7FE0
8000
4000
2000
1000
0C00
1000
2000
4000
8000
8000
7FE0
ENDCHAR
STARTCHAR 03A4
ENCODING 932
SWIDTH 1020 0
DWIDTH 17 0
BBX 12 12 2 0
BITMAP
FFF0
0600
0600
0600
0600
0600
0600
0600
0600
0600
0600
0600
ENDCHAR
STARTCHAR 03A5
ENCODING 933
SWIDTH 1020 0
DWIDTH 17 0
BBX 12 12 2 0
BITMAP
70E0
8B10
8610
0600
0600
0600
0600
0600
0600
0600
0600
0600
ENDCHAR
STARTCHAR 03A6
ENCODING 934
SWIDTH 1020 0
DWIDTH 17 0
BBX 12 12 2 0
BITMAP
0600
0600
1F80
2640
4620
8610
8610
4620
2640
1F80
0600
0600
ENDCHAR
STARTCHAR 03A7
ENCODING 935
SWIDTH 1020 0
DWIDTH 17 0
BBX 12 12 2 0
BITMAP
C030
30C0
0B00
0B00
0600
0600
0600
0600
0B00
0B00
30C0
C030
ENDCHAR
STARTCHAR 03A8
ENCODING 936
SWIDTH 1020 0
DWIDTH 17 0
BBX 12 12 2 0
BITMAP
0600
0600
8610
8610
8610
4620
2640
1F80
0600
0600
0600
0600
ENDCHAR
STARTCHAR 03A9
ENCODING 937
SWIDTH 1020 0
DWIDTH 17 0
BBX 12 12 2 0
BITMAP
1F80
2040
4020
4020
8010
8010
4020
4020
2040
1080
1080
E070
ENDCHAR
STARTCHAR 03B1
ENCODING 945
SWIDTH 1020 0
DWIDTH 17 0
BBX 10 8 3 0
BITMAP
3C40
4640
8180
8100
8100
8100
4700
3CC0
ENDCHAR
STARTCHAR 03B2
ENCODING 946
SWIDTH 1020 0
DWIDTH 17 0
BBX 8 14 4 -2
BITMAP
3C
42
41
81
82
9C
82
81
81
82
BC
80
80
80
ENDCHAR
STARTCHAR 03B3
ENCODING 947
SWIDTH 1020 0
DWIDTH 17 0
BBX 10 10 4 -2
BITMAP
C1C0
2200
2C00
1800
1800
1800
1800
1800
1800
1800
ENDCHAR
STARTCHAR 03B4
ENCODING 948
SWIDTH 1020 0
DWIDTH 17 0
BBX 9 12 4 0
BITMAP
3F80
4000
4000
2000
1C00
4200
8100
8100
8100
8100
4200
3C00
ENDCHAR
STARTCHAR 03B5
ENCODING 949
SWIDTH 1020 0
DWIDTH 17 0
BBX 8 8 4 0
BITMAP
7F
80
80
7E
40
80
80
7F
ENDCHAR
STARTCHAR 03B6
ENCODING 950
SWIDTH 1020 0
DWIDTH 17 0
BBX 10 14 3 -2
BITMAP
8000
8000
7FC0
0600
0C00
1000
2000
4000
8000
8000
7E00
0100
0100
0100
ENDCHAR
STARTCHAR 03B7
ENCODING 951
SWIDTH 1020 0
DWIDTH 17 0
BBX 9 10 3 -2
BITMAP
DE00
2100
2080
2080
2080
2080
2080
0080
0080
0080
ENDCHAR
STARTCHAR 03B8
ENCODING 952
SWIDTH 1020 0
DWIDTH 17 0
BBX 8 12 4 0
BITMAP
3C
42
81
81
81
FF
81
81
81
81
42
3C
ENDCHAR
STARTCHAR 03B9
ENCODING 953
SWIDTH 1020 0
DWIDTH 17 0
BBX 7 8 5 0
BITMAP
80
80
80
80
82
82
44
38
ENDCHAR
STARTCHAR 03BA
ENCODING 954
SWIDTH 1020 0
DWIDTH 17 0
BBX 8 8 4 0
BITMAP
83
8C
98
A0
D8
8C
8C
83
ENDCHAR
STARTCHAR 03BB
ENCODING 955
SWIDTH 1020 0
DWIDTH 17 0
BBX 10 12 3 0
BITMAP
1C00
0600
0600
0600
0600
0600
0600
0E00
1600
2600
4100
80C0
ENDCHAR
STARTCHAR 03BC
ENCODING 956
SWIDTH 1020 0
DWIDTH 17 0
BBX 9 10 4 -2
BITMAP
8200
8200
8200
8200
8200
CE00
B980
8000
8000
8000
ENDCHAR
STARTCHAR 03BD
ENCODING 957
SWIDTH 1020 0
DWIDTH 17 0
BBX 8 8 4 0
BITMAP
81
81
81
82
82
8C
98
60
ENDCHAR
STARTCHAR 03BE
ENCODING 958
SWIDTH 1020 0
DWIDTH 17 0
BBX 8 14 4 -2
BITMAP
3E
40
7F
80
80
80
7F
80
80
80
7E
01
01
01
ENDCHAR
STARTCHAR 03BF
ENCODING 959
SWIDTH 1020 0
DWIDTH 17 0
BBX 8 8 4 0
BITMAP
3C
42
81
81
81
81
42
3C
ENDCHAR
STARTCHAR 03C0
ENCODING 960
SWIDTH 1020 0
DWIDTH 17 0
BBX 11 8 3 0
BITMAP
FFC0
2100
2100
2100
2100
2100
2100
20E0
ENDCHAR
STARTCHAR 03C1
ENCODING 961
SWIDTH 1020 0
DWIDTH 17 0
BBX 8 10 4 -2
BITMAP
3C
42
81
81
81
C2
BC
80
80
80
ENDCHAR
STARTCHAR 03C3
ENCODING 963
SWIDTH 1020 0
DWIDTH 17 0
BBX 10 8 4 0
BITMAP
3FC0
4200
8100
8100
8100
8100
4200
3C00
ENDCHAR
STARTCHAR 03C4
ENCODING 964
SWIDTH 1020 0
DWIDTH 17 0
BBX 10 8 3 0
BITMAP
FFC0
1000
1000
1000
1000
1040
0C80
0700
ENDCHAR
STARTCHAR 03C5
ENCODING 965
SWIDTH 1020 0
DWIDTH 17 0
BBX 8 8 4 0
BITMAP
81
81
81
81
81
82
42
3C
ENDCHAR
STARTCHAR 03C6
ENCODING 966
SWIDTH 1020 0
DWIDTH 17 0
BBX 10 14 3 -2
BITMAP
0C00
0C00
0C00
0C00
3F00
4C80
8C40
8C40
8C40
4C80
3F00
0C00
0C00
0C00
ENDCHAR
STARTCHAR 03C7
ENCODING 967
SWIDTH 1020 0
DWIDTH 17 0
BBX 9 10 3 -2
BITMAP
E180
1600
0C00
0C00
0C00
0C00
1600
1600
2100
C080
ENDCHAR
STARTCHAR 03C8
ENCODING 968
SWIDTH 1020 0
DWIDTH 17 0
BBX 10 14 3 -2
BITMAP
0C00
0C00
0C00
0C00
8C40
8C40
8C40
8C40
8C40
4C80
3F00
0C00
0C00
0C00
ENDCHAR
STARTCHAR 03C9
ENCODING 969
SWIDTH 1020 0
DWIDTH 17 0
BBX 12 7 2 0
BITMAP
8010
8610
8610
8610
8610
4B20
30C0
ENDCHAR
STARTCHAR 0401
ENCODING 1025
SWIDTH 1020 0
DWIDTH 17 0
BBX 9 15 4 0
BITMAP
4200
4200
4200
0000
7F80
8000
8000
8000
FF00
8000
8000
8000
8000
8000
7F80
ENDCHAR
STARTCHAR 0410
ENCODING 1040
SWIDTH 1020 0
DWIDTH 17 0
BBX 10 12 3 0
BITMAP
1E00
2100
4080
8040
8040
8040
8040
FFC0
8040
8040
8040
8040
ENDCHAR
STARTCHAR 0411
ENCODING 1041
SWIDTH 1020 0
DWIDTH 17 0
BBX 9 12 4 0
BITMAP
7F00
8000
8000
8000
8000
FE00
8100
8080
8080
8080
8100
7E00
ENDCHAR
STARTCHAR 0412
ENCODING 1042
SWIDTH 1020 0
DWIDTH 17 0
BBX 9 12 4 0
BITMAP
7E00
8100
8080
8080
8100
FE00
8100
8080
8080
8080
8100
7E00
ENDCHAR
STARTCHAR 0413
ENCODING 1043
SWIDTH 1020 0
DWIDTH 17 0
BBX 8 12 4 0
BITMAP
7F
80
80
80
80
80
80
80
80
80
80
80
ENDCHAR
STARTCHAR 0414
ENCODING 1044
SWIDTH 1020 0
DWIDTH 17 0
BBX 11 14 2 -2
BITMAP
0F80
1040
1040
1040
1040
1040
1040
2040
2040
2040
4040
7FC0
8020
8020
ENDCHAR
STARTCHAR 0415
ENCODING 1045
SWIDTH 1020 0
DWIDTH 17 0
BBX 9 12 4 0
BITMAP
7F80
8000
8000
8000
FF00
8000
8000
8000
8000
8000
8000
7F80
ENDCHAR
STARTCHAR 0416
ENCODING 1046
SWIDTH 1020 0
DWIDTH 17 0
BBX 12 12 2 0
BITMAP
8610
8610
8610
4620
2640
1F80
2640
4620
8610
8610
8610
8610
ENDCHAR
STARTCHAR 0417
ENCODING 1047
SWIDTH 1020 0
DWIDTH 17 0
BBX 10 12 3 0
BITMAP
FF00
0080
0040
0040
0080
3F00
0080
0040
0040
0040
0080
FF00
ENDCHAR
STARTCHAR 0418
ENCODING 1048
SWIDTH 1020 0
DWIDTH 17 0
BBX 10 12 3 0
BITMAP
8180
8640
8640
8640
8C40
8C40
8C40
8C40
9040
9040
9040
6040
ENDCHAR
STARTCHAR 0419
ENCODING 1049
SWIDTH 1020 0
DWIDTH 17 0
BBX 10 15 3 0
BITMAP
2100
1E00
1E00
8180
8640
8640
8640
8C40
8C40
8C40
8C40
9040
9040
9040
6040
ENDCHAR
STARTCHAR 041A
ENCODING 1050
SWIDTH 1020 0
DWIDTH 17 0
BBX 10 12 3 0
BITMAP
81C0
8600
8C00
8C00
9000
FC00
8600
8100
8080
8080
8040
8040
ENDCHAR
STARTCHAR 041B
ENCODING 1051
SWIDTH 1020 0
DWIDTH 17 0
BBX 10 12 2 0
BITMAP
0F80
1040
1040
1040
1040
1040
1040
1040
1040
1040
2040
C040
ENDCHAR
STARTCHAR 041C
ENCODING 1052
SWIDTH 1020 0
DWIDTH 17 0
BBX 12 12 2 0
BITMAP
30C0
4B20
8610
8610
8610
8610
8610
8610
8610
8610
8010
8010
ENDCHAR
STARTCHAR 041D
ENCODING 1053
SWIDTH 1020 0
DWIDTH 17 0
BBX 10 12 3 0
BITMAP
8040
8040
8040
8040
FFC0
8040
8040
8040
8040
8040
8040
8040
ENDCHAR
STARTCHAR 041E
ENCODING 1054
SWIDTH 1020 0
DWIDTH 17 0
BBX 12 12 2 0
BITMAP
1F80
2040
4020
8010
8010
8010
8010
8010
8010
4020
2040
1F80
ENDCHAR
STARTCHAR 041F
ENCODING 1055
SWIDTH 1020 0
DWIDTH 17 0
BBX 10 12 3 0
BITMAP
7F80
8040
8040
8040
8040
8040
8040
8040
8040
8040
8040
8040
ENDCHAR
STARTCHAR 0420
ENCODING 1056
SWIDTH 1020 0
DWIDTH 17 0
BBX 9 12 4 0
BITMAP
7E00
8100
8080
8080
8080
8100
FE00
8000
8000
8000
8000
8000
ENDCHAR
STARTCHAR 0421
ENCODING 1057
SWIDTH 1020 0
DWIDTH 17 0
BBX 11 12 2 0
BITMAP
1F80
2040
4020
8020
8000
8000
8000
8000
8020
4020
2040
1F80
ENDCHAR
STARTCHAR 0422
ENCODING 1058
SWIDTH 1020 0
DWIDTH 17 0
BBX 12 12 2 0
BITMAP
FFF0
0600
0600
0600
0600
0600
0600
0600
0600
0600
0600
0600
ENDCHAR
STARTCHAR 0423
ENCODING 1059
SWIDTH 1020 0
DWIDTH 17 0
BBX 10 12 3 0
BITMAP
8040
8040
8040
8040
8040
40C0
2140
1E40
0040
0080
0100
7E00
ENDCHAR
STARTCHAR 0424
ENCODING 1060
SWIDTH 1020 0
DWIDTH 17 0
BBX 12 15 2 -1
BITMAP
0600
0600
0600
1F80
2640
4620
8610
8610
8610
8610
4620
2640
1F80
0600
0600
ENDCHAR
STARTCHAR 0425
ENCODING 1061
SWIDTH 1020 0
DWIDTH 17 0
BBX 12 12 2 0
BITMAP
C030
30C0
0B00
0B00
0600
0600
0600
0600
0B00
0B00
30C0
C030
ENDCHAR
STARTCHAR 0426
ENCODING 1062
SWIDTH 1020 0
DWIDTH 17 0
BBX 11 14 3 -2
BITMAP
8080
8080
8080
8080
8080
8080
8080
8080
8080
8080
4080
3FC0
0020
0020
ENDCHAR
STARTCHAR 0427
ENCODING 1063
SWIDTH 1020 0
DWIDTH 17 0
BBX 9 12 3 0
BITMAP
8080
8080
8080
8080
8080
8080
4180
3E80
0080
0080
0080
0080
ENDCHAR
STARTCHAR 0428
ENCODING 1064
SWIDTH 1020 0
DWIDTH 17 0
BBX 12 12 2 0
BITMAP
8610
8610
8610
8610
8610
8610
8610
8610
8610
8610
4620
3FC0
ENDCHAR
STARTCHAR 0429
ENCODING 1065
SWIDTH 1020 0
DWIDTH 17 0
BBX 14 14 2 -2
BITMAP
8610
8610
8610
8610
8610
8610
8610
8610
8610
8610
4610
3FF8
0004
0004
ENDCHAR
STARTCHAR 042A
ENCODING 1066
SWIDTH 1020 0
DWIDTH 17 0
BBX 12 12 2 0
BITMAP
F000
0800
0800
0800
0FC0
0820
0810
0810
0810
0810
0620
03C0
ENDCHAR
STARTCHAR 042B
ENCODING 1067
SWIDTH 1020 0
DWIDTH 17 0
BBX 12 12 2 0
BITMAP
8010
8010
8010
8010
F810
8610
8310
8310
8310
8310
4610
3810
ENDCHAR
STARTCHAR 042C
ENCODING 1068
SWIDTH 1020 0
DWIDTH 17 0
BBX 9 12 4 0
BITMAP
8000
8000
8000
8000
FE00
8100
8080
8080
8080
8080
4100
3E00
ENDCHAR
STARTCHAR 042D
ENCODING 1069
SWIDTH 1020 0
DWIDTH 17 0
BBX 11 12 3 0
BITMAP
FF00
0080
0040
0040
3020
4CA0
8720
0020
0040
0040
0080
FF00
ENDCHAR
STARTCHAR 042E
ENCODING 1070
SWIDTH 1020 0
DWIDTH 17 0
BBX 12 12 2 0
BITMAP
87C0
8820
9010
9010
F010
9010
9010
9010
9010
9010
8820
87C0
ENDCHAR
STARTCHAR 042F
ENCODING 1071
SWIDTH 1020 0
DWIDTH 17 0
BBX 10 12 2 0
BITMAP
1F80
2040
4040
4040
2040
1FC0
1040
1040
1040
1040
2040
C040
ENDCHAR
STARTCHAR 0430
ENCODING 1072
SWIDTH 1020 0
DWIDTH 17 0
BBX 8 8 3 0
BITMAP
7E
01
01
7F
81
81
87
7D
ENDCHAR
STARTCHAR 0431
ENCODING 1073
SWIDTH 1020 0
DWIDTH 17 0
BBX 9 12 3 0
BITMAP
3F00
4000
8000
8000
BE00
C100
8080
8080
8080
8080
4100
3E00
ENDCHAR
STARTCHAR 0432
ENCODING 1074
SWIDTH 1020 0
DWIDTH 17 0
BBX 8 8 4 0
BITMAP
7E
81
81
FE
81
81
81
7E
ENDCHAR
STARTCHAR 0433
ENCODING 1075
SWIDTH 1020 0
DWIDTH 17 0
BBX 8 8 4 0
BITMAP
7F
80
80
80
80
80
80
80
ENDCHAR
STARTCHAR 0434
ENCODING 1076
SWIDTH 1020 0
DWIDTH 17 0
BBX 10 10 3 -2
BITMAP
0F00
1080
1080
1080
1080
2080
2080
7F80
8040
8040
ENDCHAR
STARTCHAR 0435
ENCODING 1077
SWIDTH 1020 0
DWIDTH 17 0
BBX 9 8 3 0
BITMAP
3E00
4100
8080
FF80
8000
8000
4000
3F00
ENDCHAR
STARTCHAR 0436
ENCODING 1078
SWIDTH 1020 0
DWIDTH 17 0
BBX 10 8 3 0
BITMAP
8C40
8C40
4C80
3F00
2D00
4C80
8C40
8C40
ENDCHAR
STARTCHAR 0437
ENCODING 1079
SWIDTH 1020 0
DWIDTH 17 0
BBX 8 8 4 0
BITMAP
FC
02
02
7C
02
01
01
FE
ENDCHAR
STARTCHAR 0438
ENCODING 1080
SWIDTH 1020 0
DWIDTH 17 0
BBX 8 8 4 0
BITMAP
8E
99
99
99
99
99
99
61
ENDCHAR
STARTCHAR 0439
ENCODING 1081
SWIDTH 1020 0
DWIDTH 17 0
BBX 8 12 4 0
BITMAP
42
3C
00
00
8E
99
99
99
99
99
99
61
ENDCHAR
STARTCHAR 043A
ENCODING 1082
SWIDTH 1020 0
DWIDTH 17 0
BBX 8 8 4 0
BITMAP
83
8C
98
F8
8C
82
81
81
ENDCHAR
STARTCHAR 043B
ENCODING 1083
SWIDTH 1020 0
DWIDTH 17 0
BBX 9 8 3 0
BITMAP
0F00
1080
1080
1080
1080
1080
2080
C080
ENDCHAR
STARTCHAR 043C
ENCODING 1084
SWIDTH 1020 0
DWIDTH 17 0
BBX 10 8 3 0
BITMAP
7780
8C40
8C40
8C40
8C40
8C40
8C40
8040
ENDCHAR
STARTCHAR 043D
ENCODING 1085
SWIDTH 1020 0
DWIDTH 17 0
BBX 8 8 4 0
BITMAP
81
81
81
FF
81
81
81
81
ENDCHAR
STARTCHAR 043E
ENCODING 1086
SWIDTH 1020 0
DWIDTH 17 0
BBX 9 8 3 0
BITMAP
3E00
4100
8080
8080
8080
8080
4100
3E00
ENDCHAR
STARTCHAR 043F
ENCODING 1087
SWIDTH 1020 0
DWIDTH 17 0
BBX 8 8 4 0
BITMAP
7E
81
81
81
81
81
81
81
ENDCHAR
STARTCHAR 0440
ENCODING 1088
SWIDTH 1020 0
DWIDTH 17 0
BBX 8 10 4 -2
BITMAP
3C
42
81
81
81
C2
BC
80
80
80
ENDCHAR
STARTCHAR 0441
ENCODING 1089
SWIDTH 1020 0
DWIDTH 17 0
BBX 9 8 3 0
BITMAP
3E00
4100
8080
8000
8000
8080
4100
3E00
ENDCHAR
STARTCHAR 0442
ENCODING 1090
SWIDTH 1020 0
DWIDTH 17 0
BBX 10 8 3 0
BITMAP
FFC0
0C00
0C00
0C00
0C00
0C00
0C00
0C00
ENDCHAR
STARTCHAR 0443
ENCODING 1091
SWIDTH 1020 0
DWIDTH 17 0
BBX 8 10 4 -2
BITMAP
81
81
81
81
81
43
3D
01
02
7C
ENDCHAR
STARTCHAR 0444
ENCODING 1092
SWIDTH 1020 0
DWIDTH 17 0
BBX 12 16 2 -2
BITMAP
0600
0600
0600
0600
0600
0600
36C0
4F20
8610
8610
8610
4F20
36C0
0600
0600
0600
ENDCHAR
STARTCHAR 0445
ENCODING 1093
SWIDTH 1020 0
DWIDTH 17 0
BBX 10 8 3 0
BITMAP
C0C0
2100
1600
0C00
0C00
1600
2100
C0C0
ENDCHAR
STARTCHAR 0446
ENCODING 1094
SWIDTH 1020 0
DWIDTH 17 0
BBX 10 10 4 -2
BITMAP
8100
8100
8100
8100
8100
8100
8100
7F80
0040
0040
ENDCHAR
STARTCHAR 0447
ENCODING 1095
SWIDTH 1020 0
DWIDTH 17 0
BBX 8 8 4 0
BITMAP
81
81
81
83
7D
01
01
01
ENDCHAR
STARTCHAR 0448
ENCODING 1096
SWIDTH 1020 0
DWIDTH 17 0
BBX 10 8 3 0
BITMAP
8C40
8C40
8C40
8C40
8C40
8C40
8C40
7F80
ENDCHAR
STARTCHAR 0449
ENCODING 1097
SWIDTH 1020 0
DWIDTH 17 0
BBX 11 10 3 -2
BITMAP
8C40
8C40
8C40
8C40
8C40
8C40
8C40
7FC0
0020
0020
ENDCHAR
STARTCHAR 044A
ENCODING 1098
SWIDTH 1020 0
DWIDTH 17 0
BBX 11 8 2 0
BITMAP
F000
0800
0800
0FC0
0820
0820
0820
07C0
ENDCHAR
STARTCHAR 044B
ENCODING 1099
SWIDTH 1020 0
DWIDTH 17 0
BBX 10 8 3 0
BITMAP
8040
8040
8040
FC40
8640
8640
8640
7C40
ENDCHAR
STARTCHAR 044C
ENCODING 1100
SWIDTH 1020 0
DWIDTH 17 0
BBX 7 8 5 0
BITMAP
80
80
80
FC
82
82
82
7C
ENDCHAR
STARTCHAR 044D
ENCODING 1101
SWIDTH 1020 0
DWIDTH 17 0
BBX 8 8 4 0
BITMAP
FC
02
01
63
9D
01
02
FC
ENDCHAR
STARTCHAR 044E
ENCODING 1102
SWIDTH 1020 0
DWIDTH 17 0
BBX 10 8 3 0
BITMAP
8F80
9040
9040
F040
9040
9040
9040
8F80
ENDCHAR
STARTCHAR 044F
ENCODING 1103
SWIDTH 1020 0
DWIDTH 17 0
BBX 9 8 3 0
BITMAP
3F00
4080
4080
3F80
2080
2080
2080
C080
ENDCHAR
STARTCHAR 0451
ENCODING 1105
SWIDTH 1020 0
DWIDTH 17 0
BBX 9 11 3 0
BITMAP
2600
2600
0000
3E00
4100
8080
FF80
8000
8000
4000
3F00
ENDCHAR
STARTCHAR 2000
ENCODING 8192
SWIDTH 1020 0
DWIDTH 17 0
BBX 0 0 0 0
BITMAP
ENDCHAR
STARTCHAR 2001
ENCODING 8193
SWIDTH 1020 0
DWIDTH 17 0
BBX 0 0 0 0
BITMAP
ENDCHAR
STARTCHAR 2002
ENCODING 8194
SWIDTH 1020 0
DWIDTH 17 0
BBX 0 0 0 0
BITMAP
ENDCHAR
STARTCHAR 2003
ENCODING 8195
SWIDTH 1020 0
DWIDTH 17 0
BBX 0 0 0 0
BITMAP
ENDCHAR
STARTCHAR 2004
ENCODING 8196
SWIDTH 1020 0
DWIDTH 17 0
BBX 0 0 0 0
BITMAP
ENDCHAR
STARTCHAR 2005
ENCODING 8197
SWIDTH 1020 0
DWIDTH 17 0
BBX 0 0 0 0
BITMAP
ENDCHAR
STARTCHAR 2006
ENCODING 8198
SWIDTH 1020 0
DWIDTH 17 0
BBX 0 0 0 0
BITMAP
ENDCHAR
STARTCHAR 2007
ENCODING 8199
SWIDTH 1020 0
DWIDTH 17 0
BBX 0 0 0 0
BITMAP
ENDCHAR
STARTCHAR 2008
ENCODING 8200
SWIDTH 1020 0
DWIDTH 17 0
BBX 0 0 0 0
BITMAP
ENDCHAR
STARTCHAR 2009
ENCODING 8201
SWIDTH 1020 0
DWIDTH 17 0
BBX 0 0 0 0
BITMAP
ENDCHAR
STARTCHAR 200A
ENCODING 8202
SWIDTH 1020 0
DWIDTH 17 0
BBX 0 0 0 0
BITMAP
ENDCHAR
STARTCHAR 200B
ENCODING 8203
SWIDTH 540 0
DWIDTH 9 0
BBX 0 0 0 0
BITMAP
ENDCHAR
STARTCHAR 200C
ENCODING 8204
SWIDTH 540 0
DWIDTH 9 0
BBX 0 0 0 0
BITMAP
ENDCHAR
STARTCHAR 200D
ENCODING 8205
SWIDTH 540 0
DWIDTH 9 0
BBX 0 0 0 0
BITMAP
ENDCHAR
STARTCHAR 200E
ENCODING 8206
SWIDTH 540 0
DWIDTH 9 0
BBX 0 0 0 0
BITMAP
ENDCHAR
STARTCHAR 200F
ENCODING 8207
SWIDTH 540 0
DWIDTH 9 0
BBX 0 0 0 0
BITMAP
ENDCHAR
STARTCHAR 2010
ENCODING 8208
SWIDTH 1020 0
DWIDTH 17 0
BBX 6 1 5 6
BITMAP
FC
ENDCHAR
STARTCHAR 2015
ENCODING 8213
SWIDTH 1020 0
DWIDTH 17 0
BBX 16 1 0 6
BITMAP
FFFF
ENDCHAR
STARTCHAR 2016
ENCODING 8214
SWIDTH 1020 0
DWIDTH 17 0
BBX 6 17 5 -2
BITMAP
84
84
84
84
84
84
84
84
84
84
84
84
84
84
84
84
84
ENDCHAR
STARTCHAR 2018
ENCODING 8216
SWIDTH 1020 0
DWIDTH 17 0
BBX 2 6 13 9
BITMAP
40
80
80
80
C0
40
ENDCHAR
STARTCHAR 2019
ENCODING 8217
SWIDTH 1020 0
DWIDTH 17 0
BBX 2 6 1 9
BITMAP
80
C0
C0
40
40
80
ENDCHAR
STARTCHAR 201C
ENCODING 8220
SWIDTH 1020 0
DWIDTH 17 0
BBX 5 6 10 9
BITMAP
48
90
90
90
D8
48
ENDCHAR
STARTCHAR 201D
ENCODING 8221
SWIDTH 1020 0
DWIDTH 17 0
BBX 5 6 1 9
BITMAP
90
D8
D8
48
48
90
ENDCHAR
STARTCHAR 2020
ENCODING 8224
SWIDTH 1020 0
DWIDTH 17 0
BBX 10 17 3 -2
BITMAP
0C00
1E00
1E00
1E00
0C00
4C80
FFC0
4C80
0C00
1E00
3F00
1E00
0C00
0C00
0C00
0C00
0C00
ENDCHAR
STARTCHAR 2021
ENCODING 8225
SWIDTH 1020 0
DWIDTH 17 0
BBX 10 17 3 -2
BITMAP
1E00
0C00
0C00
4C80
FFC0
4C80
0C00
1E00
0C00
0C00
1E00
0C00
4C80
FFC0
4C80
0C00
1E00
ENDCHAR
STARTCHAR 2025
ENCODING 8229
SWIDTH 1020 0
DWIDTH 17 0
BBX 14 3 1 5
BITMAP
4008
E01C
4008
ENDCHAR
STARTCHAR 2026
ENCODING 8230
SWIDTH 1020 0
DWIDTH 17 0
BBX 16 3 0 5
BITMAP
4182
E3C7
4182
ENDCHAR
STARTCHAR 2030
ENCODING 8240
SWIDTH 1020 0
DWIDTH 17 0
BBX 16 16 0 -1
BITMAP
6008
9010
9010
9020
90C0
9180
9200
6400
0800
1386
24C9
44C9
84C9
04C9
04C9
0386
ENDCHAR
STARTCHAR 2032
ENCODING 8242
SWIDTH 1020 0
DWIDTH 17 0
BBX 4 6 0 9
BITMAP
30
20
20
40
40
80
ENDCHAR
STARTCHAR 2033
ENCODING 8243
SWIDTH 1020 0
DWIDTH 17 0
BBX 7 6 0 9
BITMAP
36
24
24
48
48
90
ENDCHAR
STARTCHAR 203B
ENCODING 8251
SWIDTH 1020 0
DWIDTH 17 0
BBX 14 14 1 0
BITMAP
8304
8304
4788
2310
1020
0840
4588
E31C
4588
0840
1020
2310
4788
8304
ENDCHAR
STARTCHAR 203E
ENCODING 8254
SWIDTH 540 0
DWIDTH 9 0
BBX 7 2 0 12
BITMAP
FE
FE
ENDCHAR
STARTCHAR 2103
ENCODING 8451
SWIDTH 1020 0
DWIDTH 17 0
BBX 13 14 1 0
BITMAP
6000
6000
93E0
9410
6808
1008
1000
1000
1000
1000
1008
0808
0410
03E0
ENDCHAR
STARTCHAR 2116
ENCODING 8470
SWIDTH 1020 0
DWIDTH 17 0
BBX 15 13 1 -1
BITMAP
8400
8400
C400
A400
A438
A444
9444
9444
9444
8C44
8444
843A
0002
ENDCHAR
STARTCHAR 2121
ENCODING 8481
SWIDTH 1020 0
DWIDTH 17 0
BBX 16 12 0 0
BITMAP
FE00
1000
1000
1000
1000
13E8
1208
1208
13C8
1208
1208
13EF
ENDCHAR
STARTCHAR 212B
ENCODING 8491
SWIDTH 1020 0
DWIDTH 17 0
BBX 10 15 3 0
BITMAP
1E00
2100
2100
2100
1E00
2100
4080
4080
8040
8040
8040
FFC0
8040
8040
8040
ENDCHAR
STARTCHAR 2160
ENCODING 8544
SWIDTH 1020 0
DWIDTH 17 0
BBX 6 14 5 0
BITMAP
FC
FC
30
30
30
30
30
30
30
30
30
30
30
FC
ENDCHAR
STARTCHAR 2161
ENCODING 8545
SWIDTH 1020 0
DWIDTH 17 0
BBX 10 14 3 0
BITMAP
FFC0
FFC0
2100
2100
2100
2100
2100
2100
2100
2100
2100
2100
2100
FFC0
ENDCHAR
STARTCHAR 2162
ENCODING 8546
SWIDTH 1020 0
DWIDTH 17 0
BBX 14 14 1 0
BITMAP
FFFC
FFFC
2310
2310
2310
2310
2310
2310
2310
2310
2310
2310
2310
FFFC
ENDCHAR
STARTCHAR 2163
ENCODING 8547
SWIDTH 1020 0
DWIDTH 17 0
BBX 15 14 1 0
BITMAP
FFBE
FFBE
2408
2408
2408
2310
2310
2310
21A0
21A0
21A0
2040
2040
F840
ENDCHAR
STARTCHAR 2164
ENCODING 8548
SWIDTH 1020 0
DWIDTH 17 0
BBX 12 14 2 0
BITMAP
FBF0
FBF0
2040
2040
2040
1080
1080
1080
0B00
0B00
0B00
0600
0600
0600
ENDCHAR
STARTCHAR 2165
ENCODING 8549
SWIDTH 1020 0
DWIDTH 17 0
BBX 15 14 0 0
BITMAP
FBFE
FBFE
20C8
20C8
20C8
1188
1188
1188
0A08
0A08
0A08
0408
0408
043E
ENDCHAR
STARTCHAR 2166
ENCODING 8550
SWIDTH 1020 0
DWIDTH 17 0
BBX 16 14 0 0
BITMAP
F7FF
F7FF
2224
2224
2224
2224
1424
1424
1424
1424
0824
0824
0824
09FF
ENDCHAR
STARTCHAR 2167
ENCODING 8551
SWIDTH 1020 0
DWIDTH 17 0
BBX 16 14 0 0
BITMAP
EFFF
EFFF
4592
4592
4592
4592
2992
2992
2992
2992
1192
1192
1192
13FF
ENDCHAR
STARTCHAR 2168
ENCODING 8552
SWIDTH 1020 0
DWIDTH 17 0
BBX 15 14 1 0
BITMAP
FF9E
FF9E
2408
2408
2310
21A0
21A0
2040
21A0
21A0
2310
2408
2408
FFBE
ENDCHAR
STARTCHAR 2169
ENCODING 8553
SWIDTH 1020 0
DWIDTH 17 0
BBX 12 14 2 0
BITMAP
FBF0
FBF0
2040
2040
1080
0B00
0B00
0600
0B00
0B00
1080
2040
2040
FBF0
ENDCHAR
STARTCHAR 2190
ENCODING 8592
SWIDTH 1020 0
DWIDTH 17 0
BBX 16 7 0 3
BITMAP
1000
2000
4000
FFFF
4000
2000
1000
ENDCHAR
STARTCHAR 2191
ENCODING 8593
SWIDTH 1020 0
DWIDTH 17 0
BBX 8 17 4 -2
BITMAP
18
3C
3C
5A
99
18
18
18
18
18
18
18
18
18
18
18
18
ENDCHAR
STARTCHAR 2192
ENCODING 8594
SWIDTH 1020 0
DWIDTH 17 0
BBX 16 7 0 3
BITMAP
0008
0004
0002
FFFF
0002
0004
0008
ENDCHAR
STARTCHAR 2193
ENCODING 8595
SWIDTH 1020 0
DWIDTH 17 0
BBX 8 17 4 -2
BITMAP
18
18
18
18
18
18
18
18
18
18
18
18
18
99
5A
3C
18
ENDCHAR
STARTCHAR 21D2
ENCODING 8658
SWIDTH 1020 0
DWIDTH 17 0
BBX 14 9 1 2
BITMAP
0040
0020
FFF0
0008
0004
0008
FFF0
0020
0040
ENDCHAR
STARTCHAR 21D4
ENCODING 8660
SWIDTH 1020 0
DWIDTH 17 0
BBX 15 9 0 2
BITMAP
0820
1010
3FF8
4004
8002
4004
3FF8
1010
0820
ENDCHAR
STARTCHAR 2200
ENCODING 8704
SWIDTH 1020 0
DWIDTH 17 0
BBX 12 15 2 -1
BITMAP
8010
8010
8010
4020
4020
7FE0
2040
2040
1080
1080
1080
0B00
0B00
0600
0600
ENDCHAR
STARTCHAR 2202
ENCODING 8706
SWIDTH 1020 0
DWIDTH 17 0
BBX 10 13 2 -1
BITMAP
0F00
1080
0040
0040
0040
1E40
2340
4080
4080
8300
8300
4600
3800
ENDCHAR
STARTCHAR 2203
ENCODING 8707
SWIDTH 1020 0
DWIDTH 17 0
BBX 12 11 2 1
BITMAP
FFF0
0010
0010
0010
0010
FFF0
0010
0010
0010
0010
FFF0
ENDCHAR
STARTCHAR 2207
ENCODING 8711
SWIDTH 1020 0
DWIDTH 17 0
BBX 12 10 2 1
BITMAP
FFF0
7FE0
6020
2040
3040
1080
1880
0B00
0F00
0600
ENDCHAR
STARTCHAR 2208
ENCODING 8712
SWIDTH 1020 0
DWIDTH 17 0
BBX 12 9 2 2
BITMAP
3FF0
4000
8000
8000
FFF0
8000
8000
4000
3FF0
ENDCHAR
STARTCHAR 220B
ENCODING 8715
SWIDTH 1020 0
DWIDTH 17 0
BBX 12 9 2 2
BITMAP
FFC0
0020
0010
0010
FFF0
0010
0010
0020
FFC0
ENDCHAR
STARTCHAR 2211
ENCODING 8721
SWIDTH 1020 0
DWIDTH 17 0
BBX 11 12 3 0
BITMAP
FFE0
4000
2000
1000
0C00
0600
0C00
1000
2000
4000
8000
FFE0
ENDCHAR
STARTCHAR 2212
ENCODING 8722
SWIDTH 1020 0
DWIDTH 17 0
BBX 12 1 2 6
BITMAP
FFF0
ENDCHAR
STARTCHAR 221A
ENCODING 8730
SWIDTH 1020 0
DWIDTH 17 0
BBX 14 16 0 -1
BITMAP
00FC
00C0
00C0
00C0
0180
0180
0180
0180
4200
4200
A200
A400
1400
1400
0800
0800
ENDCHAR
STARTCHAR 221D
ENCODING 8733
SWIDTH 1020 0
DWIDTH 17 0
BBX 13 7 1 3
BITMAP
3030
4848
8580
8300
8580
4848
3030
ENDCHAR
STARTCHAR 221E
ENCODING 8734
SWIDTH 1020 0
DWIDTH 17 0
BBX 14 7 1 3
BITMAP
3030
4848
8584
8304
8584
4848
3030
ENDCHAR
STARTCHAR 221F
ENCODING 8735
SWIDTH 1020 0
DWIDTH 17 0
BBX 13 13 2 1
BITMAP
8000
8000
8000
8000
8000
8000
8000
8000
8000
8000
8000
8000
FFF8
ENDCHAR
STARTCHAR 2220
ENCODING 8736
SWIDTH 1020 0
DWIDTH 17 0
BBX 13 11 2 1
BITMAP
0010
0020
0040
0080
0300
0600
0800
1000
2000
4000
FFF8
ENDCHAR
STARTCHAR 2227
ENCODING 8743
SWIDTH 1020 0
DWIDTH 17 0
BBX 14 14 1 -2
BITMAP
0300
0300
0580
0580
0840
0840
1020
1020
2010
2010
4008
4008
8004
8004
ENDCHAR
STARTCHAR 2228
ENCODING 8744
SWIDTH 1020 0
DWIDTH 17 0
BBX 14 15 1 0
BITMAP
8004
8004
8004
4008
4008
2010
2010
1020
1020
0840
0840
0580
0580
0300
0300
ENDCHAR
STARTCHAR 2229
ENCODING 8745
SWIDTH 1020 0
DWIDTH 17 0
BBX 10 15 3 -1
BITMAP
1E00
1E00
2100
4080
8040
8040
8040
8040
8040
8040
8040
8040
8040
8040
8040
ENDCHAR
STARTCHAR 222A
ENCODING 8746
SWIDTH 1020 0
DWIDTH 17 0
BBX 10 15 3 -1
BITMAP
8040
8040
8040
8040
8040
8040
8040
8040
8040
8040
8040
8040
4080
2100
1E00
ENDCHAR
STARTCHAR 222B
ENCODING 8747
SWIDTH 1020 0
DWIDTH 17 0
BBX 5 17 6 -2
BITMAP
70
88
88
88
80
80
60
60
60
30
30
30
08
08
88
88
70
ENDCHAR
STARTCHAR 222C
ENCODING 8748
SWIDTH 1020 0
DWIDTH 17 0
BBX 10 17 3 -2
BITMAP
6180
9640
9640
9640
8600
8600
4100
4100
4100
2080
2080
2080
1040
1040
9640
9640
6180
ENDCHAR
STARTCHAR 222E
ENCODING 8750
SWIDTH 1020 0
DWIDTH 17 0
BBX 7 17 5 -2
BITMAP
38
44
44
44
40
40
7C
B2
B2
9A
7C
18
04
04
44
44
38
ENDCHAR
STARTCHAR 2234
ENCODING 8756
SWIDTH 1020 0
DWIDTH 17 0
BBX 12 10 2 1
BITMAP
0600
0F00
0600
0000
0000
0000
0000
4020
E070
4020
ENDCHAR
STARTCHAR 2235
ENCODING 8757
SWIDTH 1020 0
DWIDTH 17 0
BBX 12 10 2 1
BITMAP
4020
E070
4020
0000
0000
0000
0000
0600
0F00
0600
ENDCHAR
STARTCHAR 223D
ENCODING 8765
SWIDTH 1020 0
DWIDTH 17 0
BBX 14 7 1 3
BITMAP
3030
4848
8184
8304
8404
4848
3030
ENDCHAR
STARTCHAR 2252
ENCODING 8786
SWIDTH 1020 0
DWIDTH 17 0
BBX 12 15 2 -1
BITMAP
2000
2000
7000
2000
0000
0000
FFF0
0000
0000
FFF0
0000
0000
0040
00E0
0040
ENDCHAR
STARTCHAR 2260
ENCODING 8800
SWIDTH 1020 0
DWIDTH 17 0
BBX 12 12 2 0
BITMAP
0040
0080
0080
0300
FFF0
0600
0600
FFF0
0800
1000
1000
2000
ENDCHAR
STARTCHAR 2261
ENCODING 8801
SWIDTH 1020 0
DWIDTH 17 0
BBX 12 7 2 3
BITMAP
FFF0
0000
0000
FFF0
0000
0000
FFF0
ENDCHAR
STARTCHAR 2266
ENCODING 8806
SWIDTH 1020 0
DWIDTH 17 0
BBX 12 14 2 0
BITMAP
0030
0030
03C0
0E00
3000
C000
3000
0E00
03C0
0030
0000
FFF0
0000
FFF0
ENDCHAR
STARTCHAR 2267
ENCODING 8807
SWIDTH 1020 0
DWIDTH 17 0
BBX 12 14 2 0
BITMAP
C000
C000
3800
0700
00C0
0030
00C0
0700
3800
C000
0000
FFF0
0000
FFF0
ENDCHAR
STARTCHAR 226A
ENCODING 8810
SWIDTH 1020 0
DWIDTH 17 0
BBX 13 14 2 0
BITMAP
0060
0060
0080
0718
0820
30C0
4300
8600
4300
30C0
0820
0718
0080
0060
ENDCHAR
STARTCHAR 226B
ENCODING 8811
SWIDTH 1020 0
DWIDTH 17 0
BBX 13 14 1 0
BITMAP
3000
3000
0800
C700
2180
1860
0410
0308
0410
1860
2180
C700
0800
3000
ENDCHAR
STARTCHAR 2282
ENCODING 8834
SWIDTH 1020 0
DWIDTH 17 0
BBX 12 9 2 2
BITMAP
3FF0
4000
8000
8000
8000
8000
8000
4000
3FF0
ENDCHAR
STARTCHAR 2283
ENCODING 8835
SWIDTH 1020 0
DWIDTH 17 0
BBX 12 9 2 2
BITMAP
FFC0
0020
0010
0010
0010
0010
0010
0020
FFC0
ENDCHAR
STARTCHAR 2286
ENCODING 8838
SWIDTH 1020 0
DWIDTH 17 0
BBX 12 11 2 1
BITMAP
3FF0
4000
8000
8000
8000
8000
4000
3FF0
0000
0000
FFF0
ENDCHAR
STARTCHAR 2287
ENCODING 8839
SWIDTH 1020 0
DWIDTH 17 0
BBX 12 11 2 1
BITMAP
FFC0
0020
0010
0010
0010
0010
0020
FFC0
0000
0000
FFF0
ENDCHAR
STARTCHAR 22A5
ENCODING 8869
SWIDTH 1020 0
DWIDTH 17 0
BBX 14 13 1 1
BITMAP
0300
0300
0300
0300
0300
0300
0300
0300
0300
0300
0300
0300
FFFC
ENDCHAR
STARTCHAR 22BF
ENCODING 8895
SWIDTH 1020 0
DWIDTH 17 0
BBX 12 11 2 1
BITMAP
0010
0030
0050
0090
0310
0610
0810
1010
2010
4010
FFF0
ENDCHAR
STARTCHAR 2312
ENCODING 8978
SWIDTH 1020 0
DWIDTH 17 0
BBX 14 4 1 8
BITMAP
0FC0
3030
4008
8004
ENDCHAR
STARTCHAR 2460
ENCODING 9312
SWIDTH 1020 0
DWIDTH 17 0
BBX 16 17 0 -2
BITMAP
07E0
1818
1818
2184
4382
4582
8181
8181
8181
8181
8181
8181
4182
4182
2004
1818
07E0
ENDCHAR
STARTCHAR 2461
ENCODING 9313
SWIDTH 1020 0
DWIDTH 17 0
BBX 16 17 0 -2
BITMAP
07E0
1818
1818
2004
47C2
4822
8821
8021
80C1
8181
8201
8401
4802
4FE2
2004
1818
07E0
ENDCHAR
STARTCHAR 2462
ENCODING 9314
SWIDTH 1020 0
DWIDTH 17 0
BBX 16 17 0 -2
BITMAP
07E0
1818
1818
2004
47C2
4822
8821
8021
83C1
8021
8021
8821
4822
47C2
2004
1818
07E0
ENDCHAR
STARTCHAR 2463
ENCODING 9315
SWIDTH 1020 0
DWIDTH 17 0
BBX 16 17 0 -2
BITMAP
07E0
1818
1818
2004
40C2
41C2
82C1
82C1
84C1
88C1
9FF1
80C1
40C2
40C2
2004
1818
07E0
ENDCHAR
STARTCHAR 2464
ENCODING 9316
SWIDTH 1020 0
DWIDTH 17 0
BBX 16 17 0 -2
BITMAP
07E0
1818
1818
2004
4FE2
4802
8801
8801
8FC1
8821
8021
8821
4822
47C2
2004
1818
07E0
ENDCHAR
STARTCHAR 2465
ENCODING 9317
SWIDTH 1020 0
DWIDTH 17 0
BBX 16 17 0 -2
BITMAP
07E0
1818
1818
2004
47C2
4822
8821
8801
8FC1
8821
8821
8821
4822
47C2
2004
1818
07E0
ENDCHAR
STARTCHAR 2466
ENCODING 9318
SWIDTH 1020 0
DWIDTH 17 0
BBX 16 17 0 -2
BITMAP
07E0
1818
1818
2004
4FE2
4022
8021
80C1
80C1
8181
8181
8201
4202
4202
2004
1818
07E0
ENDCHAR
STARTCHAR 2467
ENCODING 9319
SWIDTH 1020 0
DWIDTH 17 0
BBX 16 17 0 -2
BITMAP
07E0
1818
1818
2004
47C2
4822
8821
8821
87C1
8821
8821
8821
4822
47C2
2004
1818
07E0
ENDCHAR
STARTCHAR 2468
ENCODING 9320
SWIDTH 1020 0
DWIDTH 17 0
BBX 16 17 0 -2
BITMAP
07E0
1818
1818
2004
47C2
4822
8821
8821
8821
87E1
8021
8821
4822
47C2
2004
1818
07E0
ENDCHAR
STARTCHAR 2469
ENCODING 9321
SWIDTH 1020 0
DWIDTH 17 0
BBX 16 17 0 -2
BITMAP
07E0
1818
1818
2004
48F2
598A
A989
8989
8989
8989
8989
8989
498A
48F2
2004
1818
07E0
ENDCHAR
STARTCHAR 246A
ENCODING 9322
SWIDTH 1020 0
DWIDTH 17 0
BBX 16 17 0 -2
BITMAP
07E0
1818
1818
2004
4422
4CE2
95A1
8421
8421
8421
8421
8421
4422
4422
2004
1818
07E0
ENDCHAR
STARTCHAR 246B
ENCODING 9323
SWIDTH 1020 0
DWIDTH 17 0
BBX 16 17 0 -2
BITMAP
07E0
1818
1818
2004
48F2
598A
A989
8809
8811
8821
88C1
8981
4982
49FA
2004
1818
07E0
ENDCHAR
STARTCHAR 246C
ENCODING 9324
SWIDTH 1020 0
DWIDTH 17 0
BBX 16 17 0 -2
BITMAP
07E0
1818
1818
2004
48F2
598A
A989
8809
8831
8809
8809
8989
498A
48F2
2004
1818
07E0
ENDCHAR
STARTCHAR 246D
ENCODING 9325
SWIDTH 1020 0
DWIDTH 17 0
BBX 16 17 0 -2
BITMAP
07E0
1818
1818
2004
4812
5832
A8D1
88D1
8991
8A11
8BF9
8811
4812
4812
2004
1818
07E0
ENDCHAR
STARTCHAR 246E
ENCODING 9326
SWIDTH 1020 0
DWIDTH 17 0
BBX 16 17 0 -2
BITMAP
07E0
1818
1818
2004
49F2
5982
A981
8981
89F1
8989
8809
8989
498A
48F2
2004
1818
07E0
ENDCHAR
STARTCHAR 246F
ENCODING 9327
SWIDTH 1020 0
DWIDTH 17 0
BBX 16 17 0 -2
BITMAP
07E0
1818
1818
2004
48F2
598A
A989
8981
89F1
8989
8989
8989
498A
48F2
2004
1818
07E0
ENDCHAR
STARTCHAR 2470
ENCODING 9328
SWIDTH 1020 0
DWIDTH 17 0
BBX 16 17 0 -2
BITMAP
07E0
1818
1818
2004
49FA
580A
A809
8811
8811
8821
8821
88C1
48C2
48C2
2004
1818
07E0
ENDCHAR
STARTCHAR 2471
ENCODING 9329
SWIDTH 1020 0
DWIDTH 17 0
BBX 16 17 0 -2
BITMAP
07E0
1818
1818
2004
48F2
598A
A989
8989
88F1
8989
8989
8989
498A
48F2
2004
1818
07E0
ENDCHAR
STARTCHAR 2472
ENCODING 9330
SWIDTH 1020 0
DWIDTH 17 0
BBX 16 17 0 -2
BITMAP
07E0
1818
1818
2004
48F2
598A
A989
8989
8989
88F9
8809
8989
498A
48F2
2004
1818
07E0
ENDCHAR
STARTCHAR 2473
ENCODING 9331
SWIDTH 1020 0
DWIDTH 17 0
BBX 16 17 0 -2
BITMAP
07E0
1818
1818
2004
4C32
52CA
92C9
82C9
82C9
84C9
88C9
90C9
50CA
5E32
2004
1818
07E0
ENDCHAR
STARTCHAR 2581
ENCODING 9601
SWIDTH 1020 0
DWIDTH 17 0
BBX 7 17 0 -2
BITMAP
80
80
80
40
40
20
20
20
10
10
08
08
08
04
04
02
02
ENDCHAR
STARTCHAR 2582
ENCODING 9602
SWIDTH 1020 0
DWIDTH 17 0
BBX 7 3 0 11
BITMAP
72
72
8C
ENDCHAR
STARTCHAR 2583
ENCODING 9603
SWIDTH 1020 0
DWIDTH 17 0
BBX 1 12 3 0
BITMAP
80
80
80
80
80
00
00
80
80
80
80
80
ENDCHAR
STARTCHAR 2587
ENCODING 9607
SWIDTH 1020 0
DWIDTH 17 0
BBX 7 16 0 -1
BITMAP
30
14
14
1C
70
20
20
58
6A
CE
88
18
20
20
24
1C
ENDCHAR
STARTCHAR 2588
ENCODING 9608
SWIDTH 1020 0
DWIDTH 17 0
BBX 7 10 0 -2
BITMAP
20
28
F8
24
3E
64
BA
92
AA
4C
ENDCHAR
STARTCHAR 2589
ENCODING 9609
SWIDTH 1020 0
DWIDTH 17 0
BBX 7 10 0 -2
BITMAP
30
10
16
18
10
10
70
98
96
62
ENDCHAR
STARTCHAR 258A
ENCODING 9610
SWIDTH 1020 0
DWIDTH 17 0
BBX 7 10 0 -2
BITMAP
10
C8
5C
AA
CA
AA
DC
10
10
20
ENDCHAR
STARTCHAR 258B
ENCODING 9611
SWIDTH 1020 0
DWIDTH 17 0
BBX 7 10 0 -2
BITMAP
0C
68
4C
32
EA
2C
20
10
10
10
ENDCHAR
STARTCHAR 258C
ENCODING 9612
SWIDTH 1020 0
DWIDTH 17 0
BBX 7 9 0 -1
BITMAP
24
22
FA
20
20
3C
62
A2
6C
ENDCHAR
STARTCHAR 258D
ENCODING 9613
SWIDTH 1020 0
DWIDTH 17 0
BBX 7 11 0 -2
BITMAP
20
18
04
5C
64
08
10
30
28
C8
8E
ENDCHAR
STARTCHAR 258E
ENCODING 9614
SWIDTH 1020 0
DWIDTH 17 0
BBX 6 11 0 -2
BITMAP
20
18
00
B8
C4
04
04
08
08
10
20
ENDCHAR
STARTCHAR 258F
ENCODING 9615
SWIDTH 1020 0
DWIDTH 17 0
BBX 7 8 0 -1
BITMAP
80
84
82
82
86
50
60
20
ENDCHAR
STARTCHAR 25A0
ENCODING 9632
SWIDTH 1020 0
DWIDTH 17 0
BBX 16 17 0 -2
BITMAP
FFFF
FFFF
FFFF
FFFF
FFFF
FFFF
FFFF
FFFF
FFFF
FFFF
FFFF
FFFF
FFFF
FFFF
FFFF
FFFF
FFFF
ENDCHAR
STARTCHAR 25A1
ENCODING 9633
SWIDTH 1020 0
DWIDTH 17 0
BBX 16 17 0 -2
BITMAP
FFFF
8001
8001
8001
8001
8001
8001
8001
8001
8001
8001
8001
8001
8001
8001
8001
FFFF
ENDCHAR
STARTCHAR 25B2
ENCODING 9650
SWIDTH 1020 0
DWIDTH 17 0
BBX 16 16 0 -1
BITMAP
0180
0180
0180
03C0
03C0
07E0
07E0
0FF0
0FF0
1FF8
1FF8
3FFC
3FFC
7FFE
7FFE
FFFF
ENDCHAR
STARTCHAR 25B3
ENCODING 9651
SWIDTH 1020 0
DWIDTH 17 0
BBX 16 16 0 -1
BITMAP
0180
0180
0180
02C0
02C0
0420
0420
0810
0810
1008
1008
2004
2004
4002
4002
FFFF
ENDCHAR
STARTCHAR 25BC
ENCODING 9660
SWIDTH 1020 0
DWIDTH 17 0
BBX 16 16 0 -2
BITMAP
FFFF
FFFF
7FFE
7FFE
3FFC
3FFC
1FF8
1FF8
0FF0
0FF0
07E0
07E0
03C0
03C0
0180
0180
ENDCHAR
STARTCHAR 25BD
ENCODING 9661
SWIDTH 1020 0
DWIDTH 17 0
BBX 16 16 0 -2
BITMAP
FFFF
FFFF
4002
4002
2004
2004
1008
1008
0810
0810
0420
0420
02C0
02C0
0180
0180
ENDCHAR
STARTCHAR 25C6
ENCODING 9670
SWIDTH 1020 0
DWIDTH 17 0
BBX 16 17 0 -2
BITMAP
0180
03C0
03C0
07E0
0FF0
1FF8
3FFC
7FFE
FFFF
FFFF
7FFE
3FFC
1FF8
0FF0
07E0
03C0
0180
ENDCHAR
STARTCHAR 25C7
ENCODING 9671
SWIDTH 1020 0
DWIDTH 17 0
BBX 16 16 0 -1
BITMAP
0180
02C0
02C0
0420
0810
1008
2004
4002
8001
4002
2004
1008
0810
0420
02C0
0180
ENDCHAR
STARTCHAR 25CB
ENCODING 9675
SWIDTH 1020 0
DWIDTH 17 0
BBX 16 17 0 -2
BITMAP
07E0
1818
1818
2004
4002
4002
8001
8001
8001
8001
8001
8001
4002
4002
2004
1818
07E0
ENDCHAR
STARTCHAR 25CE
ENCODING 9678
SWIDTH 1020 0
DWIDTH 17 0
BBX 16 17 0 -2
BITMAP
07E0
1818
1818
2004
4002
47E2
8811
9009
9009
9009
9009
8811
47E2
4002
2004
1818
07E0
ENDCHAR
STARTCHAR 25CF
ENCODING 9679
SWIDTH 1020 0
DWIDTH 17 0
BBX 16 17 0 -2
BITMAP
07E0
1FF8
1FF8
3FFC
7FFE
7FFE
FFFF
FFFF
FFFF
FFFF
FFFF
FFFF
7FFE
7FFE
3FFC
1FF8
07E0
ENDCHAR
STARTCHAR 25EF
ENCODING 9711
SWIDTH 1020 0
DWIDTH 17 0
BBX 16 17 0 -2
BITMAP
07E0
1818
1818
2004
4002
4002
8001
8001
8001
8001
8001
8001
4002
4002
2004
1818
07E0
ENDCHAR
STARTCHAR 2605
ENCODING 9733
SWIDTH 1020 0
DWIDTH 17 0
BBX 16 17 0 -2
BITMAP
0180
0180
0180
03C0
03C0
07E0
07E0
FFFF
3FFC
1FF8
07E0
0FF0
0FF0
1EF8
1C38
300C
2004
ENDCHAR
STARTCHAR 2606
ENCODING 9734
SWIDTH 1020 0
DWIDTH 17 0
BBX 16 17 0 -2
BITMAP
0180
0180
0180
02C0
02C0
0420
0420
F81F
2004
1818
0420
0810
0990
12C8
1C38
300C
2004
ENDCHAR
STARTCHAR 2640
ENCODING 9792
SWIDTH 1020 0
DWIDTH 17 0
BBX 12 16 2 -1
BITMAP
0F00
1080
1080
2040
2040
2040
1080
0F00
0600
0600
FFF0
0600
0600
0600
0600
0600
ENDCHAR
STARTCHAR 2642
ENCODING 9794
SWIDTH 1020 0
DWIDTH 17 0
BBX 15 15 0 -1
BITMAP
00FE
00FE
0006
000A
0012
0022
00C2
0180
3A00
4400
8200
8200
8200
4400
3800
ENDCHAR
STARTCHAR 266A
ENCODING 9834
SWIDTH 1020 0
DWIDTH 17 0
BBX 11 15 2 -1
BITMAP
0600
0600
0700
0780
06C0
0660
0620
0620
0620
0640
1E00
7E00
F800
F800
6000
ENDCHAR
STARTCHAR 266D
ENCODING 9837
SWIDTH 1020 0
DWIDTH 17 0
BBX 7 15 4 -1
BITMAP
80
80
80
80
80
B8
DC
CE
8E
8C
9C
B8
A0
C0
80
ENDCHAR
STARTCHAR 266F
ENCODING 9839
SWIDTH 1020 0
DWIDTH 17 0
BBX 10 15 3 -1
BITMAP
0100
0100
2100
21C0
3FC0
FF00
E100
2100
2100
21C0
3FC0
FF00
E100
2100
2000
ENDCHAR
STARTCHAR 3000
ENCODING 12288
SWIDTH 1020 0
DWIDTH 17 0
BBX 0 0 0 0
BITMAP
ENDCHAR
STARTCHAR 3001
ENCODING 12289
SWIDTH 1020 0
DWIDTH 17 0
BBX 5 6 0 -2
BITMAP
80
40
20
10
08
08
ENDCHAR
STARTCHAR 3002
ENCODING 12290
SWIDTH 1020 0
DWIDTH 17 0
BBX 5 5 0 -2
BITMAP
70
88
88
88
70
ENDCHAR
STARTCHAR 3003
ENCODING 12291
SWIDTH 1020 0
DWIDTH 17 0
BBX 8 6 3 4
BITMAP
21
21
21
46
46
8C
ENDCHAR
STARTCHAR 3005
ENCODING 12293
SWIDTH 1020 0
DWIDTH 17 0
BBX 13 15 0 -1
BITMAP
0400
0400
0400
0400
0FF0
0808
1008
1010
2010
4420
82C0
0180
00C0
0020
0020
ENDCHAR
STARTCHAR 3006
ENCODING 12294
SWIDTH 1020 0
DWIDTH 17 0
BBX 14 15 1 0
BITMAP
0004
0004
0004
0008
0010
0010
1820
2440
4380
4180
8340
8420
8810
9010
6000
ENDCHAR
STARTCHAR 3007
ENCODING 12295
SWIDTH 1020 0
DWIDTH 17 0
BBX 16 12 0 0
BITMAP
07E0
1818
2004
4002
8001
8001
8001
8001
4002
2004
1818
07E0
ENDCHAR
STARTCHAR 3008
ENCODING 12296
SWIDTH 1020 0
DWIDTH 17 0
BBX 5 17 10 -2
BITMAP
08
08
08
10
10
20
40
40
80
80
40
40
20
10
10
08
08
ENDCHAR
STARTCHAR 3009
ENCODING 12297
SWIDTH 1020 0
DWIDTH 17 0
BBX 5 17 1 -2
BITMAP
80
80
80
40
40
20
10
10
08
08
10
10
20
40
40
80
80
ENDCHAR
STARTCHAR 300A
ENCODING 12298
SWIDTH 1020 0
DWIDTH 17 0
BBX 9 17 6 -2
BITMAP
0480
0480
0480
0900
0900
3200
6400
6400
8800
8800
6400
6400
3200
0900
0900
0480
0480
ENDCHAR
STARTCHAR 300B
ENCODING 12299
SWIDTH 1020 0
DWIDTH 17 0
BBX 9 17 1 -2
BITMAP
9000
9000
9000
4800
4800
2400
1300
1300
0980
0980
1300
1300
2400
4800
4800
9000
9000
ENDCHAR
STARTCHAR 300C
ENCODING 12300
SWIDTH 1020 0
DWIDTH 17 0
BBX 5 14 10 1
BITMAP
F8
80
80
80
80
80
80
80
80
80
80
80
80
80
ENDCHAR
STARTCHAR 300D
ENCODING 12301
SWIDTH 1020 0
DWIDTH 17 0
BBX 5 13 1 -2
BITMAP
08
08
08
08
08
08
08
08
08
08
08
08
F8
ENDCHAR
STARTCHAR 300E
ENCODING 12302
SWIDTH 1020 0
DWIDTH 17 0
BBX 7 14 8 1
BITMAP
FE
C2
C2
DE
D0
D0
D0
D0
D0
D0
D0
D0
D0
F0
ENDCHAR
STARTCHAR 300F
ENCODING 12303
SWIDTH 1020 0
DWIDTH 17 0
BBX 6 13 1 -2
BITMAP
1C
14
14
14
14
14
14
14
14
14
F4
84
FC
ENDCHAR
STARTCHAR 3010
ENCODING 12304
SWIDTH 1020 0
DWIDTH 17 0
BBX 5 17 10 -2
BITMAP
F8
E0
E0
E0
C0
C0
C0
C0
C0
C0
C0
C0
C0
C0
E0
E0
F8
ENDCHAR
STARTCHAR 3011
ENCODING 12305
SWIDTH 1020 0
DWIDTH 17 0
BBX 5 17 1 -2
BITMAP
F8
38
38
38
18
18
18
18
18
18
18
18
18
18
38
38
F8
ENDCHAR
STARTCHAR 3012
ENCODING 12306
SWIDTH 1020 0
DWIDTH 17 0
BBX 15 16 0 -2
BITMAP
FFFE
FFFE
FFFE
0000
0000
FFFE
FFFE
0380
0380
0380
0380
0380
0380
0380
0380
0380
ENDCHAR
STARTCHAR 3013
ENCODING 12307
SWIDTH 1020 0
DWIDTH 17 0
BBX 12 7 2 3
BITMAP
FFF0
FFF0
0000
0000
0000
FFF0
FFF0
ENDCHAR
STARTCHAR 3014
ENCODING 12308
SWIDTH 1020 0
DWIDTH 17 0
BBX 4 17 11 -2
BITMAP
10
20
20
40
80
80
80
80
80
80
80
80
80
80
40
20
10
ENDCHAR
STARTCHAR 3015
ENCODING 12309
SWIDTH 1020 0
DWIDTH 17 0
BBX 4 17 1 -2
BITMAP
80
40
40
20
10
10
10
10
10
10
10
10
10
10
20
40
80
ENDCHAR
STARTCHAR 301C
ENCODING 12316
SWIDTH 1020 0
DWIDTH 17 0
BBX 16 5 0 4
BITMAP
3C00
4200
8181
00C2
003C
ENDCHAR
STARTCHAR 301D
ENCODING 12317
SWIDTH 1020 0
DWIDTH 17 0
BBX 5 4 10 10
BITMAP
48
48
48
90
ENDCHAR
STARTCHAR 301F
ENCODING 12319
SWIDTH 1020 0
DWIDTH 17 0
BBX 5 3 1 -1
BITMAP
48
48
90
ENDCHAR
STARTCHAR 3041
ENCODING 12353
SWIDTH 1020 0
DWIDTH 17 0
BBX 10 11 3 -2
BITMAP
1000
1000
7F00
1000
1F00
3680
5640
9C40
AC40
4080
0700
ENDCHAR
STARTCHAR 3042
ENCODING 12354
SWIDTH 1020 0
DWIDTH 17 0
BBX 13 16 2 -1
BITMAP
0600
0600
0600
0600
0FE0
F800
0880
1FE0
2890
4B08
4B08
8E08
8808
9610
6020
03C0
ENDCHAR
STARTCHAR 3043
ENCODING 12355
SWIDTH 1020 0
DWIDTH 17 0
BBX 11 8 3 -1
BITMAP
4080
8040
8020
8020
8020
4000
4000
3000
ENDCHAR
STARTCHAR 3044
ENCODING 12356
SWIDTH 1020 0
DWIDTH 17 0
BBX 13 12 2 0
BITMAP
4000
4040
8020
8010
8010
8008
8008
8008
4008
4000
2000
1000
ENDCHAR
STARTCHAR 3045
ENCODING 12357
SWIDTH 1020 0
DWIDTH 17 0
BBX 7 11 5 -2
BITMAP
40
3C
00
3C
C2
02
02
02
02
04
38
ENDCHAR
STARTCHAR 3046
ENCODING 12358
SWIDTH 1020 0
DWIDTH 17 0
BBX 11 17 2 -2
BITMAP
1000
0E00
0E00
0380
0000
0000
1F80
6040
8020
0020
0020
0020
0040
0040
0080
0300
0E00
ENDCHAR
STARTCHAR 3047
ENCODING 12359
SWIDTH 1020 0
DWIDTH 17 0
BBX 10 10 3 -1
BITMAP
1000
0E00
0000
1F00
6600
0C00
1600
2600
4600
81C0
ENDCHAR
STARTCHAR 3048
ENCODING 12360
SWIDTH 1020 0
DWIDTH 17 0
BBX 13 16 2 -1
BITMAP
1000
0E00
0E00
0380
0000
0F00
7080
0080
0300
0600
0800
1600
2300
4300
8300
80F8
ENDCHAR
STARTCHAR 3049
ENCODING 12361
SWIDTH 1020 0
DWIDTH 17 0
BBX 10 9 3 -1
BITMAP
2000
2080
FC40
2040
3F80
6040
A040
A040
4780
ENDCHAR
STARTCHAR 304A
ENCODING 12362
SWIDTH 1020 0
DWIDTH 17 0
BBX 14 16 1 -1
BITMAP
1000
1000
1000
1010
3F08
D004
1004
1000
17F0
1808
3004
5004
9004
9184
9188
6070
ENDCHAR
STARTCHAR 304B
ENCODING 12363
SWIDTH 1020 0
DWIDTH 17 0
BBX 16 16 0 -1
BITMAP
0400
0400
0400
0400
0800
1F88
E8C4
0822
1022
1021
1021
2021
20C0
20C0
4180
4600
ENDCHAR
STARTCHAR 304C
ENCODING 12364
SWIDTH 1020 0
DWIDTH 17 0
BBX 16 16 0 -1
BITMAP
0402
0409
0409
0405
0804
1F88
E8C4
0822
1022
1021
1021
2021
20C0
20C0
4180
4600
ENDCHAR
STARTCHAR 304D
ENCODING 12365
SWIDTH 1020 0
DWIDTH 17 0
BBX 10 16 3 -2
BITMAP
1000
1000
1000
1F80
EC00
0600
0FC0
F100
0080
0040
0040
8000
8000
4000
3000
0F80
ENDCHAR
STARTCHAR 304E
ENCODING 12366
SWIDTH 1020 0
DWIDTH 17 0
BBX 14 17 2 -2
BITMAP
0008
0824
0824
0814
0FD0
F600
0300
03E0
7E80
0040
0020
0020
4000
4000
2000
1800
07C0
ENDCHAR
STARTCHAR 304F
ENCODING 12367
SWIDTH 1020 0
DWIDTH 17 0
BBX 8 17 3 -2
BITMAP
06
06
06
0C
0C
10
20
40
80
80
40
20
10
0C
06
01
01
ENDCHAR
STARTCHAR 3050
ENCODING 12368
SWIDTH 1020 0
DWIDTH 17 0
BBX 12 17 3 -2
BITMAP
0600
0600
0600
0C00
0C20
1090
2050
4040
8000
8000
4000
2000
1000
0C00
0600
0100
0100
ENDCHAR
STARTCHAR 3051
ENCODING 12369
SWIDTH 1020 0
DWIDTH 17 0
BBX 14 17 2 -2
BITMAP
0020
4020
4020
4020
4020
4020
83FC
8E20
8020
8020
8020
8020
8020
8040
4040
4080
0700
ENDCHAR
STARTCHAR 3052
ENCODING 12370
SWIDTH 1020 0
DWIDTH 17 0
BBX 15 17 1 -2
BITMAP
0024
4032
4032
402A
4028
4020
83FE
8C20
8020
8020
8020
8020
8020
8040
4040
4180
0700
ENDCHAR
STARTCHAR 3053
ENCODING 12371
SWIDTH 1020 0
DWIDTH 17 0
BBX 12 11 2 0
BITMAP
3F00
00C0
0000
0000
0000
0000
0000
8000
8000
6000
1FF0
ENDCHAR
STARTCHAR 3054
ENCODING 12372
SWIDTH 1020 0
DWIDTH 17 0
BBX 13 15 2 0
BITMAP
0010
0048
0048
0028
3F20
00C0
0000
0000
0000
0000
0000
8000
8000
6000
1FF0
ENDCHAR
STARTCHAR 3055
ENCODING 12373
SWIDTH 1020 0
DWIDTH 17 0
BBX 11 17 2 -2
BITMAP
0800
0800
0800
0800
0600
0600
07E0
FB00
0080
0040
0020
0020
4000
4000
2000
1800
0780
ENDCHAR
STARTCHAR 3056
ENCODING 12374
SWIDTH 1020 0
DWIDTH 17 0
BBX 14 17 2 -2
BITMAP
0808
0824
0824
0814
0610
0600
07E0
FB00
0080
0040
0020
0020
4000
4000
2000
1800
0780
ENDCHAR
STARTCHAR 3057
ENCODING 12375
SWIDTH 1020 0
DWIDTH 17 0
BBX 11 15 4 -1
BITMAP
8000
8000
8000
8000
8000
8000
8000
8000
8000
8000
8000
8020
8040
4180
3E00
ENDCHAR
STARTCHAR 3058
ENCODING 12376
SWIDTH 1020 0
DWIDTH 17 0
BBX 11 15 4 -1
BITMAP
8000
8000
8080
8240
8140
8100
8000
8000
8000
8000
8000
8020
8040
4180
3E00
ENDCHAR
STARTCHAR 3059
ENCODING 12377
SWIDTH 1020 0
DWIDTH 17 0
BBX 16 15 0 -1
BITMAP
00C0
00C0
00C0
00C0
0FFF
F0C0
06C0
09C0
08C0
08C0
09C0
06C0
00C0
0180
0E00
ENDCHAR
STARTCHAR 305A
ENCODING 12378
SWIDTH 1020 0
DWIDTH 17 0
BBX 16 16 0 -1
BITMAP
0002
00C9
00C9
00C5
00C4
0FFF
F0C0
06C0
09C0
08C0
08C0
09C0
06C0
00C0
0180
0E00
ENDCHAR
STARTCHAR 305B
ENCODING 12379
SWIDTH 1020 0
DWIDTH 17 0
BBX 15 15 0 -1
BITMAP
0020
0020
0820
0820
0820
0FFE
F820
0820
0820
0820
08C0
0800
0800
0400
03F8
ENDCHAR
STARTCHAR 305C
ENCODING 12380
SWIDTH 1020 0
DWIDTH 17 0
BBX 16 16 0 -1
BITMAP
0002
0029
0029
0825
0824
0820
0FFF
F820
0820
0820
0820
08C0
0800
0800
0400
03F8
ENDCHAR
STARTCHAR 305D
ENCODING 12381
SWIDTH 1020 0
DWIDTH 17 0
BBX 13 16 1 -2
BITMAP
1F80
1F80
2040
0180
0300
0400
0BF8
FC40
0180
0300
0400
0400
0400
0400
0300
01C0
ENDCHAR
STARTCHAR 305E
ENCODING 12382
SWIDTH 1020 0
DWIDTH 17 0
BBX 15 16 1 -2
BITMAP
1F84
1F84
2052
018A
0308
0400
0BF8
FC40
0180
0300
0400
0400
0400
0400
0300
01C0
ENDCHAR
STARTCHAR 305F
ENCODING 12383
SWIDTH 1020 0
DWIDTH 17 0
BBX 14 15 1 -1
BITMAP
1000
1000
1000
1000
1F80
F000
21F8
2000
2000
4000
4000
4400
8400
8380
007C
ENDCHAR
STARTCHAR 3060
ENCODING 12384
SWIDTH 1020 0
DWIDTH 17 0
BBX 15 16 1 -1
BITMAP
0004
1012
1012
100A
1008
1F80
F000
21F8
2000
2000
4000
4000
4400
8400
8380
007C
ENDCHAR
STARTCHAR 3061
ENCODING 12385
SWIDTH 1020 0
DWIDTH 17 0
BBX 13 16 1 -1
BITMAP
0800
0800
0800
0800
1000
1F80
F000
1000
21E0
2710
2808
3008
0008
0010
0060
0780
ENDCHAR
STARTCHAR 3062
ENCODING 12386
SWIDTH 1020 0
DWIDTH 17 0
BBX 14 16 1 -1
BITMAP
0800
0808
0808
0824
1014
1F90
F000
1000
21E0
2710
2808
3008
0008
0010
0060
0780
ENDCHAR
STARTCHAR 3063
ENCODING 12387
SWIDTH 1020 0
DWIDTH 17 0
BBX 11 7 2 -1
BITMAP
1FC0
E020
0020
0020
0020
0040
0F80
ENDCHAR
STARTCHAR 3064
ENCODING 12388
SWIDTH 1020 0
DWIDTH 17 0
BBX 14 10 1 0
BITMAP
07F0
3808
C004
0004
0004
0004
0008
0008
0030
07C0
ENDCHAR
STARTCHAR 3065
ENCODING 12389
SWIDTH 1020 0
DWIDTH 17 0
BBX 15 15 1 0
BITMAP
0004
0012
0012
000A
0008
07F0
3808
C004
0004
0004
0004
0008
0008
0030
0FC0
ENDCHAR
STARTCHAR 3066
ENCODING 12390
SWIDTH 1020 0
DWIDTH 17 0
BBX 15 12 0 -1
BITMAP
07FE
F8C0
0180
0200
0200
0400
0400
0400
0400
0200
0180
00F8
ENDCHAR
STARTCHAR 3067
ENCODING 12391
SWIDTH 1020 0
DWIDTH 17 0
BBX 16 12 0 -1
BITMAP
07FA
F8C9
0185
0204
0200
0400
0400
0400
0400
0200
0180
00F8
ENDCHAR
STARTCHAR 3068
ENCODING 12392
SWIDTH 1020 0
DWIDTH 17 0
BBX 10 16 3 -1
BITMAP
2000
2000
2000
2000
2000
2000
2000
17C0
1C00
2000
4000
8000
8000
8000
4000
3FC0
ENDCHAR
STARTCHAR 3069
ENCODING 12393
SWIDTH 1020 0
DWIDTH 17 0
BBX 12 16 3 -1
BITMAP
2020
2090
2090
2050
2040
2000
2000
17C0
1C00
2000
4000
8000
8000
8000
4000
3FC0
ENDCHAR
STARTCHAR 306A
ENCODING 12394
SWIDTH 1020 0
DWIDTH 17 0
BBX 15 16 1 -1
BITMAP
1000
1000
1000
1000
1F30
F00C
2002
2020
4020
4020
4020
8020
87E0
0838
0826
07C0
ENDCHAR
STARTCHAR 306B
ENCODING 12395
SWIDTH 1020 0
DWIDTH 17 0
BBX 13 15 2 -1
BITMAP
4000
4000
4000
47C0
8030
8000
8000
8000
8000
8000
8800
8800
8700
40F8
4000
ENDCHAR
STARTCHAR 306C
ENCODING 12396
SWIDTH 1020 0
DWIDTH 17 0
BBX 15 14 1 0
BITMAP
0180
0180
0180
2180
27E0
3990
2308
5304
5404
8804
89F4
9708
630C
01F2
ENDCHAR
STARTCHAR 306D
ENCODING 12397
SWIDTH 1020 0
DWIDTH 17 0
BBX 15 16 1 -1
BITMAP
1000
1000
1000
1000
1000
7DF0
9308
1404
1804
1004
3004
51E8
5318
9314
91E2
1000
ENDCHAR
STARTCHAR 306E
ENCODING 12398
SWIDTH 1020 0
DWIDTH 17 0
BBX 14 12 1 0
BITMAP
07C0
1B30
2308
4308
4304
8404
8404
8804
8808
9008
6030
03C0
ENDCHAR
STARTCHAR 306F
ENCODING 12399
SWIDTH 1020 0
DWIDTH 17 0
BBX 15 15 1 -1
BITMAP
4020
4020
4020
4020
4020
803C
87E0
8020
8020
8020
8020
83E0
8438
4426
43C0
ENDCHAR
STARTCHAR 3070
ENCODING 12400
SWIDTH 1020 0
DWIDTH 17 0
BBX 15 16 1 -1
BITMAP
0004
4052
4052
404A
4048
4040
807C
8FC0
8040
8040
8040
8040
87C0
8870
484C
4782
ENDCHAR
STARTCHAR 3071
ENCODING 12401
SWIDTH 1020 0
DWIDTH 17 0
BBX 15 16 1 -1
BITMAP
000C
4052
4052
4052
404C
4040
807C
8FC0
8040
8040
8040
8040
87C0
8870
484C
4782
ENDCHAR
STARTCHAR 3072
ENCODING 12402
SWIDTH 1020 0
DWIDTH 17 0
BBX 15 12 1 -1
BITMAP
7020
8830
1028
2028
2024
4022
4020
4040
4040
4180
2300
1C00
ENDCHAR
STARTCHAR 3073
ENCODING 12403
SWIDTH 1020 0
DWIDTH 17 0
BBX 16 15 0 -1
BITMAP
0002
0002
0009
7025
8834
1028
2028
2024
4022
4021
40C0
40C0
4180
2200
1C00
ENDCHAR
STARTCHAR 3074
ENCODING 12404
SWIDTH 1020 0
DWIDTH 17 0
BBX 16 15 0 -1
BITMAP
0006
0006
0009
7029
8836
1028
2028
2024
4022
4021
40C0
40C0
4180
2200
1C00
ENDCHAR
STARTCHAR 3075
ENCODING 12405
SWIDTH 1020 0
DWIDTH 17 0
BBX 16 15 0 -1
BITMAP
0200
0200
0180
00E0
0000
0000
0400
0208
0184
10C2
1021
2021
4021
8420
03C0
ENDCHAR
STARTCHAR 3076
ENCODING 12406
SWIDTH 1020 0
DWIDTH 17 0
BBX 16 15 0 -1
BITMAP
0200
0200
0182
00E9
0005
0004
0400
0208
0184
10C2
1021
2021
4021
8420
03C0
ENDCHAR
STARTCHAR 3077
ENCODING 12407
SWIDTH 1020 0
DWIDTH 17 0
BBX 16 15 0 -1
BITMAP
0200
0200
0186
00E9
0009
0006
0400
0208
0184
10C2
1021
2021
4021
8420
03C0
ENDCHAR
STARTCHAR 3078
ENCODING 12408
SWIDTH 1020 0
DWIDTH 17 0
BBX 15 9 1 2
BITMAP
1800
2400
2300
4180
4040
4020
8010
8008
0006
ENDCHAR
STARTCHAR 3079
ENCODING 12409
SWIDTH 1020 0
DWIDTH 17 0
BBX 15 12 1 2
BITMAP
0010
0010
0048
1828
2420
2300
4180
4040
4020
8010
8008
0006
ENDCHAR
STARTCHAR 307A
ENCODING 12410
SWIDTH 1020 0
DWIDTH 17 0
BBX 15 12 1 2
BITMAP
0030
0030
0048
1848
2430
2300
4180
4040
4020
8010
8008
0006
ENDCHAR
STARTCHAR 307B
ENCODING 12411
SWIDTH 1020 0
DWIDTH 17 0
BBX 15 15 1 -1
BITMAP
4000
4000
47F8
4020
8020
8020
803C
87E0
8020
8020
8020
83E0
4438
4426
23C0
ENDCHAR
STARTCHAR 307C
ENCODING 12412
SWIDTH 1020 0
DWIDTH 17 0
BBX 15 16 1 -1
BITMAP
0004
4012
4012
47EA
4028
8020
8020
803C
87E0
8020
8020
8020
83E0
4438
4426
23C0
ENDCHAR
STARTCHAR 307D
ENCODING 12413
SWIDTH 1020 0
DWIDTH 17 0
BBX 15 16 1 -1
BITMAP
000C
4012
4012
47F2
402C
8020
8020
803C
87E0
8020
8020
8020
83E0
4438
4426
23C0
ENDCHAR
STARTCHAR 307E
ENCODING 12414
SWIDTH 1020 0
DWIDTH 17 0
BBX 12 16 2 -1
BITMAP
0600
0600
0600
0600
07F0
FE00
0600
07E0
7E00
0600
0600
0600
3F80
4660
4610
3800
ENDCHAR
STARTCHAR 307F
ENCODING 12415
SWIDTH 1020 0
DWIDTH 17 0
BBX 15 13 1 -1
BITMAP
3C00
4300
0300
0310
0408
0408
3FC8
4838
880C
9012
9020
6040
0380
ENDCHAR
STARTCHAR 3080
ENCODING 12416
SWIDTH 1020 0
DWIDTH 17 0
BBX 14 16 1 -1
BITMAP
1000
1000
1000
1010
1F08
F004
1004
1000
7000
9000
9000
9008
7008
1008
1010
0FE0
ENDCHAR
STARTCHAR 3081
ENCODING 12417
SWIDTH 1020 0
DWIDTH 17 0
BBX 14 15 1 -1
BITMAP
0180
0180
0180
2180
23C0
2DB0
3188
2304
5304
5404
8804
9408
A308
4030
03C0
ENDCHAR
STARTCHAR 3082
ENCODING 12418
SWIDTH 1020 0
DWIDTH 17 0
BBX 13 16 1 -1
BITMAP
0400
0400
0400
0400
0800
4800
3F00
0820
1010
9010
9008
7F08
1008
1008
0810
07E0
ENDCHAR
STARTCHAR 3083
ENCODING 12419
SWIDTH 1020 0
DWIDTH 17 0
BBX 13 11 1 -1
BITMAP
0400
0300
0180
13F0
1408
3808
C988
0870
0400
0300
0300
ENDCHAR
STARTCHAR 3084
ENCODING 12420
SWIDTH 1020 0
DWIDTH 17 0
BBX 16 15 0 -1
BITMAP
0180
0180
08E0
1010
10FC
1382
0C01
1801
6422
841C
0200
0200
0180
0180
00C0
ENDCHAR
STARTCHAR 3085
ENCODING 12421
SWIDTH 1020 0
DWIDTH 17 0
BBX 11 12 3 -2
BITMAP
4C00
5600
4F80
9640
A620
C620
8620
5640
4F80
0600
0C00
3000
ENDCHAR
STARTCHAR 3086
ENCODING 12422
SWIDTH 1020 0
DWIDTH 17 0
BBX 14 16 1 -2
BITMAP
0380
0380
4040
41F0
4348
8444
8844
9044
9044
A044
A448
43F0
4040
0040
0380
1C00
ENDCHAR
STARTCHAR 3087
ENCODING 12423
SWIDTH 1020 0
DWIDTH 17 0
BBX 10 11 3 -1
BITMAP
0C00
0C00
0C00
0F80
0C00
0C00
0C00
7C00
8F00
8CC0
7000
ENDCHAR
STARTCHAR 3088
ENCODING 12424
SWIDTH 1020 0
DWIDTH 17 0
BBX 12 16 2 -1
BITMAP
0800
0600
0600
0600
0600
07E0
0610
0600
0600
0600
0600
0600
7F80
8660
8610
7800
ENDCHAR
STARTCHAR 3089
ENCODING 12425
SWIDTH 1020 0
DWIDTH 17 0
BBX 11 16 3 -1
BITMAP
1000
0E00
0E00
0180
2000
4000
4000
8000
8000
8F80
B040
C020
0020
0020
00C0
0F00
ENDCHAR
STARTCHAR 308A
ENCODING 12426
SWIDTH 1020 0
DWIDTH 17 0
BBX 10 16 3 -2
BITMAP
4000
4000
4F00
9080
A040
C040
8040
8040
8040
8040
8040
0040
0080
0080
0100
1E00
ENDCHAR
STARTCHAR 308B
ENCODING 12427
SWIDTH 1020 0
DWIDTH 17 0
BBX 12 15 2 -1
BITMAP
3F00
3F00
4080
0080
0300
0600
0800
1FC0
2020
4010
8010
8E10
1310
1320
0FC0
ENDCHAR
STARTCHAR 308C
ENCODING 12428
SWIDTH 1020 0
DWIDTH 17 0
BBX 15 16 1 -1
BITMAP
1000
1000
1000
1000
1070
7988
9308
1408
1808
1008
3008
5010
5012
9012
900C
1000
ENDCHAR
STARTCHAR 308D
ENCODING 12429
SWIDTH 1020 0
DWIDTH 17 0
BBX 12 15 2 -1
BITMAP
3F00
3F00
4080
0300
0600
0800
1000
3FC0
6020
8010
0010
0010
0020
00C0
1F00
ENDCHAR
STARTCHAR 308E
ENCODING 12430
SWIDTH 1020 0
DWIDTH 17 0
BBX 11 10 2 -2
BITMAP
1000
1000
7B80
1640
1820
3020
5020
9040
1380
1000
ENDCHAR
STARTCHAR 308F
ENCODING 12431
SWIDTH 1020 0
DWIDTH 17 0
BBX 14 16 1 -1
BITMAP
1000
1000
1000
1000
1000
7C00
91F0
1708
1804
1004
3004
5004
5008
9030
93C0
1000
ENDCHAR
STARTCHAR 3090
ENCODING 12432
SWIDTH 1020 0
DWIDTH 17 0
BBX 14 15 1 -1
BITMAP
3C00
3C00
4300
0300
0400
0400
1FE0
2410
4808
4804
9004
9384
A444
4448
03F0
ENDCHAR
STARTCHAR 3091
ENCODING 12433
SWIDTH 1020 0
DWIDTH 17 0
BBX 16 15 0 -1
BITMAP
0FC0
0FC0
1020
01C0
0200
07F0
0808
1388
04D0
07E0
0800
1C3C
22C2
4181
8181
ENDCHAR
STARTCHAR 3092
ENCODING 12434
SWIDTH 1020 0
DWIDTH 17 0
BBX 13 16 1 -1
BITMAP
0400
0400
0400
07E0
FC00
0400
0800
1800
2418
C360
0780
0B00
1300
1000
1000
0FF0
ENDCHAR
STARTCHAR 3093
ENCODING 12435
SWIDTH 1020 0
DWIDTH 17 0
BBX 14 15 1 -1
BITMAP
0300
0300
0300
0400
0400
0800
0800
1000
1004
2C04
2304
4304
4308
8308
81F0
ENDCHAR
STARTCHAR 309B
ENCODING 12443
SWIDTH 1020 0
DWIDTH 17 0
BBX 4 5 0 10
BITMAP
20
90
90
50
40
ENDCHAR
STARTCHAR 309C
ENCODING 12444
SWIDTH 1020 0
DWIDTH 17 0
BBX 4 5 0 10
BITMAP
60
90
90
90
60
ENDCHAR
STARTCHAR 309D
ENCODING 12445
SWIDTH 1020 0
DWIDTH 17 0
BBX 8 10 5 1
BITMAP
80
40
30
18
04
02
02
01
01
3E
ENDCHAR
STARTCHAR 309E
ENCODING 12446
SWIDTH 1020 0
DWIDTH 17 0
BBX 10 11 4 1
BITMAP
0080
8040
4240
2100
1900
0C00
0200
0200
0100
0100
3E00
ENDCHAR
STARTCHAR 30A1
ENCODING 12449
SWIDTH 1020 0
DWIDTH 17 0
BBX 10 8 3 -1
BITMAP
FF80
0040
0C40
0D80
0C00
0C00
1000
6000
ENDCHAR
STARTCHAR 30A2
ENCODING 12450
SWIDTH 1020 0
DWIDTH 17 0
BBX 13 12 2 -1
BITMAP
FFF0
0008
0308
0310
0320
03C0
0300
0600
0600
0800
1000
6000
ENDCHAR
STARTCHAR 30A3
ENCODING 12451
SWIDTH 1020 0
DWIDTH 17 0
BBX 9 10 3 -2
BITMAP
0080
0100
0600
0C00
3C00
CC00
0C00
0C00
0C00
0C00
ENDCHAR
STARTCHAR 30A4
ENCODING 12452
SWIDTH 1020 0
DWIDTH 17 0
BBX 10 15 2 -1
BITMAP
0040
0040
0040
0080
0300
0600
0E00
3600
C600
0600
0600
0600
0600
0600
0600
ENDCHAR
STARTCHAR 30A5
ENCODING 12453
SWIDTH 1020 0
DWIDTH 17 0
BBX 9 11 4 -2
BITMAP
1800
1800
1800
7F00
8080
8080
8100
0100
0200
0C00
3800
ENDCHAR
STARTCHAR 30A6
ENCODING 12454
SWIDTH 1020 0
DWIDTH 17 0
BBX 12 15 2 -1
BITMAP
0600
0600
0600
0600
7FE0
8010
8010
8010
8010
0020
0020
0040
0080
0300
0E00
ENDCHAR
STARTCHAR 30A7
ENCODING 12455
SWIDTH 1020 0
DWIDTH 17 0
BBX 10 6 3 0
BITMAP
7F80
0C00
0C00
0C00
0C00
FFC0
ENDCHAR
STARTCHAR 30A8
ENCODING 12456
SWIDTH 1020 0
DWIDTH 17 0
BBX 14 9 1 1
BITMAP
7FF8
0300
0300
0300
0300
0300
0300
0300
FFFC
ENDCHAR
STARTCHAR 30A9
ENCODING 12457
SWIDTH 1020 0
DWIDTH 17 0
BBX 11 10 2 -1
BITMAP
0300
0300
0300
7FE0
0700
0B00
1300
2300
D300
0E00
ENDCHAR
STARTCHAR 30AA
ENCODING 12458
SWIDTH 1020 0
DWIDTH 17 0
BBX 14 15 1 -1
BITMAP
0040
0040
0040
0040
0040
7FFC
01C0
0340
0340
0440
0840
3040
C040
0440
0380
ENDCHAR
STARTCHAR 30AB
ENCODING 12459
SWIDTH 1020 0
DWIDTH 17 0
BBX 12 14 2 0
BITMAP
0600
0600
0600
0600
0600
FFE0
0610
0810
0810
0810
1010
1020
2620
C3C0
ENDCHAR
STARTCHAR 30AC
ENCODING 12460
SWIDTH 1020 0
DWIDTH 17 0
BBX 15 14 1 0
BITMAP
0404
0404
0412
040A
0408
FFE0
0410
0810
0810
0810
1010
1020
2420
C3C0
ENDCHAR
STARTCHAR 30AD
ENCODING 12461
SWIDTH 1020 0
DWIDTH 17 0
BBX 13 15 2 -1
BITMAP
0600
0600
0600
0600
0600
7FE0
0600
0600
0600
FFF8
0300
0300
0300
0300
0300
ENDCHAR
STARTCHAR 30AE
ENCODING 12462
SWIDTH 1020 0
DWIDTH 17 0
BBX 14 16 2 -1
BITMAP
0008
0624
0624
0614
0610
0600
7FE0
0600
0600
0600
FFF8
0300
0300
0300
0300
0300
ENDCHAR
STARTCHAR 30AF
ENCODING 12463
SWIDTH 1020 0
DWIDTH 17 0
BBX 11 15 2 -1
BITMAP
1000
1000
1000
1FC0
1020
2020
2020
4040
8040
0080
0080
0300
0600
1800
6000
ENDCHAR
STARTCHAR 30B0
ENCODING 12464
SWIDTH 1020 0
DWIDTH 17 0
BBX 15 16 1 -1
BITMAP
0004
1012
1012
100A
1FC8
1020
2020
2020
4040
8040
0180
0180
0300
0400
1800
6000
ENDCHAR
STARTCHAR 30B1
ENCODING 12465
SWIDTH 1020 0
DWIDTH 17 0
BBX 13 13 2 -1
BITMAP
1000
1000
1000
1FF8
2040
2040
4040
8080
0080
0300
0600
0800
3000
ENDCHAR
STARTCHAR 30B2
ENCODING 12466
SWIDTH 1020 0
DWIDTH 17 0
BBX 15 15 1 -1
BITMAP
0004
0004
1012
100A
1008
1FF0
2040
2040
4040
8180
0180
0300
0400
0800
3000
ENDCHAR
STARTCHAR 30B3
ENCODING 12467
SWIDTH 1020 0
DWIDTH 17 0
BBX 10 9 3 1
BITMAP
FF80
0040
0040
0040
0040
0040
0040
0040
FF80
ENDCHAR
STARTCHAR 30B4
ENCODING 12468
SWIDTH 1020 0
DWIDTH 17 0
BBX 14 13 2 1
BITMAP
0008
0008
0024
0014
FF90
0040
0040
0040
0040
0040
0040
0040
FF80
ENDCHAR
STARTCHAR 30B5
ENCODING 12469
SWIDTH 1020 0
DWIDTH 17 0
BBX 14 15 1 -1
BITMAP
0040
0040
1040
1040
1040
1040
FFFC
1040
1040
1040
0040
0180
0180
0300
0C00
ENDCHAR
STARTCHAR 30B6
ENCODING 12470
SWIDTH 1020 0
DWIDTH 17 0
BBX 15 16 1 -1
BITMAP
0004
0052
0052
104A
1048
1040
1040
FFFC
1040
1040
1040
0040
0180
0180
0300
0C00
ENDCHAR
STARTCHAR 30B7
ENCODING 12471
SWIDTH 1020 0
DWIDTH 17 0
BBX 13 11 2 0
BITMAP
4000
2000
1800
8008
4008
3010
0020
0040
0380
0E00
F000
ENDCHAR
STARTCHAR 30B8
ENCODING 12472
SWIDTH 1020 0
DWIDTH 17 0
BBX 14 14 2 0
BITMAP
0008
0008
0004
4024
2010
1810
8000
4008
3010
0020
0040
0380
0E00
F000
ENDCHAR
STARTCHAR 30B9
ENCODING 12473
SWIDTH 1020 0
DWIDTH 17 0
BBX 12 11 2 0
BITMAP
7F80
0040
0040
0080
0080
0300
0680
0840
1020
2010
C010
ENDCHAR
STARTCHAR 30BA
ENCODING 12474
SWIDTH 1020 0
DWIDTH 17 0
BBX 14 15 2 0
BITMAP
0008
0024
0024
0014
7F90
0040
0040
0080
0080
0300
0680
0840
1020
2010
C010
ENDCHAR
STARTCHAR 30BB
ENCODING 12475
SWIDTH 1020 0
DWIDTH 17 0
BBX 13 14 1 0
BITMAP
0800
0800
0800
0800
0800
FFF0
0808
0808
0810
0820
0800
0800
0400
03F8
ENDCHAR
STARTCHAR 30BC
ENCODING 12476
SWIDTH 1020 0
DWIDTH 17 0
BBX 15 15 1 0
BITMAP
0004
0812
0812
080A
0808
0800
FFF0
0808
0808
0810
0820
0800
0800
0400
03F8
ENDCHAR
STARTCHAR 30BD
ENCODING 12477
SWIDTH 1020 0
DWIDTH 17 0
BBX 12 12 2 -1
BITMAP
8010
4010
2010
2010
0020
0020
0040
0040
0080
0300
0E00
3000
ENDCHAR
STARTCHAR 30BE
ENCODING 12478
SWIDTH 1020 0
DWIDTH 17 0
BBX 15 16 1 -1
BITMAP
0004
0012
0012
000A
8008
4020
2020
2020
0020
0040
0040
0180
0180
0300
0400
1800
ENDCHAR
STARTCHAR 30BF
ENCODING 12479
SWIDTH 1020 0
DWIDTH 17 0
BBX 11 15 2 -1
BITMAP
1000
1000
1000
1FC0
1020
2020
3020
4E40
8340
0080
0080
0300
0600
1800
6000
ENDCHAR
STARTCHAR 30C0
ENCODING 12480
SWIDTH 1020 0
DWIDTH 17 0
BBX 15 16 1 -1
BITMAP
0004
1012
1012
100A
1FC8
1020
2020
3020
4C40
8340
0180
0180
0300
0400
1800
6000
ENDCHAR
STARTCHAR 30C1
ENCODING 12481
SWIDTH 1020 0
DWIDTH 17 0
BBX 15 15 1 -1
BITMAP
0010
0010
0060
0780
7980
0180
0180
FFFE
0180
0180
0180
0300
0300
0400
1800
ENDCHAR
STARTCHAR 30C2
ENCODING 12482
SWIDTH 1020 0
DWIDTH 17 0
BBX 15 15 1 -1
BITMAP
0024
0024
01D2
070A
7988
0180
0180
FFFE
0180
0180
0180
0300
0300
0400
1800
ENDCHAR
STARTCHAR 30C3
ENCODING 12483
SWIDTH 1020 0
DWIDTH 17 0
BBX 11 9 2 -2
BITMAP
1020
8820
4820
4040
0040
0080
0300
0600
1800
ENDCHAR
STARTCHAR 30C4
ENCODING 12484
SWIDTH 1020 0
DWIDTH 17 0
BBX 13 13 1 -1
BITMAP
1000
0808
8408
4408
2008
2010
0010
0020
0020
0040
0180
0700
1800
ENDCHAR
STARTCHAR 30C5
ENCODING 12485
SWIDTH 1020 0
DWIDTH 17 0
BBX 15 16 1 -1
BITMAP
0004
0012
0012
100A
0808
8420
4420
2020
2020
0040
0040
0180
0180
0300
0400
1800
ENDCHAR
STARTCHAR 30C6
ENCODING 12486
SWIDTH 1020 0
DWIDTH 17 0
BBX 14 12 1 -1
BITMAP
3FF0
0000
0000
0000
FFFC
0180
0180
0180
0300
0300
0400
3800
ENDCHAR
STARTCHAR 30C7
ENCODING 12487
SWIDTH 1020 0
DWIDTH 17 0
BBX 15 15 1 -1
BITMAP
0004
0004
0012
3FEA
0008
0000
0000
FFF8
0180
0180
0180
0300
0300
0400
3800
ENDCHAR
STARTCHAR 30C8
ENCODING 12488
SWIDTH 1020 0
DWIDTH 17 0
BBX 10 15 5 -1
BITMAP
8000
8000
8000
8000
8000
8000
F800
8600
8100
8080
8040
8000
8000
8000
8000
ENDCHAR
STARTCHAR 30C9
ENCODING 12489
SWIDTH 1020 0
DWIDTH 17 0
BBX 10 15 5 -1
BITMAP
8080
8080
8240
8140
8100
8000
F800
8600
8100
8080
8040
8000
8000
8000
8000
ENDCHAR
STARTCHAR 30CA
ENCODING 12490
SWIDTH 1020 0
DWIDTH 17 0
BBX 14 15 1 -1
BITMAP
0180
0180
0180
0180
0180
0180
FFFC
0180
0180
0180
0180
0300
0300
0400
1800
ENDCHAR
STARTCHAR 30CB
ENCODING 12491
SWIDTH 1020 0
DWIDTH 17 0
BBX 14 8 1 2
BITMAP
3FF0
0000
0000
0000
0000
0000
0000
FFFC
ENDCHAR
STARTCHAR 30CC
ENCODING 12492
SWIDTH 1020 0
DWIDTH 17 0
BBX 12 11 2 0
BITMAP
7F80
0040
0040
1080
0E80
0300
0680
0840
1020
2010
C000
ENDCHAR
STARTCHAR 30CD
ENCODING 12493
SWIDTH 1020 0
DWIDTH 17 0
BBX 13 16 2 -1
BITMAP
0800
0600
0600
0300
0000
7F80
0040
0080
0300
06C0
0E20
3610
C608
0600
0600
0600
ENDCHAR
STARTCHAR 30CE
ENCODING 12494
SWIDTH 1020 0
DWIDTH 17 0
BBX 11 12 2 0
BITMAP
0020
0020
0020
0040
0040
0080
0080
0300
0600
0800
3000
C000
ENDCHAR
STARTCHAR 30CF
ENCODING 12495
SWIDTH 1020 0
DWIDTH 17 0
BBX 14 10 1 1
BITMAP
0800
0840
0820
0810
1010
1008
2008
2004
4004
8004
ENDCHAR
STARTCHAR 30D0
ENCODING 12496
SWIDTH 1020 0
DWIDTH 17 0
BBX 15 13 1 1
BITMAP
0004
0004
0012
080A
0848
0820
0810
1010
1008
2008
2004
4004
8004
ENDCHAR
STARTCHAR 30D1
ENCODING 12497
SWIDTH 1020 0
DWIDTH 17 0
BBX 15 13 1 1
BITMAP
000C
000C
0012
0812
084C
0820
0810
1010
1008
2008
2004
4004
8004
ENDCHAR
STARTCHAR 30D2
ENCODING 12498
SWIDTH 1020 0
DWIDTH 17 0
BBX 10 12 4 0
BITMAP
8000
8000
8000
8080
8300
FC00
8000
8000
8000
8000
4000
3FC0
ENDCHAR
STARTCHAR 30D3
ENCODING 12499
SWIDTH 1020 0
DWIDTH 17 0
BBX 13 14 3 0
BITMAP
0010
0010
8048
8028
8020
8080
8700
FC00
8000
8000
8000
8000
4000
3FC0
ENDCHAR
STARTCHAR 30D4
ENCODING 12500
SWIDTH 1020 0
DWIDTH 17 0
BBX 13 14 3 0
BITMAP
0030
0030
8048
8048
8030
8080
8700
FC00
8000
8000
8000
8000
4000
3FC0
ENDCHAR
STARTCHAR 30D5
ENCODING 12501
SWIDTH 1020 0
DWIDTH 17 0
BBX 11 11 3 0
BITMAP
FFC0
0020
0020
0020
0040
0040
0080
0100
0600
1C00
6000
ENDCHAR
STARTCHAR 30D6
ENCODING 12502
SWIDTH 1020 0
DWIDTH 17 0
BBX 14 14 2 0
BITMAP
0008
0008
0024
0014
FFD0
0020
0020
0040
0040
0080
0300
0600
1800
6000
ENDCHAR
STARTCHAR 30D7
ENCODING 12503
SWIDTH 1020 0
DWIDTH 17 0
BBX 14 14 2 0
BITMAP
0018
0018
0024
0024
FFD8
0020
0020
0040
0040
0080
0300
0600
1800
6000
ENDCHAR
STARTCHAR 30D8
ENCODING 12504
SWIDTH 1020 0
DWIDTH 17 0
BBX 14 8 1 2
BITMAP
0C00
1300
1180
2040
2020
4010
8008
0004
ENDCHAR
STARTCHAR 30D9
ENCODING 12505
SWIDTH 1020 0
DWIDTH 17 0
BBX 14 12 1 2
BITMAP
0010
0010
0048
0028
0C20
1300
1180
2040
2020
4010
8008
0004
ENDCHAR
STARTCHAR 30DA
ENCODING 12506
SWIDTH 1020 0
DWIDTH 17 0
BBX 14 12 1 2
BITMAP
0030
0030
0048
0048
0C30
1300
1180
2040
2020
4010
8008
0004
ENDCHAR
STARTCHAR 30DB
ENCODING 12507
SWIDTH 1020 0
DWIDTH 17 0
BBX 14 14 1 0
BITMAP
0300
0300
0300
0300
0300
FFFC
0300
0300
2320
2310
4308
4304
9304
0C00
ENDCHAR
STARTCHAR 30DC
ENCODING 12508
SWIDTH 1020 0
DWIDTH 17 0
BBX 15 15 1 0
BITMAP
0004
0312
0312
030A
0308
0300
FFFC
0300
0300
2320
2310
4308
4304
9304
0C00
ENDCHAR
STARTCHAR 30DD
ENCODING 12509
SWIDTH 1020 0
DWIDTH 17 0
BBX 15 15 1 0
BITMAP
000C
0312
0312
0312
030C
0300
FFFC
0300
0300
2320
2310
4308
4304
9304
0C00
ENDCHAR
STARTCHAR 30DE
ENCODING 12510
SWIDTH 1020 0
DWIDTH 17 0
BBX 12 9 2 1
BITMAP
FFE0
0010
0010
2020
1040
0880
0700
0300
0300
ENDCHAR
STARTCHAR 30DF
ENCODING 12511
SWIDTH 1020 0
DWIDTH 17 0
BBX 11 13 3 -1
BITMAP
7C00
0780
0040
0000
3C00
0700
0080
0000
0000
F000
0F00
00C0
0020
ENDCHAR
STARTCHAR 30E0
ENCODING 12512
SWIDTH 1020 0
DWIDTH 17 0
BBX 13 12 2 0
BITMAP
0600
0600
0800
0800
1000
1080
2040
4020
8010
83F0
7E08
0008
ENDCHAR
STARTCHAR 30E1
ENCODING 12513
SWIDTH 1020 0
DWIDTH 17 0
BBX 12 12 2 0
BITMAP
0020
0020
2040
1840
0680
0300
0380
0640
0820
1010
2000
C000
ENDCHAR
STARTCHAR 30E2
ENCODING 12514
SWIDTH 1020 0
DWIDTH 17 0
BBX 14 12 1 0
BITMAP
7FF0
0400
0400
0400
0400
FFFC
0400
0400
0400
0400
0300
01F8
ENDCHAR
STARTCHAR 30E3
ENCODING 12515
SWIDTH 1020 0
DWIDTH 17 0
BBX 11 9 3 -2
BITMAP
2000
27C0
3C20
D040
1180
0C00
0C00
0600
0600
ENDCHAR
STARTCHAR 30E4
ENCODING 12516
SWIDTH 1020 0
DWIDTH 17 0
BBX 14 13 1 -1
BITMAP
0800
0800
0878
0784
1C04
E408
0310
0320
0300
0180
0180
0040
0040
ENDCHAR
STARTCHAR 30E5
ENCODING 12517
SWIDTH 1020 0
DWIDTH 17 0
BBX 11 6 2 0
BITMAP
3E00
0300
0300
0300
0300
FFE0
ENDCHAR
STARTCHAR 30E6
ENCODING 12518
SWIDTH 1020 0
DWIDTH 17 0
BBX 14 8 1 2
BITMAP
3F80
0040
0040
0040
0040
0040
0040
FFFC
ENDCHAR
STARTCHAR 30E7
ENCODING 12519
SWIDTH 1020 0
DWIDTH 17 0
BBX 8 8 4 -1
BITMAP
FE
01
01
FF
01
01
01
FE
ENDCHAR
STARTCHAR 30E8
ENCODING 12520
SWIDTH 1020 0
DWIDTH 17 0
BBX 10 10 3 1
BITMAP
FF80
0040
0040
0040
FFC0
0040
0040
0040
0040
FF80
ENDCHAR
STARTCHAR 30E9
ENCODING 12521
SWIDTH 1020 0
DWIDTH 17 0
BBX 11 13 2 -1
BITMAP
7FC0
0000
0000
0000
FFC0
0020
0020
0040
0040
0080
0300
0600
1800
ENDCHAR
STARTCHAR 30EA
ENCODING 12522
SWIDTH 1020 0
DWIDTH 17 0
BBX 8 15 4 -1
BITMAP
01
01
81
81
81
81
81
81
81
01
01
02
02
0C
38
ENDCHAR
STARTCHAR 30EB
ENCODING 12523
SWIDTH 1020 0
DWIDTH 17 0
BBX 15 12 1 0
BITMAP
1180
1180
1180
1180
1180
1180
1180
1182
2182
2184
4188
8070
ENDCHAR
STARTCHAR 30EC
ENCODING 12524
SWIDTH 1020 0
DWIDTH 17 0
BBX 11 12 4 0
BITMAP
8000
8000
8000
8000
8000
8000
8020
8040
8080
8100
8E00
7800
ENDCHAR
STARTCHAR 30ED
ENCODING 12525
SWIDTH 1020 0
DWIDTH 17 0
BBX 11 10 3 1
BITMAP
7FC0
8020
8020
8020
8020
8020
8020
8020
8020
7FC0
ENDCHAR
STARTCHAR 30EE
ENCODING 12526
SWIDTH 1020 0
DWIDTH 17 0
BBX 8 8 4 -2
BITMAP
7E
81
81
81
01
02
0C
38
ENDCHAR
STARTCHAR 30EF
ENCODING 12527
SWIDTH 1020 0
DWIDTH 17 0
BBX 11 11 3 0
BITMAP
7FC0
8020
8020
8020
8020
0020
0040
0040
0080
0700
3C00
ENDCHAR
STARTCHAR 30F0
ENCODING 12528
SWIDTH 1020 0
DWIDTH 17 0
BBX 13 15 2 -1
BITMAP
0080
0080
0080
0080
0080
7FF0
1080
1080
1080
1080
FFF8
0080
0080
0080
0080
ENDCHAR
STARTCHAR 30F1
ENCODING 12529
SWIDTH 1020 0
DWIDTH 17 0
BBX 14 9 1 1
BITMAP
3FE0
0010
0310
0320
0340
0300
0300
0300
FFFC
ENDCHAR
STARTCHAR 30F2
ENCODING 12530
SWIDTH 1020 0
DWIDTH 17 0
BBX 11 12 2 -1
BITMAP
FFC0
0020
0020
0020
FFE0
0040
0040
0080
0080
0300
0600
1800
ENDCHAR
STARTCHAR 30F3
ENCODING 12531
SWIDTH 1020 0
DWIDTH 17 0
BBX 13 11 2 0
BITMAP
4000
3000
0E00
0008
0008
0010
0020
0040
0380
0E00
F000
ENDCHAR
STARTCHAR 30F4
ENCODING 12532
SWIDTH 1020 0
DWIDTH 17 0
BBX 14 16 2 -1
BITMAP
0008
0824
0824
0814
0810
7FC0
8020
8020
8020
8020
0040
0040
0080
0300
0600
1800
ENDCHAR
STARTCHAR 30F5
ENCODING 12533
SWIDTH 1020 0
DWIDTH 17 0
BBX 10 10 3 -1
BITMAP
1000
1000
1000
FF80
1040
1040
2040
2040
4C80
8700
ENDCHAR
STARTCHAR 30F6
ENCODING 12534
SWIDTH 1020 0
DWIDTH 17 0
BBX 11 10 2 -1
BITMAP
1000
1000
1000
3FE0
2080
4080
8080
0300
0600
1800
ENDCHAR
STARTCHAR 30FB
ENCODING 12539
SWIDTH 1020 0
DWIDTH 17 0
BBX 4 3 6 5
BITMAP
60
F0
60
ENDCHAR
STARTCHAR 30FC
ENCODING 12540
SWIDTH 1020 0
DWIDTH 17 0
BBX 14 1 1 6
BITMAP
FFFC
ENDCHAR
STARTCHAR 30FD
ENCODING 12541
SWIDTH 1020 0
DWIDTH 17 0
BBX 8 9 4 1
BITMAP
80
40
20
18
0C
02
02
01
01
ENDCHAR
STARTCHAR 30FE
ENCODING 12542
SWIDTH 1020 0
DWIDTH 17 0
BBX 10 11 3 1
BITMAP
0080
0040
8640
4100
2100
1000
0C00
0600
0600
0100
0100
ENDCHAR
STARTCHAR 3231
ENCODING 12849
SWIDTH 1020 0
DWIDTH 17 0
BBX 16 16 0 -1
BITMAP
1008
29A4
29A4
49A2
49FA
BE21
8821
9FFD
9A21
AAF1
C8E9
89A5
4A22
4822
2824
1008
ENDCHAR
STARTCHAR 3232
ENCODING 12850
SWIDTH 1020 0
DWIDTH 17 0
BBX 16 16 0 -1
BITMAP
1008
2204
2204
4202
7FFA
8401
87C1
8C21
97E1
A421
C421
87E1
4422
4422
25C4
1008
ENDCHAR
STARTCHAR 3239
ENCODING 12857
SWIDTH 1020 0
DWIDTH 17 0
BBX 16 16 0 -1
BITMAP
1008
24C4
24C4
44D2
44CA
88C1
8FFD
98C1
A8C1
C8C1
8821
8821
4822
4812
281C
1008
ENDCHAR
STARTCHAR 32A4
ENCODING 12964
SWIDTH 1020 0
DWIDTH 17 0
BBX 16 17 0 -2
BITMAP
07E0
1818
1818
2184
4182
4182
8181
81F1
8181
8181
8181
8181
5FFA
4002
2004
1818
07E0
ENDCHAR
STARTCHAR 32A5
ENCODING 12965
SWIDTH 1020 0
DWIDTH 17 0
BBX 16 17 0 -2
BITMAP
07E0
1818
1818
2184
4182
4182
8FF1
9189
9189
9189
8FF1
8181
4182
4182
2184
1818
07E0
ENDCHAR
STARTCHAR 32A6
ENCODING 12966
SWIDTH 1020 0
DWIDTH 17 0
BBX 16 17 0 -2
BITMAP
07E0
1818
1818
2004
4002
5FFA
8181
8181
81E1
8191
8181
8181
4182
4182
2184
1818
07E0
ENDCHAR
STARTCHAR 32A7
ENCODING 12967
SWIDTH 1020 0
DWIDTH 17 0
BBX 16 17 0 -2
BITMAP
07E0
1818
1818
2204
4202
4202
BFF9
8401
8401
8FF1
88C1
90C1
60C2
4FFA
2004
1818
07E0
ENDCHAR
STARTCHAR 32A8
ENCODING 12968
SWIDTH 1020 0
DWIDTH 17 0
BBX 16 17 0 -2
BITMAP
07E0
1818
1818
2204
4202
4202
BFF9
8401
8401
8BE1
9411
A411
4412
43E2
2004
1818
07E0
ENDCHAR
STARTCHAR 3303
ENCODING 13059
SWIDTH 1020 0
DWIDTH 17 0
BBX 16 16 0 -2
BITMAP
1F80
1F80
E200
1400
1980
10FF
1000
2000
2180
4580
0580
0588
0590
09A0
09C0
1180
ENDCHAR
STARTCHAR 330D
ENCODING 13069
SWIDTH 1020 0
DWIDTH 17 0
BBX 16 17 0 -2
BITMAP
1000
1023
1023
1E3D
F221
1221
2222
2222
443E
8822
0400
4400
44FF
4400
4400
0800
3000
ENDCHAR
STARTCHAR 3314
ENCODING 13076
SWIDTH 1020 0
DWIDTH 17 0
BBX 16 16 0 -1
BITMAP
1000
1000
1000
1000
1C00
F000
1000
1000
1E27
E839
0821
0821
0822
0822
003E
0022
ENDCHAR
STARTCHAR 3318
ENCODING 13080
SWIDTH 1020 0
DWIDTH 17 0
BBX 15 17 0 -2
BITMAP
2180
24DC
24DC
3AE0
458E
45F2
8804
0804
1008
21B0
C180
0180
0200
0220
05F0
1E08
0008
ENDCHAR
STARTCHAR 3322
ENCODING 13090
SWIDTH 1020 0
DWIDTH 17 0
BBX 16 17 0 -2
BITMAP
20C0
2030
2030
3F80
E201
2402
20CC
2030
1F80
00E0
0F80
0180
03FC
3D80
0180
0200
0C00
ENDCHAR
STARTCHAR 3323
ENCODING 13091
SWIDTH 1020 0
DWIDTH 17 0
BBX 16 17 0 -2
BITMAP
20C0
2020
2020
3F90
E201
2402
20CC
2030
1F80
0200
0200
0200
03C0
0220
0210
0200
0200
ENDCHAR
STARTCHAR 3326
ENCODING 13094
SWIDTH 1020 0
DWIDTH 17 0
BBX 14 17 2 -2
BITMAP
8600
9300
9300
8B00
8800
E000
9000
8800
8040
8340
8340
8340
0344
0648
0650
0860
1040
ENDCHAR
STARTCHAR 3327
ENCODING 13095
SWIDTH 1020 0
DWIDTH 17 0
BBX 13 15 3 0
BITMAP
8000
8000
8000
8000
8000
E000
9000
8000
8600
8180
8008
8010
0020
0640
0780
ENDCHAR
STARTCHAR 332B
ENCODING 13099
SWIDTH 1020 0
DWIDTH 17 0
BBX 16 16 0 -1
BITMAP
13C0
0AC0
0AC0
27C0
2400
223F
4200
8200
0000
4008
4208
59C8
E81E
5029
40C8
3B88
ENDCHAR
STARTCHAR 3336
ENCODING 13110
SWIDTH 1020 0
DWIDTH 17 0
BBX 16 17 0 -2
BITMAP
0020
1020
1020
183C
2424
22C4
4188
0190
0020
40C0
4004
7814
4814
ABD5
1015
2026
40C4
ENDCHAR
STARTCHAR 333B
ENCODING 13115
SWIDTH 1020 0
DWIDTH 17 0
BBX 15 16 1 -1
BITMAP
0780
0580
0580
3780
2800
447E
4400
8300
0300
0810
0728
1010
0C00
0020
11C0
0F00
ENDCHAR
STARTCHAR 3349
ENCODING 13129
SWIDTH 1020 0
DWIDTH 17 0
BBX 15 16 0 -2
BITMAP
6000
6000
1800
0400
0000
6002
1022
0822
0022
C022
3022
0802
0402
0004
0004
0018
ENDCHAR
STARTCHAR 334A
ENCODING 13130
SWIDTH 1020 0
DWIDTH 17 0
BBX 16 17 0 -2
BITMAP
3804
0424
0424
0024
3824
0424
0004
7008
0808
0430
0004
2A14
5594
5015
4BD5
4826
88C4
ENDCHAR
STARTCHAR 334D
ENCODING 13133
SWIDTH 1020 0
DWIDTH 17 0
BBX 16 17 0 -2
BITMAP
0400
0400
0400
4800
3180
10FF
2800
4400
8008
2028
2028
2028
3829
26CA
20CC
2188
2200
ENDCHAR
STARTCHAR 3351
ENCODING 13137
SWIDTH 1020 0
DWIDTH 17 0
BBX 15 17 1 -2
BITMAP
0800
8800
8800
8800
8844
8B24
89A8
1188
1010
6060
2000
2010
3850
2452
2054
2058
2190
ENDCHAR
STARTCHAR 3357
ENCODING 13143
SWIDTH 1020 0
DWIDTH 17 0
BBX 14 16 1 -2
BITMAP
9F00
9F00
E300
8324
8594
0454
0848
1010
2420
0440
0400
0780
0440
0420
0400
0400
ENDCHAR
STARTCHAR 337B
ENCODING 13179
SWIDTH 1020 0
DWIDTH 17 0
BBX 16 12 0 0
BITMAP
0006
7E05
103F
54C4
54E5
10D5
FFD6
10D4
10E4
10CA
11B3
1001
ENDCHAR
STARTCHAR 337C
ENCODING 13180
SWIDTH 1020 0
DWIDTH 17 0
BBX 16 12 0 0
BITMAP
3C08
0A30
4BE0
AA22
B3FD
EC25
A4F5
AAED
ABA5
4A22
0420
0020
ENDCHAR
STARTCHAR 337D
ENCODING 13181
SWIDTH 1020 0
DWIDTH 17 0
BBX 16 14 0 0
BITMAP
1000
1000
11FE
1010
FE10
10D0
10D0
10DE
28D0
28D0
28D0
44D0
45FF
8200
ENDCHAR
STARTCHAR 337E
ENCODING 13182
SWIDTH 1020 0
DWIDTH 17 0
BBX 16 15 0 -1
BITMAP
00C4
00C4
0424
4A24
AACA
AE29
EA2F
AA01
AE20
AA26
4A29
0AC9
12C9
12C6
2C00
ENDCHAR
STARTCHAR 338E
ENCODING 13198
SWIDTH 1020 0
DWIDTH 17 0
BBX 13 10 2 -1
BITMAP
F068
A898
A888
A888
A888
A898
A868
A808
0088
0070
ENDCHAR
STARTCHAR 338F
ENCODING 13199
SWIDTH 1020 0
DWIDTH 17 0
BBX 13 15 2 -1
BITMAP
8000
8000
8000
8000
8000
8868
9098
A088
C088
A088
9098
8868
8808
0088
0070
ENDCHAR
STARTCHAR 339C
ENCODING 13212
SWIDTH 1020 0
DWIDTH 17 0
BBX 13 8 2 1
BITMAP
F0F0
A8A8
A8A8
A8A8
A8A8
A8A8
A8A8
A8A8
ENDCHAR
STARTCHAR 339D
ENCODING 13213
SWIDTH 1020 0
DWIDTH 17 0
BBX 13 8 2 1
BITMAP
70F0
88A8
88A8
80A8
80A8
88A8
88A8
70A8
ENDCHAR
STARTCHAR 339E
ENCODING 13214
SWIDTH 1020 0
DWIDTH 17 0
BBX 13 13 2 1
BITMAP
8000
8000
8000
8000
8000
88F0
90A8
A0A8
C0A8
A0A8
90A8
88A8
88A8
ENDCHAR
STARTCHAR 33A1
ENCODING 13217
SWIDTH 1020 0
DWIDTH 17 0
BBX 12 13 3 1
BITMAP
0060
0060
0090
0010
0060
EE80
91F0
9100
9100
9100
9100
9100
9100
ENDCHAR
STARTCHAR 33C4
ENCODING 13252
SWIDTH 1020 0
DWIDTH 17 0
BBX 13 8 2 1
BITMAP
7070
8888
8888
8080
8080
8888
8888
7070
ENDCHAR
STARTCHAR 33CD
ENCODING 13261
SWIDTH 1020 0
DWIDTH 17 0
BBX 15 13 1 -1
BITMAP
8988
8988
9190
9190
A1A0
C1C0
A1A0
9190
9190
8988
8988
8D8A
0402
ENDCHAR
STARTCHAR 4E00
ENCODING 19968
SWIDTH 1020 0
DWIDTH 17 0
BBX 16 1 0 6
BITMAP
FFFF
ENDCHAR
STARTCHAR 4E01
ENCODING 19969
SWIDTH 1020 0
DWIDTH 17 0
BBX 16 16 0 -2
BITMAP
FFFF
FFFF
00C0
00C0
00C0
00C0
00C0
00C0
00C0
00C0
00C0
00C0
00C0
00C0
08C0
0780
ENDCHAR
STARTCHAR 4E03
ENCODING 19971
SWIDTH 1020 0
DWIDTH 17 0
BBX 16 17 0 -2
BITMAP
1000
1000
1000
1000
1000
1000
100F
13F0
FC00
1000
1000
1000
1000
1002
1002
1002
0FFC
ENDCHAR
STARTCHAR 4E07
ENCODING 19975
SWIDTH 1020 0
DWIDTH 17 0
BBX 16 16 0 -2
BITMAP
FFFF
FFFF
0400
0400
0400
07F8
0404
0404
0404
0804
0804
0804
1008
1008
2210
C1E0
ENDCHAR
STARTCHAR 4E08
ENCODING 19976
SWIDTH 1020 0
DWIDTH 17 0
BBX 16 17 0 -2
BITMAP
0180
0180
0180
0180
FFFF
0180
0980
0980
0980
0980
0580
0580
0200
0380
04C0
1830
E00F
ENDCHAR
STARTCHAR 4E09
ENCODING 19977
SWIDTH 1020 0
DWIDTH 17 0
BBX 16 12 0 0
BITMAP
7FFE
0000
0000
0000
0000
3FFC
0000
0000
0000
0000
0000
FFFF
ENDCHAR
STARTCHAR 4E0A
ENCODING 19978
SWIDTH 1020 0
DWIDTH 17 0
BBX 16 16 0 -1
BITMAP
0200
0200
0200
0200
0200
0200
03FE
0200
0200
0200
0200
0200
0200
0200
0200
FFFF
ENDCHAR
STARTCHAR 4E0B
ENCODING 19979
SWIDTH 1020 0
DWIDTH 17 0
BBX 16 16 0 -2
BITMAP
FFFF
FFFF
0200
0200
0200
03C0
0230
020C
0202
0200
0200
0200
0200
0200
0200
0200
ENDCHAR
STARTCHAR 4E0D
ENCODING 19981
SWIDTH 1020 0
DWIDTH 17 0
BBX 16 16 0 -2
BITMAP
FFFF
FFFF
0010
0020
00C0
0180
03B0
0D8C
3182
C181
0180
0180
0180
0180
0180
0180
ENDCHAR
STARTCHAR 4E0E
ENCODING 19982
SWIDTH 1020 0
DWIDTH 17 0
BBX 16 17 0 -2
BITMAP
1000
1000
1000
1FFE
1000
1000
1000
0FF0
0008
0008
0008
FFFF
0008
0010
0010
0020
07C0
ENDCHAR
STARTCHAR 4E10
ENCODING 19984
SWIDTH 1020 0
DWIDTH 17 0
BBX 16 16 0 -2
BITMAP
FFFF
FFFF
0180
0180
21FE
2180
2180
2180
3FFC
2002
0002
0002
0004
0004
0018
01E0
ENDCHAR
STARTCHAR 4E11
ENCODING 19985
SWIDTH 1020 0
DWIDTH 17 0
BBX 16 15 0 -1
BITMAP
7FF0
7FF0
0408
0408
0408
0408
0408
FFFF
0808
0808
0808
0808
0808
0808
FFFF
ENDCHAR
STARTCHAR 4E14
ENCODING 19988
SWIDTH 1020 0
DWIDTH 17 0
BBX 16 15 0 -1
BITMAP
0FF0
0FF0
1008
1008
1008
1FF8
1008
1008
1008
1FF8
1008
1008
1008
1008
FFFF
ENDCHAR
STARTCHAR 4E15
ENCODING 19989
SWIDTH 1020 0
DWIDTH 17 0
BBX 16 15 0 -1
BITMAP
FFFF
FFFF
00C0
0180
0180
03B0
0588
0984
3182
C181
0181
0180
0180
0000
FFFF
ENDCHAR
STARTCHAR 4E16
ENCODING 19990
SWIDTH 1020 0
DWIDTH 17 0
BBX 16 16 0 -1
BITMAP
2208
2208
2208
2208
2208
2208
FFFF
2208
2208
2208
2208
21F0
2000
2000
2000
1FFF
ENDCHAR
STARTCHAR 4E17
ENCODING 19991
SWIDTH 1020 0
DWIDTH 17 0
BBX 16 16 0 -1
BITMAP
2184
2184
2184
2184
2184
2184
2184
FFFF
2184
2184
2184
2184
2184
2184
2184
1FF8
ENDCHAR
STARTCHAR 4E18
ENCODING 19992
SWIDTH 1020 0
DWIDTH 17 0
BBX 16 16 0 -1
BITMAP
0004
0038
0038
0FC0
1000
1000
1000
1FFE
1010
1010
1010
1010
1010
1010
1010
FFFF
ENDCHAR
STARTCHAR 4E19
ENCODING 19993
SWIDTH 1020 0
DWIDTH 17 0
BBX 16 16 0 -2
BITMAP
FFFF
FFFF
0180
0180
3FFC
4182
4182
42C2
42C2
4422
4812
700E
4002
4002
4002
401C
ENDCHAR
STARTCHAR 4E1E
ENCODING 19998
SWIDTH 1020 0
DWIDTH 17 0
BBX 16 15 0 -1
BITMAP
3FF0
3FF0
0008
0208
01B0
F9C2
05A4
05A8
0990
1188
2184
C182
0E01
0000
7FFE
ENDCHAR
STARTCHAR 4E21
ENCODING 20001
SWIDTH 1020 0
DWIDTH 17 0
BBX 16 16 0 -2
BITMAP
FFFF
FFFF
0180
0180
3FFC
4182
4182
4992
4992
4992
4992
4992
47E2
4002
4002
401C
ENDCHAR
STARTCHAR 4E26
ENCODING 20006
SWIDTH 1020 0
DWIDTH 17 0
BBX 16 16 0 -1
BITMAP
0810
0410
0410
0420
00C0
7FFE
0420
4422
4422
2422
2422
2424
2424
0420
0420
FFFF
ENDCHAR
STARTCHAR 4E2A
ENCODING 20010
SWIDTH 1020 0
DWIDTH 17 0
BBX 16 17 0 -2
BITMAP
0180
0180
0180
02C0
0420
0810
1188
2184
C183
0180
0180
0180
0180
0180
0180
0180
0180
ENDCHAR
STARTCHAR 4E2D
ENCODING 20013
SWIDTH 1020 0
DWIDTH 17 0
BBX 16 17 0 -2
BITMAP
0180
0180
0180
0180
0180
7FFE
8181
8181
8181
8181
8181
7FFE
0180
0180
0180
0180
0180
ENDCHAR
STARTCHAR 4E31
ENCODING 20017
SWIDTH 1020 0
DWIDTH 17 0
BBX 16 17 0 -2
BITMAP
0420
0420
0420
4421
4421
4421
4421
4421
4421
4421
4421
3C3E
0420
0820
0820
3020
C020
ENDCHAR
STARTCHAR 4E32
ENCODING 20018
SWIDTH 1020 0
DWIDTH 17 0
BBX 16 17 0 -2
BITMAP
0180
0180
0180
3FFC
4182
4182
4182
3FFC
0180
7FFE
8181
8181
8181
7FFE
0180
0180
0180
ENDCHAR
STARTCHAR 4E36
ENCODING 20022
SWIDTH 1020 0
DWIDTH 17 0
BBX 9 11 3 1
BITMAP
8000
4000
2000
1000
0C00
0C00
0600
0100
0100
0080
0080
ENDCHAR
STARTCHAR 4E38
ENCODING 20024
SWIDTH 1020 0
DWIDTH 17 0
BBX 16 17 0 -2
BITMAP
0400
0400
0400
0400
0400
FFE0
0410
0410
6410
1810
0C10
0A10
0A11
1191
1191
2011
C00E
ENDCHAR
STARTCHAR 4E39
ENCODING 20025
SWIDTH 1020 0
DWIDTH 17 0
BBX 16 16 0 -2
BITMAP
0FF0
0FF0
1008
1208
1188
10C8
10C8
1008
FFFF
1008
1008
1008
1008
2008
2188
C0F0
ENDCHAR
STARTCHAR 4E3B
ENCODING 20027
SWIDTH 1020 0
DWIDTH 17 0
BBX 16 16 0 -1
BITMAP
0600
01C0
01C0
0020
0000
FFFF
0180
0180
0180
0180
7FFE
0180
0180
0180
0180
FFFF
ENDCHAR
STARTCHAR 4E3C
ENCODING 20028
SWIDTH 1020 0
DWIDTH 17 0
BBX 16 17 0 -2
BITMAP
0810
0810
0810
0810
0810
FFFF
0810
0B90
08D0
08D0
0810
FFFF
0810
1010
1010
2010
C010
ENDCHAR
STARTCHAR 4E3F
ENCODING 20031
SWIDTH 1020 0
DWIDTH 17 0
BBX 9 17 2 -2
BITMAP
0080
0080
0080
0080
0080
0080
0080
0080
0080
0080
0080
0080
0300
0300
0600
1800
E000
ENDCHAR
STARTCHAR 4E42
ENCODING 20034
SWIDTH 1020 0
DWIDTH 17 0
BBX 16 17 0 -2
BITMAP
2004
2004
2004
2004
2004
1008
1008
0810
0810
0420
02C0
0180
02C0
0420
0810
300C
C003
ENDCHAR
STARTCHAR 4E43
ENCODING 20035
SWIDTH 1020 0
DWIDTH 17 0
BBX 16 16 0 -2
BITMAP
FFF0
FFF0
0408
0408
0408
0410
0410
040E
0401
0801
0801
0801
1002
1002
20C4
C038
ENDCHAR
STARTCHAR 4E45
ENCODING 20037
SWIDTH 1020 0
DWIDTH 17 0
BBX 16 17 0 -2
BITMAP
0400
0400
0400
0400
07F0
0808
0808
1010
2010
4020
00C0
01C0
0220
0410
0808
3004
C003
ENDCHAR
STARTCHAR 4E4B
ENCODING 20043
SWIDTH 1020 0
DWIDTH 17 0
BBX 16 17 0 -2
BITMAP
0180
0180
0180
0180
FFF8
0004
0004
0008
0010
0020
01C0
2200
2C00
3000
5000
4C00
83FF
ENDCHAR
STARTCHAR 4E4D
ENCODING 20045
SWIDTH 1020 0
DWIDTH 17 0
BBX 16 17 0 -2
BITMAP
1000
1000
1000
1000
3FFF
2180
2180
4180
41FE
8180
0180
0180
01FE
0180
0180
0180
0180
ENDCHAR
STARTCHAR 4E4E
ENCODING 20046
SWIDTH 1020 0
DWIDTH 17 0
BBX 16 17 0 -2
BITMAP
0006
00F8
00F8
7F84
2184
1184
1188
1188
0180
FFFF
0180
0180
0180
0180
0180
0180
0E00
ENDCHAR
STARTCHAR 4E4F
ENCODING 20047
SWIDTH 1020 0
DWIDTH 17 0
BBX 16 17 0 -2
BITMAP
000C
01F0
01F0
7F80
0180
0180
FFF0
0008
0008
0010
0020
21C0
2200
2C00
5000
4C00
83FF
ENDCHAR
STARTCHAR 4E55
ENCODING 20053
SWIDTH 1020 0
DWIDTH 17 0
BBX 16 17 0 -2
BITMAP
0006
00F8
00F8
1FC0
20C0
3FFF
20C0
20C0
3FFF
20C0
20C0
27FC
28C2
48C2
48C2
88DC
00C0
ENDCHAR
STARTCHAR 4E56
ENCODING 20054
SWIDTH 1020 0
DWIDTH 17 0
BBX 16 17 0 -2
BITMAP
000E
01F0
01F0
7F80
0180
FFFF
0180
05A0
05A1
FDA6
05B8
05A0
0DA1
35A1
C5A1
059E
0180
ENDCHAR
STARTCHAR 4E57
ENCODING 20055
SWIDTH 1020 0
DWIDTH 17 0
BBX 16 17 0 -2
BITMAP
0006
00F8
00F8
7F80
0180
7FFE
1188
1188
FFFF
1188
1188
7FFE
05A0
0990
1188
2184
C183
ENDCHAR
STARTCHAR 4E58
ENCODING 20056
SWIDTH 1020 0
DWIDTH 17 0
BBX 16 17 0 -2
BITMAP
003C
3FC0
3FC0
0180
FFFF
0180
05A2
FDBC
05A1
0DA1
37DE
C5A0
05A0
0990
318C
C183
0180
ENDCHAR
STARTCHAR 4E59
ENCODING 20057
SWIDTH 1020 0
DWIDTH 17 0
BBX 16 14 0 -2
BITMAP
FFF0
0008
0008
0030
01C0
0600
0800
1000
2000
4000
4001
4001
2001
1FFE
ENDCHAR
STARTCHAR 4E5D
ENCODING 20061
SWIDTH 1020 0
DWIDTH 17 0
BBX 16 17 0 -2
BITMAP
0400
0400
0400
0400
0400
FFE0
0410
0410
0410
0410
0410
0410
0810
0811
1011
2011
C00E
ENDCHAR
STARTCHAR 4E5E
ENCODING 20062
SWIDTH 1020 0
DWIDTH 17 0
BBX 16 17 0 -2
BITMAP
0800
0800
0800
1000
1FFF
2000
4000
BFC0
0020
01C0
0200
0C00
1000
2001
4001
4001
3FFE
ENDCHAR
STARTCHAR 4E5F
ENCODING 20063
SWIDTH 1020 0
DWIDTH 17 0
BBX 16 17 0 -2
BITMAP
0180
1180
1180
1180
1198
11E4
1784
3984
D184
1184
1184
11B8
1180
1181
1001
1001
0FFE
ENDCHAR
STARTCHAR 4E62
ENCODING 20066
SWIDTH 1020 0
DWIDTH 17 0
BBX 16 17 0 -2
BITMAP
1020
1020
1020
1020
9220
9220
9220
9220
9220
9220
9220
9220
9220
7C21
0021
0021
001E
ENDCHAR
STARTCHAR 4E71
ENCODING 20081
SWIDTH 1020 0
DWIDTH 17 0
BBX 16 17 0 -2
BITMAP
01A0
0620
0620
F820
0820
0820
FFE0
0820
0820
0820
3E20
41A0
41A1
41A1
41A1
3E21
001E
ENDCHAR
STARTCHAR 4E73
ENCODING 20083
SWIDTH 1020 0
DWIDTH 17 0
BBX 16 17 0 -2
BITMAP
07A0
F9A0
F9A0
91A0
4A20
2A20
2020
FE20
01A0
2220
1420
1FA0
E821
0821
0821
0821
701E
ENDCHAR
STARTCHAR 4E7E
ENCODING 20094
SWIDTH 1020 0
DWIDTH 17 0
BBX 16 17 0 -2
BITMAP
10C0
10C0
10C0
FEC0
11FF
3980
4600
45F8
7C04
4408
4410
3820
10C0
FEC1
1181
1181
10FE
ENDCHAR
STARTCHAR 4E80
ENCODING 20096
SWIDTH 1020 0
DWIDTH 17 0
BBX 16 17 0 -2
BITMAP
0800
0FC0
0FC0
1020
3FF8
E184
3FFC
2184
1FF8
0180
3FFC
4182
7FFE
4182
3FFD
0181
00FE
ENDCHAR
STARTCHAR 4E82
ENCODING 20098
SWIDTH 1020 0
DWIDTH 17 0
BBX 16 17 0 -2
BITMAP
07D0
F990
F990
5190
2A10
7F90
1190
0A10
3F90
48D0
56D0
5AD0
40D1
7ED1
52D1
4CD1
338E
ENDCHAR
STARTCHAR 4E85
ENCODING 20101
SWIDTH 1020 0
DWIDTH 17 0
BBX 5 17 5 -2
BITMAP
18
18
18
18
18
18
18
18
18
18
18
18
18
18
18
18
F0
ENDCHAR
STARTCHAR 4E86
ENCODING 20102
SWIDTH 1020 0
DWIDTH 17 0
BBX 16 16 0 -2
BITMAP
FFFE
FFFE
0001
0001
0202
018C
01B0
00C0
00C0
00C0
00C0
00C0
00C0
00C0
1180
0E00
ENDCHAR
STARTCHAR 4E88
ENCODING 20104
SWIDTH 1020 0
DWIDTH 17 0
BBX 16 16 0 -2
BITMAP
7FF8
7FF8
0004
0804
0408
0210
FFFE
0181
0181
0182
018C
0180
0180
0180
0180
0E00
ENDCHAR
STARTCHAR 4E89
ENCODING 20105
SWIDTH 1020 0
DWIDTH 17 0
BBX 16 17 0 -2
BITMAP
0400
07C0
07C0
0820
1020
7FF8
0184
0184
FFFF
0184
0184
7FF8
0180
0180
0180
0180
0E00
ENDCHAR
STARTCHAR 4E8A
ENCODING 20106
SWIDTH 1020 0
DWIDTH 17 0
BBX 16 17 0 -2
BITMAP
0180
0180
0180
FFFF
1188
0990
3FF8
0184
0184
FFFF
0184
0184
3FF8
0180
0180
0180
0600
ENDCHAR
STARTCHAR 4E8B
ENCODING 20107
SWIDTH 1020 0
DWIDTH 17 0
BBX 16 17 0 -2
BITMAP
0180
0180
0180
FFFF
0180
1FF8
2184
1FF8
0180
3FF8
0184
FFFF
0184
3FF8
0180
0180
0E00
ENDCHAR
STARTCHAR 4E8C
ENCODING 20108
SWIDTH 1020 0
DWIDTH 17 0
BBX 16 11 0 0
BITMAP
3FFC
0000
0000
0000
0000
0000
0000
0000
0000
0000
FFFF
ENDCHAR
STARTCHAR 4E8E
ENCODING 20110
SWIDTH 1020 0
DWIDTH 17 0
BBX 16 16 0 -2
BITMAP
7FFE
7FFE
0180
0180
0180
0180
0180
FFFF
0180
0180
0180
0180
0180
0180
0180
0600
ENDCHAR
STARTCHAR 4E91
ENCODING 20113
SWIDTH 1020 0
DWIDTH 17 0
BBX 16 14 0 -2
BITMAP
7FFE
0000
0000
0000
FFFF
0400
0400
0820
0810
1008
101C
23E4
7C02
0002
ENDCHAR
STARTCHAR 4E92
ENCODING 20114
SWIDTH 1020 0
DWIDTH 17 0
BBX 16 15 0 -1
BITMAP
FFFF
FFFF
1000
1000
1000
1FF0
1008
1008
1008
1008
0FF8
0008
0008
0008
FFFF
ENDCHAR
STARTCHAR 4E94
ENCODING 20116
SWIDTH 1020 0
DWIDTH 17 0
BBX 16 13 0 -1
BITMAP
FFFF
0400
0400
0400
0400
7FF0
0808
0808
0808
0808
0808
0808
FFFF
ENDCHAR
STARTCHAR 4E95
ENCODING 20117
SWIDTH 1020 0
DWIDTH 17 0
BBX 16 17 0 -2
BITMAP
0810
0810
0810
0810
0810
7FFE
0810
0810
0810
0810
0810
FFFF
0810
1010
1010
2010
C010
ENDCHAR
STARTCHAR 4E98
ENCODING 20120
SWIDTH 1020 0
DWIDTH 17 0
BBX 16 15 0 -1
BITMAP
FFFF
FFFF
0000
0000
0FF0
1008
1008
1FF8
1008
1008
1008
0FF0
0000
0000
FFFF
ENDCHAR
STARTCHAR 4E99
ENCODING 20121
SWIDTH 1020 0
DWIDTH 17 0
BBX 16 15 0 -1
BITMAP
FFFF
FFFF
1000
1000
1FF0
1008
1208
1188
10C8
14C8
1208
1188
0188
0008
FFFF
ENDCHAR
STARTCHAR 4E9B
ENCODING 20123
SWIDTH 1020 0
DWIDTH 17 0
BBX 16 16 0 -1
BITMAP
08C0
48C2
48C2
4FC2
48CC
48F0
48C1
4BC1
5CC1
E03E
0000
0000
7FFE
0000
0000
FFFF
ENDCHAR
STARTCHAR 4E9C
ENCODING 20124
SWIDTH 1020 0
DWIDTH 17 0
BBX 16 15 0 -1
BITMAP
FFFF
FFFF
0420
0420
0420
3FFC
4422
4422
4422
4422
3FFC
0420
0420
0420
FFFF
ENDCHAR
STARTCHAR 4E9E
ENCODING 20126
SWIDTH 1020 0
DWIDTH 17 0
BBX 16 15 0 -1
BITMAP
FFFF
FFFF
0420
0420
0420
3C3C
4002
4002
4002
4002
3C3C
0420
0420
0420
FFFF
ENDCHAR
STARTCHAR 4E9F
ENCODING 20127
SWIDTH 1020 0
DWIDTH 17 0
BBX 16 15 0 -1
BITMAP
FFFF
FFFF
0400
0400
0800
0FBC
70C2
88D2
88D4
88CC
88C8
7194
0623
0000
FFFF
ENDCHAR
STARTCHAR 4EA0
ENCODING 20128
SWIDTH 1020 0
DWIDTH 17 0
BBX 16 6 0 4
BITMAP
0180
0180
0180
0180
0180
FFFF
ENDCHAR
STARTCHAR 4EA1
ENCODING 20129
SWIDTH 1020 0
DWIDTH 17 0
BBX 16 16 0 -1
BITMAP
0180
0180
0180
0180
0180
FFFF
1000
1000
1000
1000
1000
1000
1000
1000
1000
0FFE
ENDCHAR
STARTCHAR 4EA2
ENCODING 20130
SWIDTH 1020 0
DWIDTH 17 0
BBX 16 17 0 -2
BITMAP
0180
0180
0180
FFFF
0000
0000
07C0
0820
0820
0820
0820
0820
0820
1021
1021
2021
C01E
ENDCHAR
STARTCHAR 4EA4
ENCODING 20132
SWIDTH 1020 0
DWIDTH 17 0
BBX 16 17 0 -2
BITMAP
0180
0180
0180
0180
FFFF
0420
0810
342C
C423
02C0
02C0
0180
02C0
0420
0810
300C
C003
ENDCHAR
STARTCHAR 4EA5
ENCODING 20133
SWIDTH 1020 0
DWIDTH 17 0
BBX 16 17 0 -2
BITMAP
0180
0180
0180
0180
FFFF
0200
0410
1820
04C0
0384
0208
0C10
7020
00D0
0388
0C04
7002
ENDCHAR
STARTCHAR 4EA6
ENCODING 20134
SWIDTH 1020 0
DWIDTH 17 0
BBX 16 17 0 -2
BITMAP
0180
0180
0180
0180
FFFF
0420
0420
2420
2424
2422
2422
4421
4821
8821
1020
2420
C3C0
ENDCHAR
STARTCHAR 4EA8
ENCODING 20136
SWIDTH 1020 0
DWIDTH 17 0
BBX 16 17 0 -2
BITMAP
0180
0180
0180
FFFF
0000
1FF8
2004
1FF8
0000
7FFC
0002
018C
00F0
00C0
00C0
00C0
0780
ENDCHAR
STARTCHAR 4EAB
ENCODING 20139
SWIDTH 1020 0
DWIDTH 17 0
BBX 16 17 0 -2
BITMAP
0180
0180
0180
FFFF
0000
1FF8
2004
1FF8
0000
3FF8
0004
0208
FFFF
00C0
00C0
00C0
0780
ENDCHAR
STARTCHAR 4EAC
ENCODING 20140
SWIDTH 1020 0
DWIDTH 17 0
BBX 16 17 0 -2
BITMAP
0180
0180
0180
FFFF
0000
0000
1FF8
2004
2004
2004
1FF8
0180
0990
1188
2184
C183
0E00
ENDCHAR
STARTCHAR 4EAD
ENCODING 20141
SWIDTH 1020 0
DWIDTH 17 0
BBX 16 17 0 -2
BITMAP
0180
0180
0180
FFFF
0000
0FF0
1008
0FF0
0000
7FFE
8001
BFFD
0180
0180
0180
0180
0E00
ENDCHAR
STARTCHAR 4EAE
ENCODING 20142
SWIDTH 1020 0
DWIDTH 17 0
BBX 16 17 0 -2
BITMAP
0180
0180
0180
FFFF
0000
1FF8
2004
1FF8
0000
7FFE
8001
8421
0420
0421
0821
1021
E01E
ENDCHAR
STARTCHAR 4EB0
ENCODING 20144
SWIDTH 1020 0
DWIDTH 17 0
BBX 16 17 0 -2
BITMAP
0180
0180
0180
FFFF
0000
0FF0
1008
1008
1FF8
1008
1008
0FF0
0180
0990
1188
2184
C603
ENDCHAR
STARTCHAR 4EB3
ENCODING 20147
SWIDTH 1020 0
DWIDTH 17 0
BBX 16 17 0 -2
BITMAP
0180
0180
0180
FFFF
0000
0FF0
1008
0FF0
0000
7FFE
8031
9FC1
0200
7FFC
0202
0202
01FC
ENDCHAR
STARTCHAR 4EB6
ENCODING 20150
SWIDTH 1020 0
DWIDTH 17 0
BBX 16 16 0 -1
BITMAP
0180
0180
0180
FFFF
2814
27E4
2004
1FF8
0000
0FF0
1008
1FF8
1008
0FF0
0000
FFFF
ENDCHAR
STARTCHAR 4EBA
ENCODING 20154
SWIDTH 1020 0
DWIDTH 17 0
BBX 16 17 0 -2
BITMAP
0180
0180
0180
0180
0180
0180
0180
02C0
02C0
02C0
0420
0420
0810
0810
1008
2004
C003
ENDCHAR
STARTCHAR 4EC0
ENCODING 20160
SWIDTH 1020 0
DWIDTH 17 0
BBX 16 17 0 -2
BITMAP
0820
0820
0820
1020
1020
2020
2020
6FFF
A020
2020
2020
2020
2020
2020
2020
2020
2020
ENDCHAR
STARTCHAR 4EC1
ENCODING 20161
SWIDTH 1020 0
DWIDTH 17 0
BBX 16 17 0 -2
BITMAP
0800
0800
0800
1000
17FE
2000
2000
6000
A000
2000
2000
2000
2000
2000
2FFF
2000
2000
ENDCHAR
STARTCHAR 4EC2
ENCODING 20162
SWIDTH 1020 0
DWIDTH 17 0
BBX 15 17 0 -2
BITMAP
0820
0820
0820
0820
1020
17FC
1022
3022
5022
90C2
10C2
10C2
1182
1182
1204
14E4
1818
ENDCHAR
STARTCHAR 4EC4
ENCODING 20164
SWIDTH 1020 0
DWIDTH 17 0
BBX 16 16 0 -2
BITMAP
1FFF
1FFF
2000
20C0
20C0
20C0
20C0
20C0
21A0
21A0
21A0
2210
4210
4408
8804
3003
ENDCHAR
STARTCHAR 4EC6
ENCODING 20166
SWIDTH 1020 0
DWIDTH 17 0
BBX 16 17 0 -2
BITMAP
0420
0420
0420
0820
0820
1020
1038
3024
5022
9021
1021
1020
1020
1020
1020
1020
1020
ENDCHAR
STARTCHAR 4EC7
ENCODING 20167
SWIDTH 1020 0
DWIDTH 17 0
BBX 16 17 0 -2
BITMAP
0980
0980
0980
0980
1180
1FF0
2188
6188
A188
2188
2188
2188
2189
2209
2209
2409
3806
ENDCHAR
STARTCHAR 4ECA
ENCODING 20170
SWIDTH 1020 0
DWIDTH 17 0
BBX 16 17 0 -2
BITMAP
0180
0180
0180
02C0
0420
0810
1008
2FF4
C003
0000
3FF8
0004
0004
0008
0008
0030
03C0
ENDCHAR
STARTCHAR 4ECB
ENCODING 20171
SWIDTH 1020 0
DWIDTH 17 0
BBX 16 17 0 -2
BITMAP
0180
0180
0180
02C0
0420
0810
1008
2814
C813
0810
0810
0810
0810
1010
1010
2010
C010
ENDCHAR
STARTCHAR 4ECD
ENCODING 20173
SWIDTH 1020 0
DWIDTH 17 0
BBX 16 17 0 -2
BITMAP
0800
0FF8
0FF8
1184
1184
1188
2188
2188
6186
A181
2201
2201
2201
2402
2402
28E4
3018
ENDCHAR
STARTCHAR 4ECE
ENCODING 20174
SWIDTH 1020 0
DWIDTH 17 0
BBX 16 17 0 -2
BITMAP
0810
0810
0810
0810
0810
0810
0810
0810
0810
0810
1428
1228
11A8
20C4
20C4
4182
8601
ENDCHAR
STARTCHAR 4ECF
ENCODING 20175
SWIDTH 1020 0
DWIDTH 17 0
BBX 16 17 0 -2
BITMAP
08C0
08C0
08C0
10C0
10C0
20C0
2180
6180
A180
2210
2208
2204
2404
2402
241E
23E1
2001
ENDCHAR
STARTCHAR 4ED4
ENCODING 20180
SWIDTH 1020 0
DWIDTH 17 0
BBX 16 17 0 -2
BITMAP
0800
0BFC
0BFC
1002
1002
2184
20C8
6030
AFFF
2010
2010
2010
2010
2010
2010
2020
23C0
ENDCHAR
STARTCHAR 4ED5
ENCODING 20181
SWIDTH 1020 0
DWIDTH 17 0
BBX 16 17 0 -2
BITMAP
0820
0820
0820
1020
1020
2020
2FFF
6020
A020
2020
2020
2020
2020
2020
2020
27FE
2000
ENDCHAR
STARTCHAR 4ED6
ENCODING 20182
SWIDTH 1020 0
DWIDTH 17 0
BBX 16 17 0 -2
BITMAP
1020
1220
1220
1220
1220
223C
23E2
6E22
A222
2222
2222
222C
2220
2221
2201
2201
21FE
ENDCHAR
STARTCHAR 4ED7
ENCODING 20183
SWIDTH 1020 0
DWIDTH 17 0
BBX 16 17 0 -2
BITMAP
0820
0820
0820
1020
1020
2FFF
2420
6420
A220
2220
21A0
20C0
20C0
21A0
2210
240C
3803
ENDCHAR
STARTCHAR 4ED8
ENCODING 20184
SWIDTH 1020 0
DWIDTH 17 0
BBX 16 17 0 -2
BITMAP
0804
0804
0804
1004
1004
2FFF
2004
6204
A184
2184
20C4
20C4
2004
2004
2004
20C4
2038
ENDCHAR
STARTCHAR 4ED9
ENCODING 20185
SWIDTH 1020 0
DWIDTH 17 0
BBX 16 17 0 -2
BITMAP
0820
0820
0820
1020
1020
2421
2421
6421
A421
2421
2421
2421
2421
2421
2421
23FE
2000
ENDCHAR
STARTCHAR 4EDD
ENCODING 20189
SWIDTH 1020 0
DWIDTH 17 0
BBX 16 16 0 -1
BITMAP
0180
02C0
02C0
02C0
0420
0810
1008
2004
C003
3FFC
0180
0180
0180
0180
0180
FFFF
ENDCHAR
STARTCHAR 4EDE
ENCODING 20190
SWIDTH 1020 0
DWIDTH 17 0
BBX 16 17 0 -2
BITMAP
0800
0800
0800
17FE
10C1
20C1
20C1
66C1
A1C1
20E1
20D1
2189
2181
2202
2202
24E4
3818
ENDCHAR
STARTCHAR 4EDF
ENCODING 20191
SWIDTH 1020 0
DWIDTH 17 0
BBX 16 17 0 -2
BITMAP
0806
0838
0838
17E0
1020
2020
2020
6020
AFFF
2020
2020
2020
2020
2020
2020
2020
2020
ENDCHAR
STARTCHAR 4EE3
ENCODING 20195
SWIDTH 1020 0
DWIDTH 17 0
BBX 16 17 0 -2
BITMAP
0824
0822
0822
0822
1020
1FFF
3020
5020
9020
1020
1010
1010
1011
1011
1009
1009
1006
ENDCHAR
STARTCHAR 4EE4
ENCODING 20196
SWIDTH 1020 0
DWIDTH 17 0
BBX 16 17 0 -2
BITMAP
0180
0180
0180
02C0
0420
0810
17E8
2004
C003
3FF8
0204
0204
0204
0204
0238
0200
0200
ENDCHAR
STARTCHAR 4EE5
ENCODING 20197
SWIDTH 1020 0
DWIDTH 17 0
BBX 16 17 0 -2
BITMAP
2004
2004
2004
2404
2204
2184
20C4
20C4
2004
2004
2004
2188
2608
3814
E022
01C1
0E01
ENDCHAR
STARTCHAR 4EED
ENCODING 20205
SWIDTH 1020 0
DWIDTH 17 0
BBX 16 17 0 -2
BITMAP
0800
0800
0800
17FE
1021
2421
2421
6221
A221
21A1
20C1
20E2
219A
2187
2202
24E4
3818
ENDCHAR
STARTCHAR 4EEE
ENCODING 20206
SWIDTH 1020 0
DWIDTH 17 0
BBX 16 17 0 -2
BITMAP
0800
09FF
09FF
1200
1200
2200
23F8
6204
A2C4
22C4
2228
2228
2410
2428
28C4
3182
2601
ENDCHAR
STARTCHAR 4EF0
ENCODING 20208
SWIDTH 1020 0
DWIDTH 17 0
BBX 16 17 0 -2
BITMAP
0810
08E0
08E0
138E
1411
2411
2411
6411
A411
2411
2411
2411
2431
25DE
2E10
2010
2010
ENDCHAR
STARTCHAR 4EF2
ENCODING 20210
SWIDTH 1020 0
DWIDTH 17 0
BBX 16 17 0 -2
BITMAP
0820
0820
0820
1020
1020
27FE
2821
6821
A821
2821
2821
27FE
2020
2020
2020
2020
2020
ENDCHAR
STARTCHAR 4EF6
ENCODING 20214
SWIDTH 1020 0
DWIDTH 17 0
BBX 16 17 0 -2
BITMAP
0820
0A20
0A20
1220
1220
23FE
2420
6420
A820
2020
2FFF
2020
2020
2020
2020
2020
2020
ENDCHAR
STARTCHAR 4EF7
ENCODING 20215
SWIDTH 1020 0
DWIDTH 17 0
BBX 16 17 0 -2
BITMAP
08C0
08C0
08C0
11A0
1190
2208
2404
6A0B
A208
2208
2208
2208
2208
2208
2408
2408
3808
ENDCHAR
STARTCHAR 4EFB
ENCODING 20219
SWIDTH 1020 0
DWIDTH 17 0
BBX 16 17 0 -2
BITMAP
0802
081C
081C
17E0
1020
2020
2020
6020
AFFF
2020
2020
2020
2020
2020
2020
27FE
2000
ENDCHAR
STARTCHAR 4F01
ENCODING 20225
SWIDTH 1020 0
DWIDTH 17 0
BBX 16 16 0 -1
BITMAP
0180
0180
0180
02C0
0420
0990
1188
2184
D183
1180
11FE
1180
1180
1180
1180
FFFF
ENDCHAR
STARTCHAR 4F09
ENCODING 20233
SWIDTH 1020 0
DWIDTH 17 0
BBX 16 17 0 -2
BITMAP
08C0
08C0
08C0
10C0
1FFF
2000
2000
61E0
A210
2210
2210
2210
2210
2411
2411
2811
300E
ENDCHAR
STARTCHAR 4F0A
ENCODING 20234
SWIDTH 1020 0
DWIDTH 17 0
BBX 16 17 0 -2
BITMAP
1000
17FC
17FC
1022
1022
2022
2FFF
6022
A022
2022
27FC
2020
20C0
20C0
2180
2200
2C00
ENDCHAR
STARTCHAR 4F0D
ENCODING 20237
SWIDTH 1020 0
DWIDTH 17 0
BBX 16 17 0 -2
BITMAP
1000
1FFE
1FFE
1180
1180
2180
2180
6FF8
A184
2184
2184
2184
2184
2184
2184
3FFF
2000
ENDCHAR
STARTCHAR 4F0E
ENCODING 20238
SWIDTH 1020 0
DWIDTH 17 0
BBX 16 17 0 -2
BITMAP
0820
0820
0820
1020
1FFF
1020
2020
6020
AFF8
2004
2204
2188
20D0
2020
20D0
238C
2C03
ENDCHAR
STARTCHAR 4F0F
ENCODING 20239
SWIDTH 1020 0
DWIDTH 17 0
BBX 16 17 0 -2
BITMAP
0828
0824
0824
1022
1022
2020
2FFF
6020
A0D0
20D0
20D0
2188
2188
2204
2204
2402
2801
ENDCHAR
STARTCHAR 4F10
ENCODING 20240
SWIDTH 1020 0
DWIDTH 17 0
BBX 16 17 0 -2
BITMAP
08C8
08C4
08C4
10C4
10C0
2FFF
20C0
60C4
A024
2028
2028
2010
2031
20D1
2389
2C09
2006
ENDCHAR
STARTCHAR 4F11
ENCODING 20241
SWIDTH 1020 0
DWIDTH 17 0
BBX 16 17 0 -2
BITMAP
0820
0820
0820
1020
1020
1FFF
2020
20F0
61A8
A1A8
2224
2224
2422
2821
2020
2020
2020
ENDCHAR
STARTCHAR 4F1A
ENCODING 20250
SWIDTH 1020 0
DWIDTH 17 0
BBX 16 17 0 -2
BITMAP
0180
0180
0180
02C0
0420
0810
1008
2FF4
C003
0000
7FFE
0400
0410
0808
10FC
7F82
0002
ENDCHAR
STARTCHAR 4F1C
ENCODING 20252
SWIDTH 1020 0
DWIDTH 17 0
BBX 16 17 0 -2
BITMAP
08C0
08C0
08C0
17F0
10C8
20C8
2189
6209
AC26
2020
2020
2FFF
2020
2020
2020
2020
2020
ENDCHAR
STARTCHAR 4F1D
ENCODING 20253
SWIDTH 1020 0
DWIDTH 17 0
BBX 16 17 0 -2
BITMAP
0800
0800
0800
17FE
1000
2000
2000
6FFF
A180
2180
2200
2208
2404
2402
241E
23E1
2001
ENDCHAR
STARTCHAR 4F2F
ENCODING 20271
SWIDTH 1020 0
DWIDTH 17 0
BBX 15 17 0 -2
BITMAP
0820
0820
0820
10C0
13FC
2402
2402
6402
A402
27FE
2402
2402
2402
2402
2402
23FC
2000
ENDCHAR
STARTCHAR 4F30
ENCODING 20272
SWIDTH 1020 0
DWIDTH 17 0
BBX 16 17 0 -2
BITMAP
0820
0820
0820
1020
1020
2FFF
2020
6020
A020
2020
23FC
2402
2402
2402
2402
23FC
2000
ENDCHAR
STARTCHAR 4F34
ENCODING 20276
SWIDTH 1020 0
DWIDTH 17 0
BBX 16 17 0 -2
BITMAP
0820
0A24
0A24
1224
11A4
21A8
2020
67FE
A020
2020
2020
2FFF
2020
2020
2020
2020
2020
ENDCHAR
STARTCHAR 4F36
ENCODING 20278
SWIDTH 1020 0
DWIDTH 17 0
BBX 16 17 0 -2
BITMAP
08C0
08C0
08C0
11A0
1190
2208
25F4
6803
B000
2FFC
20C2
20C2
20C2
20C2
20DC
20C0
20C0
ENDCHAR
STARTCHAR 4F38
ENCODING 20280
SWIDTH 1020 0
DWIDTH 17 0
BBX 16 17 0 -2
BITMAP
0820
0820
0820
1020
13FE
2421
2421
6421
A7FF
2421
2421
2421
23FE
2020
2020
2020
2020
ENDCHAR
STARTCHAR 4F3A
ENCODING 20282
SWIDTH 1020 0
DWIDTH 17 0
BBX 15 17 0 -2
BITMAP
1000
1FFC
1FFC
1002
2002
2FFA
2002
6002
A3E2
2412
2412
2412
23E2
2002
2002
2002
201C
ENDCHAR
STARTCHAR 4F3C
ENCODING 20284
SWIDTH 1020 0
DWIDTH 17 0
BBX 16 17 0 -2
BITMAP
1402
1402
1402
1582
24C2
2422
2422
6422
A402
2402
2404
2424
24C4
278A
2C12
2021
21C1
ENDCHAR
STARTCHAR 4F3D
ENCODING 20285
SWIDTH 1020 0
DWIDTH 17 0
BBX 16 17 0 -2
BITMAP
1200
1200
1200
1200
1206
2FC9
2229
6229
A229
2229
2229
2229
2229
2429
2429
28C6
3780
ENDCHAR
STARTCHAR 4F43
ENCODING 20291
SWIDTH 1020 0
DWIDTH 17 0
BBX 15 17 0 -2
BITMAP
0800
0800
0800
13FC
1422
2422
2422
6422
A422
27FE
2422
2422
2422
2422
2422
23FC
2000
ENDCHAR
STARTCHAR 4F46
ENCODING 20294
SWIDTH 1020 0
DWIDTH 17 0
BBX 16 17 0 -2
BITMAP
0800
09F8
09F8
1204
1204
2204
2204
63FC
A204
2204
2204
2204
21F8
2000
2000
2FFF
2000
ENDCHAR
STARTCHAR 4F47
ENCODING 20295
SWIDTH 1020 0
DWIDTH 17 0
BBX 16 17 0 -2
BITMAP
0820
0820
0820
1020
17FE
2801
2801
6000
AFFF
2020
2020
2020
2020
2020
2020
2020
21C0
ENDCHAR
STARTCHAR 4F4D
ENCODING 20301
SWIDTH 1020 0
DWIDTH 17 0
BBX 16 17 0 -2
BITMAP
0820
0820
0820
1020
1020
27FE
2000
6404
A204
2204
2184
2184
2188
2188
2000
2FFF
2000
ENDCHAR
STARTCHAR 4F4E
ENCODING 20302
SWIDTH 1020 0
DWIDTH 17 0
BBX 16 17 0 -2
BITMAP
0802
081C
081C
13E0
1420
2420
2420
67FF
A420
2410
2410
24D0
2791
2C09
2009
2FE9
2006
ENDCHAR
STARTCHAR 4F4F
ENCODING 20303
SWIDTH 1020 0
DWIDTH 17 0
BBX 16 17 0 -2
BITMAP
09C0
0830
0830
1008
1000
2FFF
2020
6020
A020
2020
27FE
2020
2020
2020
2020
2FFF
2000
ENDCHAR
STARTCHAR 4F50
ENCODING 20304
SWIDTH 1020 0
DWIDTH 17 0
BBX 16 17 0 -2
BITMAP
08C0
08C0
08C0
10C0
1180
2FFF
2180
6200
A200
27FE
2820
3020
2020
2020
2020
2FFF
2000
ENDCHAR
STARTCHAR 4F51
ENCODING 20305
SWIDTH 1020 0
DWIDTH 17 0
BBX 16 17 0 -2
BITMAP
08C0
08C0
08C0
10C0
1FFF
2180
2180
6200
A200
25FC
2A02
3202
2202
2202
2202
21FC
2000
ENDCHAR
STARTCHAR 4F53
ENCODING 20307
SWIDTH 1020 0
DWIDTH 17 0
BBX 16 17 0 -2
BITMAP
1020
1020
1020
1020
1020
2FFF
2020
60F0
A1A8
21A8
2224
2224
2422
2BFD
2020
2020
2020
ENDCHAR
STARTCHAR 4F55
ENCODING 20309
SWIDTH 1020 0
DWIDTH 17 0
BBX 16 17 0 -2
BITMAP
1000
1000
1000
1FFF
1004
2004
23C4
6424
A424
2424
2424
23C4
2004
2004
2004
2004
2038
ENDCHAR
STARTCHAR 4F57
ENCODING 20311
SWIDTH 1020 0
DWIDTH 17 0
BBX 16 17 0 -2
BITMAP
0820
0820
0820
1020
13FE
2401
2401
6581
A184
2184
2198
21E0
2180
2182
2182
2182
20FC
ENDCHAR
STARTCHAR 4F59
ENCODING 20313
SWIDTH 1020 0
DWIDTH 17 0
BBX 16 17 0 -2
BITMAP
0180
02C0
02C0
0420
0810
1008
2FF4
C183
0180
7FFE
0180
1190
1188
2184
4182
8182
0E00
ENDCHAR
STARTCHAR 4F5A
ENCODING 20314
SWIDTH 1020 0
DWIDTH 17 0
BBX 16 17 0 -2
BITMAP
0A20
0A20
0A20
1220
13FE
2420
2420
6820
A020
2FFF
20D0
20D0
2188
2188
2204
2402
3801
ENDCHAR
STARTCHAR 4F5B
ENCODING 20315
SWIDTH 1020 0
DWIDTH 17 0
BBX 16 17 0 -2
BITMAP
1190
1190
1190
1FFC
1192
2192
27FC
6990
A990
2990
27FE
2191
2191
2212
221C
2410
2810
ENDCHAR
STARTCHAR 4F5C
ENCODING 20316
SWIDTH 1020 0
DWIDTH 17 0
BBX 16 17 0 -2
BITMAP
08C0
08C0
08C0
0980
11FF
1220
2220
6420
A83E
2020
2020
2020
203E
2020
2020
2020
2020
ENDCHAR
STARTCHAR 4F5D
ENCODING 20317
SWIDTH 1020 0
DWIDTH 17 0
BBX 16 17 0 -2
BITMAP
0980
0980
0980
1200
13FE
2401
2401
6BE1
B411
2411
2411
2411
23E1
2002
2002
2004
2038
ENDCHAR
STARTCHAR 4F5E
ENCODING 20318
SWIDTH 1020 0
DWIDTH 17 0
BBX 16 17 0 -2
BITMAP
0800
0FFE
0FFE
1000
1000
2FFF
20C0
60C0
A180
2FFF
2188
2210
2410
23E0
20D8
2384
2C02
ENDCHAR
STARTCHAR 4F69
ENCODING 20329
SWIDTH 1020 0
DWIDTH 17 0
BBX 16 17 0 -2
BITMAP
0800
0BFC
0BFC
1402
1402
25FA
2422
6422
A4F2
25AA
25AA
25AA
25AA
25AA
2832
2821
3021
ENDCHAR
STARTCHAR 4F6F
ENCODING 20335
SWIDTH 1020 0
DWIDTH 17 0
BBX 16 17 0 -2
BITMAP
0988
0988
0988
10D0
1FFF
2020
2020
6020
A7FE
2020
2020
2020
2FFF
2020
2020
2020
2020
ENDCHAR
STARTCHAR 4F70
ENCODING 20336
SWIDTH 1020 0
DWIDTH 17 0
BBX 16 17 0 -2
BITMAP
0800
0FFF
0FFF
1020
1020
20C0
21FC
6202
A202
2202
23FE
2202
2202
2202
2202
21FC
2000
ENDCHAR
STARTCHAR 4F73
ENCODING 20339
SWIDTH 1020 0
DWIDTH 17 0
BBX 16 17 0 -2
BITMAP
0820
0820
0820
17FE
1020
2020
2020
6FFF
A000
2020
2020
27FE
2020
2020
2020
2FFF
2000
ENDCHAR
STARTCHAR 4F75
ENCODING 20341
SWIDTH 1020 0
DWIDTH 17 0
BBX 16 17 0 -2
BITMAP
0A04
0984
0984
10C8
1FFF
2188
2188
6188
A188
2FFF
2188
2188
2188
2208
2208
2408
3808
ENDCHAR
STARTCHAR 4F76
ENCODING 20342
SWIDTH 1020 0
DWIDTH 17 0
BBX 16 17 0 -2
BITMAP
0820
0820
0820
1020
1FFF
2020
2020
6020
A7FE
2000
2000
23FC
2402
2402
2402
23FC
2000
ENDCHAR
STARTCHAR 4F7B
ENCODING 20347
SWIDTH 1020 0
DWIDTH 17 0
BBX 16 17 0 -2
BITMAP
0990
0990
0990
1190
1192
2992
259C
6590
A190
239C
2592
3992
2190
2211
2211
2411
380E
ENDCHAR
STARTCHAR 4F7C
ENCODING 20348
SWIDTH 1020 0
DWIDTH 17 0
BBX 16 17 0 -2
BITMAP
0820
0820
0820
1020
1FFF
20D0
2188
6204
AD8B
2188
20D0
20D0
2020
20D0
2188
2204
2C03
ENDCHAR
STARTCHAR 4F7F
ENCODING 20351
SWIDTH 1020 0
DWIDTH 17 0
BBX 16 17 0 -2
BITMAP
1020
1020
1020
1FFF
1020
2020
23FC
6422
A422
2422
23FC
2220
21C0
20C0
21A0
2218
2C07
ENDCHAR
STARTCHAR 4F83
ENCODING 20355
SWIDTH 1020 0
DWIDTH 17 0
BBX 16 17 0 -2
BITMAP
0800
09F8
09F8
0A04
1204
1204
2204
61F8
A000
2228
2228
2228
2228
2229
2229
2429
2806
ENDCHAR
STARTCHAR 4F86
ENCODING 20358
SWIDTH 1020 0
DWIDTH 17 0
BBX 16 17 0 -2
BITMAP
0180
0180
0180
FFFF
0180
1188
1188
1188
2994
2BD2
45A1
85A0
0990
1188
2184
C183
0180
ENDCHAR
STARTCHAR 4F88
ENCODING 20360
SWIDTH 1020 0
DWIDTH 17 0
BBX 16 17 0 -2
BITMAP
08C0
08C0
08C0
11F8
1204
2D84
20C8
6030
A3D0
2C1E
2021
21C1
2622
2014
2018
20E0
2780
ENDCHAR
STARTCHAR 4F8B
ENCODING 20363
SWIDTH 1020 0
DWIDTH 17 0
BBX 16 17 0 -2
BITMAP
1001
1FE9
1FE9
1409
1409
27C9
2429
6429
AC29
2A29
31C9
20C9
2189
2181
2201
2401
280E
ENDCHAR
STARTCHAR 4F8D
ENCODING 20365
SWIDTH 1020 0
DWIDTH 17 0
BBX 16 17 0 -2
BITMAP
0820
0820
0820
17FE
1020
2020
2FFF
6004
A004
2FFF
2404
2204
2184
2184
2004
2004
2038
ENDCHAR
STARTCHAR 4F8F
ENCODING 20367
SWIDTH 1020 0
DWIDTH 17 0
BBX 16 17 0 -2
BITMAP
0820
0A20
0A20
1220
13FE
2420
2420
6820
BFFF
20E0
21B0
21A8
2228
2424
2823
2020
2020
ENDCHAR
STARTCHAR 4F91
ENCODING 20369
SWIDTH 1020 0
DWIDTH 17 0
BBX 16 17 0 -2
BITMAP
08C0
08C0
08C0
17FF
1180
2180
23FC
6202
A602
2BFE
2202
2202
23FE
2202
2202
2202
220C
ENDCHAR
STARTCHAR 4F96
ENCODING 20374
SWIDTH 1020 0
DWIDTH 17 0
BBX 16 17 0 -2
BITMAP
0180
02C0
02C0
0420
0810
1008
2FF4
C003
1FF8
24C4
24C4
3FFC
24C4
24C4
24C4
24C4
2018
ENDCHAR
STARTCHAR 4F98
ENCODING 20376
SWIDTH 1020 0
DWIDTH 17 0
BBX 16 17 0 -2
BITMAP
08C0
08C0
08C0
10C0
17FE
2801
280D
60F0
AF80
2180
2FFF
2180
2180
2180
2182
2182
20FC
ENDCHAR
STARTCHAR 4F9B
ENCODING 20379
SWIDTH 1020 0
DWIDTH 17 0
BBX 16 17 0 -2
BITMAP
0988
0988
0988
1188
1188
17FE
2188
6188
A188
2188
2188
2FFF
2000
2190
2208
2404
3803
ENDCHAR
STARTCHAR 4F9D
ENCODING 20381
SWIDTH 1020 0
DWIDTH 17 0
BBX 16 17 0 -2
BITMAP
1020
1020
1020
1020
1FFF
20C0
21C0
61A2
A224
2628
3A10
2210
2208
2208
2204
23E2
2E01
ENDCHAR
STARTCHAR 4FA0
ENCODING 20384
SWIDTH 1020 0
DWIDTH 17 0
BBX 16 17 0 -2
BITMAP
0820
0820
0820
1020
17FE
1020
2224
6224
A1A8
2020
2FFF
2020
20D0
20D0
2188
2204
2C03
ENDCHAR
STARTCHAR 4FA1
ENCODING 20385
SWIDTH 1020 0
DWIDTH 17 0
BBX 16 17 0 -2
BITMAP
1000
1FFF
1FFF
10D0
20D0
20D0
23FC
64D2
A4D2
24D2
24D2
24D2
24D2
24D2
24D2
23FC
2000
ENDCHAR
STARTCHAR 4FAB
ENCODING 20395
SWIDTH 1020 0
DWIDTH 17 0
BBX 16 17 0 -2
BITMAP
0820
0820
0820
17FF
1200
2200
2200
61FE
A0C0
20C0
2FFF
2188
2208
21D0
2030
21CC
2E02
ENDCHAR
STARTCHAR 4FAD
ENCODING 20397
SWIDTH 1020 0
DWIDTH 17 0
BBX 16 17 0 -2
BITMAP
0800
0BF8
0BF8
1404
1404
2404
27F8
6410
A410
25C8
2428
2814
2B84
30C2
2021
2010
2008
ENDCHAR
STARTCHAR 4FAE
ENCODING 20398
SWIDTH 1020 0
DWIDTH 17 0
BBX 16 17 0 -2
BITMAP
1200
1200
1200
13FF
2400
25F8
2A24
6224
A224
2224
3FFF
24C4
24C4
24C4
24C4
23F8
2000
ENDCHAR
STARTCHAR 4FAF
ENCODING 20399
SWIDTH 1020 0
DWIDTH 17 0
BBX 16 17 0 -2
BITMAP
0800
0BF8
0BF8
1004
1004
2FFF
2200
6200
A7FE
2420
2820
3FFF
2020
20D0
2188
2204
2C03
ENDCHAR
STARTCHAR 4FB5
ENCODING 20405
SWIDTH 1020 0
DWIDTH 17 0
BBX 16 17 0 -2
BITMAP
0800
0BF8
0BF8
1004
13FC
2004
23F8
6000
A7FE
2801
2BF9
2184
20C8
2030
20D0
238C
2C03
ENDCHAR
STARTCHAR 4FB6
ENCODING 20406
SWIDTH 1020 0
DWIDTH 17 0
BBX 16 17 0 -2
BITMAP
0800
09FC
09FC
1202
1202
2202
2202
61FC
A0C0
2180
23FE
2401
2401
2401
2401
23FE
2000
ENDCHAR
STARTCHAR 4FBF
ENCODING 20415
SWIDTH 1020 0
DWIDTH 17 0
BBX 16 17 0 -2
BITMAP
1000
1FFF
1FFF
1020
13FC
2422
2422
67FE
A422
2422
23FC
2220
21C0
20C0
21A0
2618
3807
ENDCHAR
STARTCHAR 4FC2
ENCODING 20418
SWIDTH 1020 0
DWIDTH 17 0
BBX 16 17 0 -2
BITMAP
0806
0818
0818
17E0
10C8
2390
21A8
60C4
A19E
2FE1
2021
2228
2224
2222
2421
2821
2020
ENDCHAR
STARTCHAR 4FC3
ENCODING 20419
SWIDTH 1020 0
DWIDTH 17 0
BBX 16 17 0 -2
BITMAP
1000
13FC
13FC
1402
1402
2402
2402
63FC
A020
2420
2420
243E
2420
2420
2A20
29E0
303F
ENDCHAR
STARTCHAR 4FC4
ENCODING 20420
SWIDTH 1020 0
DWIDTH 17 0
BBX 16 17 0 -2
BITMAP
10D0
1394
1394
1E12
2212
2210
3FFF
6210
A212
23D2
2E14
2208
2208
2219
2225
22C5
2D82
ENDCHAR
STARTCHAR 4FCA
ENCODING 20426
SWIDTH 1020 0
DWIDTH 17 0
BBX 16 17 0 -2
BITMAP
08C0
08C8
08C8
1184
17FE
20D2
2190
6210
AD8F
2180
21F8
2384
2CC8
2030
20D0
238C
2C03
ENDCHAR
STARTCHAR 4FCE
ENCODING 20430
SWIDTH 1020 0
DWIDTH 17 0
BBX 16 15 0 -1
BITMAP
10F8
10F8
1184
1184
2984
25FC
4584
9184
1184
11FC
2984
2584
4584
8184
0FFF
ENDCHAR
STARTCHAR 4FD0
ENCODING 20432
SWIDTH 1020 0
DWIDTH 17 0
BBX 16 17 0 -2
BITMAP
0811
08E1
08E1
1789
1189
2189
2FF9
6189
A3C9
25A9
2599
2989
3189
2181
2181
2181
2186
ENDCHAR
STARTCHAR 4FD1
ENCODING 20433
SWIDTH 1020 0
DWIDTH 17 0
BBX 15 17 0 -2
BITMAP
0800
0FFC
0FFC
1184
10C8
2030
23FC
6422
A422
27FE
2422
2422
27FE
2422
2422
2422
240C
ENDCHAR
STARTCHAR 4FD4
ENCODING 20436
SWIDTH 1020 0
DWIDTH 17 0
BBX 16 17 0 -2
BITMAP
0800
0BF8
0BF8
1404
1404
27FC
2404
6404
A7FC
2404
2404
23F8
2190
2191
2191
2211
2C0E
ENDCHAR
STARTCHAR 4FD7
ENCODING 20439
SWIDTH 1020 0
DWIDTH 17 0
BBX 16 17 0 -2
BITMAP
1210
1210
1210
1208
14C4
24C2
29A0
6190
A208
2404
3803
23F8
2404
2404
2404
23F8
2000
ENDCHAR
STARTCHAR 4FD8
ENCODING 20440
SWIDTH 1020 0
DWIDTH 17 0
BBX 16 17 0 -2
BITMAP
080E
0FF4
0FF4
14C4
1224
21A8
27FC
6004
A0C8
2030
2FFF
2010
2010
2010
2010
2020
21C0
ENDCHAR
STARTCHAR 4FDA
ENCODING 20442
SWIDTH 1020 0
DWIDTH 17 0
BBX 16 17 0 -2
BITMAP
0800
0BFC
0BFC
1422
1422
27FE
2422
6422
A422
23FC
2020
2020
27FE
2020
2020
2FFF
2000
ENDCHAR
STARTCHAR 4FDB
ENCODING 20443
SWIDTH 1020 0
DWIDTH 17 0
BBX 16 17 0 -2
BITMAP
0980
0980
0980
13F0
1208
2410
2BF8
74C4
A4C4
24C4
24C4
23F8
21A0
21A1
2221
2421
381E
ENDCHAR
STARTCHAR 4FDD
ENCODING 20445
SWIDTH 1020 0
DWIDTH 17 0
BBX 16 17 0 -2
BITMAP
0800
09F8
09F8
1204
1204
2204
2204
61F8
A020
2020
2FFF
20F0
21A8
2224
2422
2821
2020
ENDCHAR
STARTCHAR 4FDF
ENCODING 20447
SWIDTH 1020 0
DWIDTH 17 0
BBX 16 17 0 -2
BITMAP
08C0
08C0
08C0
1188
1206
2FFD
2201
6200
A3FE
2220
2420
2FFF
20D0
20D0
2188
2204
2C03
ENDCHAR
STARTCHAR 4FE1
ENCODING 20449
SWIDTH 1020 0
DWIDTH 17 0
BBX 16 17 0 -2
BITMAP
1000
17FE
17FE
1000
2FFF
2000
27FE
6000
A7FE
2000
2000
23FC
2402
2402
2402
23FC
2000
ENDCHAR
STARTCHAR 4FE3
ENCODING 20451
SWIDTH 1020 0
DWIDTH 17 0
BBX 16 17 0 -2
BITMAP
0800
09F8
09F8
1204
1204
2204
21F8
6000
A7FE
2020
2020
2FFF
20D0
20D0
2188
2204
2C03
ENDCHAR
STARTCHAR 4FE4
ENCODING 20452
SWIDTH 1020 0
DWIDTH 17 0
BBX 16 17 0 -2
BITMAP
0A08
0988
0988
1190
17FC
2022
2022
63FC
A420
2420
23FE
20E1
21A1
2222
2C2C
2020
2020
ENDCHAR
STARTCHAR 4FE5
ENCODING 20453
SWIDTH 1020 0
DWIDTH 17 0
BBX 16 17 0 -2
BITMAP
0820
0820
0820
17FF
1020
23FC
2422
6422
A7FE
2422
2422
23FC
2020
2FFF
2020
2020
2020
ENDCHAR
STARTCHAR 4FEE
ENCODING 20462
SWIDTH 1020 0
DWIDTH 17 0
BBX 16 17 0 -2
BITMAP
1180
1180
1180
11FF
2AC4
2AC8
2C30
6828
A9C4
2E13
2820
2BC8
2812
28E4
2B88
2030
23C0
ENDCHAR
STARTCHAR 4FEF
ENCODING 20463
SWIDTH 1020 0
DWIDTH 17 0
BBX 16 17 0 -2
BITMAP
0820
0820
0820
13FF
14C0
24C4
24C4
65BF
A584
27C4
25A4
2594
2594
2984
2984
3184
2198
ENDCHAR
STARTCHAR 4FF3
ENCODING 20467
SWIDTH 1020 0
DWIDTH 17 0
BBX 16 17 0 -2
BITMAP
1190
1190
1190
1190
2F9F
2190
2190
6190
AF9E
2190
2190
2190
2F9F
2190
2210
2410
3810
ENDCHAR
STARTCHAR 4FF5
ENCODING 20469
SWIDTH 1020 0
DWIDTH 17 0
BBX 16 17 0 -2
BITMAP
1020
1020
1020
1FFF
2020
27FE
2020
6020
AFFF
21A2
2212
2614
3A08
2208
2224
23C2
2E01
ENDCHAR
STARTCHAR 4FF6
ENCODING 20470
SWIDTH 1020 0
DWIDTH 17 0
BBX 16 17 0 -2
BITMAP
0A00
0A00
0A00
123C
13D2
2212
2212
7FF2
A214
2B94
2AD4
2AC8
32C8
2214
2C14
2022
21C1
ENDCHAR
STARTCHAR 4FF8
ENCODING 20472
SWIDTH 1020 0
DWIDTH 17 0
BBX 16 17 0 -2
BITMAP
1020
1020
1020
1FFF
2020
27FE
20D0
6FFF
A188
2224
2423
3BFC
2020
2FFF
2020
2020
2020
ENDCHAR
STARTCHAR 4FFA
ENCODING 20474
SWIDTH 1020 0
DWIDTH 17 0
BBX 16 17 0 -2
BITMAP
10C0
10C0
10C0
1FFF
1190
22C8
24C4
6BFB
B4C4
24C4
27FC
24C4
24C4
23F9
20C1
20C1
203E
ENDCHAR
STARTCHAR 4FFE
ENCODING 20478
SWIDTH 1020 0
DWIDTH 17 0
BBX 16 17 0 -2
BITMAP
08C0
08C0
08C0
13FC
1422
2422
27FE
6422
A422
23FC
2190
2210
2FFF
2010
2010
2010
2010
ENDCHAR
STARTCHAR 5005
ENCODING 20485
SWIDTH 1020 0
DWIDTH 17 0
BBX 16 17 0 -2
BITMAP
0820
0820
0820
1020
1FFF
2000
2208
6208
A594
24D2
2822
3FFF
2020
2020
2020
2020
2020
ENDCHAR
STARTCHAR 5006
ENCODING 20486
SWIDTH 1020 0
DWIDTH 17 0
BBX 16 17 0 -2
BITMAP
0800
0FFF
0FFF
1020
1020
23FC
2422
6422
A7BA
25AA
25AA
25AA
26F6
2422
2422
2422
240C
ENDCHAR
STARTCHAR 5009
ENCODING 20489
SWIDTH 1020 0
DWIDTH 17 0
BBX 16 16 0 -1
BITMAP
0180
02C0
02C0
0420
0BD0
1008
2FF4
D00B
1FF8
1008
1FF0
2000
2FF8
5004
9004
0FF8
ENDCHAR
STARTCHAR 500B
ENCODING 20491
SWIDTH 1020 0
DWIDTH 17 0
BBX 15 17 0 -2
BITMAP
0800
0BFC
0BFC
1402
1422
2422
27FE
6422
A422
24F2
258A
258A
258A
24F2
2402
23FC
2000
ENDCHAR
STARTCHAR 500D
ENCODING 20493
SWIDTH 1020 0
DWIDTH 17 0
BBX 16 17 0 -2
BITMAP
0820
0820
0820
17FE
1208
2188
2188
6190
AFFF
2000
21F8
2204
2204
2204
2204
21F8
2000
ENDCHAR
STARTCHAR 500F
ENCODING 20495
SWIDTH 1020 0
DWIDTH 17 0
BBX 16 17 0 -2
BITMAP
08C0
08C0
08C0
10FC
11C2
2A24
2C18
68E4
AB8B
2824
2824
2FFF
2820
28D0
2188
2204
2C03
ENDCHAR
STARTCHAR 5011
ENCODING 20497
SWIDTH 1020 0
DWIDTH 17 0
BBX 15 17 0 -2
BITMAP
0800
0B8C
0B8C
14D2
14D2
27DE
24D2
64D2
A78E
2402
2402
2402
2402
2402
2402
2402
240C
ENDCHAR
STARTCHAR 5012
ENCODING 20498
SWIDTH 1020 0
DWIDTH 17 0
BBX 16 17 0 -2
BITMAP
1001
1FE9
1FE9
1209
24C9
2829
29E9
6629
A209
2209
2FE9
2209
2209
2201
23E1
2E01
200E
ENDCHAR
STARTCHAR 5014
ENCODING 20500
SWIDTH 1020 0
DWIDTH 17 0
BBX 16 17 0 -2
BITMAP
0800
0BFC
0BFC
1402
1402
27FC
2410
6592
A592
2592
24FC
2410
2A11
2A11
3211
21FE
2000
ENDCHAR
STARTCHAR 5016
ENCODING 20502
SWIDTH 1020 0
DWIDTH 17 0
BBX 16 17 0 -2
BITMAP
0820
0820
0820
17FE
1020
1020
2FFF
6204
A184
2188
2FFF
2020
2020
27FE
2020
2020
2020
ENDCHAR
STARTCHAR 5019
ENCODING 20505
SWIDTH 1020 0
DWIDTH 17 0
BBX 16 17 0 -2
BITMAP
1000
17F8
17F8
1004
2804
2FFF
2980
6980
ABFE
2C20
2820
2FFF
28D0
28D0
2988
2204
2C03
ENDCHAR
STARTCHAR 501A
ENCODING 20506
SWIDTH 1020 0
DWIDTH 17 0
BBX 16 17 0 -2
BITMAP
08C0
08C0
08C0
17FE
11A0
2210
2408
7FFF
A004
23C4
2424
2424
2424
23C4
2004
2004
2018
ENDCHAR
STARTCHAR 501F
ENCODING 20511
SWIDTH 1020 0
DWIDTH 17 0
BBX 16 17 0 -2
BITMAP
1188
1188
1188
17FE
2188
2188
2FFF
6000
A000
23FC
2402
2402
27FE
2402
2402
23FC
2000
ENDCHAR
STARTCHAR 5021
ENCODING 20513
SWIDTH 1020 0
DWIDTH 17 0
BBX 15 17 0 -2
BITMAP
0800
09F8
09F8
1204
13FC
2204
2204
61F8
A000
23FC
2402
2402
27FE
2402
2402
23FC
2000
ENDCHAR
STARTCHAR 5023
ENCODING 20515
SWIDTH 1020 0
DWIDTH 17 0
BBX 16 17 0 -2
BITMAP
1210
1210
1210
1210
1FD0
243F
2424
6794
A4D4
24D4
24D4
24C8
24C8
28D4
28D4
31A2
2EC1
ENDCHAR
STARTCHAR 5024
ENCODING 20516
SWIDTH 1020 0
DWIDTH 17 0
BBX 16 17 0 -2
BITMAP
1020
1020
1020
1FFF
2020
20FC
2582
65FE
A582
2582
25FE
2582
2582
24FC
2400
23FF
2000
ENDCHAR
STARTCHAR 5025
ENCODING 20517
SWIDTH 1020 0
DWIDTH 17 0
BBX 16 17 0 -2
BITMAP
0820
0820
0820
1020
17FE
2991
2991
6190
A20F
2C00
2000
27FE
2020
2020
2020
2FFF
2000
ENDCHAR
STARTCHAR 5026
ENCODING 20518
SWIDTH 1020 0
DWIDTH 17 0
BBX 16 17 0 -2
BITMAP
14C4
12C4
12C4
12C8
1FFE
21A0
21A0
7FFF
A210
2408
2FF4
300B
2008
23F0
2402
2402
23FC
ENDCHAR
STARTCHAR 5028
ENCODING 20520
SWIDTH 1020 0
DWIDTH 17 0
BBX 16 17 0 -2
BITMAP
0800
0BFC
0BFC
1402
1402
27FC
2410
6410
A7FF
2410
2410
24FC
2582
2982
2982
30FC
2000
ENDCHAR
STARTCHAR 5029
ENCODING 20521
SWIDTH 1020 0
DWIDTH 17 0
BBX 16 17 0 -2
BITMAP
0820
0820
0820
17FE
1020
23FC
2020
6FFF
A000
21F8
2204
23FC
2204
23FC
2204
2204
2218
ENDCHAR
STARTCHAR 502A
ENCODING 20522
SWIDTH 1020 0
DWIDTH 17 0
BBX 16 17 0 -2
BITMAP
0820
08C0
08C0
139C
1402
2402
27DE
6402
A402
23FC
20D0
20D0
20D0
2191
2191
2211
2C0E
ENDCHAR
STARTCHAR 502B
ENCODING 20523
SWIDTH 1020 0
DWIDTH 17 0
BBX 16 17 0 -2
BITMAP
08C0
08C0
08C0
11A0
1190
2208
25F4
6803
B3FC
24D2
24D2
27FE
24D2
24D2
24D2
24D2
240C
ENDCHAR
STARTCHAR 502C
ENCODING 20524
SWIDTH 1020 0
DWIDTH 17 0
BBX 16 17 0 -2
BITMAP
0820
0820
0820
083E
1020
13FC
2402
6402
A7FE
2402
2402
23FC
2020
2FFF
2020
2020
2020
ENDCHAR
STARTCHAR 502D
ENCODING 20525
SWIDTH 1020 0
DWIDTH 17 0
BBX 16 17 0 -2
BITMAP
0804
0838
0838
13E0
1020
2FFF
21B0
6228
A424
38C3
20C0
2FFF
2188
2388
20F0
21CC
2E02
ENDCHAR
STARTCHAR 5036
ENCODING 20534
SWIDTH 1020 0
DWIDTH 17 0
BBX 16 17 0 -2
BITMAP
0800
09F8
09F8
1204
1204
13FC
2204
6204
A3FC
2204
2204
21F8
2000
2FFF
2000
238C
2C03
ENDCHAR
STARTCHAR 5039
ENCODING 20537
SWIDTH 1020 0
DWIDTH 17 0
BBX 16 17 0 -2
BITMAP
08C0
09A0
09A0
1190
1208
25F4
28C3
77FC
A8C2
28C2
28C2
27FC
21A0
2190
2208
2404
3803
ENDCHAR
STARTCHAR 5043
ENCODING 20547
SWIDTH 1020 0
DWIDTH 17 0
BBX 16 17 0 -2
BITMAP
0800
0BFF
0BFF
1400
14FC
2582
25FE
6582
A4FC
2420
27FF
24C8
25F0
242C
24C2
23FF
2000
ENDCHAR
STARTCHAR 5047
ENCODING 20551
SWIDTH 1020 0
DWIDTH 17 0
BBX 16 17 0 -2
BITMAP
0800
0B9C
0B9C
14C2
14C2
24C2
279C
6400
A400
27FC
2422
2412
27D4
2408
2414
2422
25C1
ENDCHAR
STARTCHAR 5048
ENCODING 20552
SWIDTH 1020 0
DWIDTH 17 0
BBX 16 17 0 -2
BITMAP
0800
09F8
09F8
1204
13FC
2204
2204
61F8
A180
23FE
2401
3CE1
2789
2409
23F2
2002
201C
ENDCHAR
STARTCHAR 5049
ENCODING 20553
SWIDTH 1020 0
DWIDTH 17 0
BBX 16 17 0 -2
BITMAP
08C0
08C0
08C0
13F8
1184
2FFF
2000
63F8
A404
23F8
2010
27FE
2210
2210
2FFF
2010
2010
ENDCHAR
STARTCHAR 504F
ENCODING 20559
SWIDTH 1020 0
DWIDTH 17 0
BBX 15 17 0 -2
BITMAP
1000
17FE
17FE
1000
13FC
2402
2402
67FC
A400
27FC
2AD2
2AD2
2BFE
32D2
22D2
22D2
220C
ENDCHAR
STARTCHAR 5050
ENCODING 20560
SWIDTH 1020 0
DWIDTH 17 0
BBX 16 17 0 -2
BITMAP
0820
0820
0820
17FF
1184
20C8
23FF
6408
A432
25C4
2408
2431
25C2
2804
2818
30E0
2380
ENDCHAR
STARTCHAR 5055
ENCODING 20565
SWIDTH 1020 0
DWIDTH 17 0
BBX 16 17 0 -2
BITMAP
0A10
0A11
0A11
13D2
121C
2210
22F1
6391
ACCE
20C0
23FC
2402
27FE
2402
2402
23FC
2000
ENDCHAR
STARTCHAR 5056
ENCODING 20566
SWIDTH 1020 0
DWIDTH 17 0
BBX 16 17 0 -2
BITMAP
08C0
08C4
08C4
10C4
17FC
20C8
20D0
6FFF
A0C0
21F8
2604
3A04
23FC
2204
2204
21F8
2000
ENDCHAR
STARTCHAR 505A
ENCODING 20570
SWIDTH 1020 0
DWIDTH 17 0
BBX 16 17 0 -2
BITMAP
1208
1208
1208
1210
1210
2FFF
2222
62D2
A212
2794
28D4
28C8
28C8
28D4
2794
2022
21C1
ENDCHAR
STARTCHAR 505C
ENCODING 20572
SWIDTH 1020 0
DWIDTH 17 0
BBX 16 17 0 -2
BITMAP
0820
0820
0820
17FF
1000
21F8
2204
61F8
A000
27FE
2801
2BFD
2020
2020
2020
2020
23C0
ENDCHAR
STARTCHAR 5065
ENCODING 20581
SWIDTH 1020 0
DWIDTH 17 0
BBX 16 17 0 -2
BITMAP
1010
1010
1010
1DFC
2212
25FF
2412
6812
ADFC
2210
2BFE
2A10
2BFF
2410
2410
2B80
30FF
ENDCHAR
STARTCHAR 506C
ENCODING 20588
SWIDTH 1020 0
DWIDTH 17 0
BBX 16 17 0 -2
BITMAP
0980
0980
0980
1200
13FC
24CA
2992
66D2
A022
21D4
2604
20D8
21A4
2592
2595
2985
20F8
ENDCHAR
STARTCHAR 5072
ENCODING 20594
SWIDTH 1020 0
DWIDTH 17 0
BBX 16 17 0 -2
BITMAP
0800
0BFC
0BFC
1422
1422
27FE
2422
6422
A422
23FC
20C0
21A4
2592
2591
2585
2984
20F8
ENDCHAR
STARTCHAR 5074
ENCODING 20596
SWIDTH 1020 0
DWIDTH 17 0
BBX 16 17 0 -2
BITMAP
1001
13C9
13C9
1429
2429
27E9
2429
6429
A7E9
2429
2429
2429
23C9
2001
24C1
2421
282E
ENDCHAR
STARTCHAR 5075
ENCODING 20597
SWIDTH 1020 0
DWIDTH 17 0
BBX 16 17 0 -2
BITMAP
0820
0820
0820
103F
1020
23FC
2402
6402
A7FE
2402
2402
27FE
2402
2402
23FC
2188
2E07
ENDCHAR
STARTCHAR 5076
ENCODING 20598
SWIDTH 1020 0
DWIDTH 17 0
BBX 16 17 0 -2
BITMAP
1000
13FC
13FC
1422
1422
27FE
2422
6422
A3FC
2020
27FE
2821
2829
283D
2BE5
2801
280E
ENDCHAR
STARTCHAR 5078
ENCODING 20600
SWIDTH 1020 0
DWIDTH 17 0
BBX 16 17 0 -2
BITMAP
08C0
09A0
09A0
1190
1208
25F4
2803
7384
A4D4
27D4
24D4
24D4
27D4
24D4
24C4
24C4
2598
ENDCHAR
STARTCHAR 507D
ENCODING 20605
SWIDTH 1020 0
DWIDTH 17 0
BBX 16 17 0 -2
BITMAP
14C0
12C0
12C0
12C0
2FF8
2184
6184
A3FC
2202
2402
2FFE
30D1
25A9
25A9
29A9
2982
201C
ENDCHAR
STARTCHAR 5080
ENCODING 20608
SWIDTH 1020 0
DWIDTH 17 0
BBX 16 17 0 -2
BITMAP
08C0
08C0
08C0
13FC
1422
2422
27FE
6422
A422
23FC
21A4
21A8
21AA
223E
2221
2421
381E
ENDCHAR
STARTCHAR 5085
ENCODING 20613
SWIDTH 1020 0
DWIDTH 17 0
BBX 16 17 0 -2
BITMAP
102C
1022
1022
1FFF
1020
23FC
2422
67FE
A422
23FC
2008
2FFF
2208
2188
2188
2008
2030
ENDCHAR
STARTCHAR 508D
ENCODING 20621
SWIDTH 1020 0
DWIDTH 17 0
BBX 16 17 0 -2
BITMAP
0820
0820
0820
17FF
1188
20D0
27FE
6821
A821
27FE
20C0
20FC
20C2
2182
2182
2204
2C38
ENDCHAR
STARTCHAR 5091
ENCODING 20625
SWIDTH 1020 0
DWIDTH 17 0
BBX 16 17 0 -2
BITMAP
1404
1784
1784
14FF
14D4
2B94
21FF
6204
AC24
2020
2FFF
20F0
21A8
21A8
2224
2C23
2020
ENDCHAR
STARTCHAR 5098
ENCODING 20632
SWIDTH 1020 0
DWIDTH 17 0
BBX 16 17 0 -2
BITMAP
0180
02C0
02C0
0C30
318C
D18B
1188
2994
55AA
1188
2994
45A2
FFFF
0180
0180
0180
0180
ENDCHAR
STARTCHAR 5099
ENCODING 20633
SWIDTH 1020 0
DWIDTH 17 0
BBX 16 17 0 -2
BITMAP
1188
17FE
17FE
1188
1188
27FF
2800
69FC
AA22
2A22
2BFE
2A22
2A22
2BFE
2A22
3222
222C
ENDCHAR
STARTCHAR 509A
ENCODING 20634
SWIDTH 1020 0
DWIDTH 17 0
BBX 16 17 0 -2
BITMAP
1210
1210
1210
1210
1FD0
25BF
25A2
68D2
B5B2
2594
2594
2208
2208
2594
24D4
2822
30C1
ENDCHAR
STARTCHAR 50AC
ENCODING 20652
SWIDTH 1020 0
DWIDTH 17 0
BBX 16 17 0 -2
BITMAP
1422
1422
1422
13FC
2210
2220
27FF
6420
AC20
37FE
2420
2420
27FE
2420
2420
23FF
2000
ENDCHAR
STARTCHAR 50AD
ENCODING 20653
SWIDTH 1020 0
DWIDTH 17 0
BBX 16 17 0 -2
BITMAP
1010
13FF
13FF
1410
15FC
2412
27FF
6412
A5FC
2410
24FC
2592
25FE
2992
29FE
3192
219C
ENDCHAR
STARTCHAR 50B2
ENCODING 20658
SWIDTH 1020 0
DWIDTH 17 0
BBX 16 17 0 -2
BITMAP
1208
1208
1208
1FF0
1210
2FFF
2222
6212
BFF4
2414
2794
24C8
24C8
28D4
2994
35A2
22C1
ENDCHAR
STARTCHAR 50B3
ENCODING 20659
SWIDTH 1020 0
DWIDTH 17 0
BBX 16 17 0 -2
BITMAP
1020
17FF
17FF
1020
13FC
2422
27FE
6422
A3FC
2020
27FF
2008
2FFF
2208
2188
2188
2030
ENDCHAR
STARTCHAR 50B4
ENCODING 20660
SWIDTH 1020 0
DWIDTH 17 0
BBX 16 17 0 -2
BITMAP
0800
0BFF
0BFF
1400
1438
24C4
24C4
6438
A400
24C4
25AA
25AA
25AA
24C4
2400
23FF
2000
ENDCHAR
STARTCHAR 50B5
ENCODING 20661
SWIDTH 1020 0
DWIDTH 17 0
BBX 16 17 0 -2
BITMAP
0820
0FFF
0FFF
1020
13FE
2020
2FFF
6000
A3FC
2402
27FE
2402
27FE
2402
23FC
2188
2E07
ENDCHAR
STARTCHAR 50B7
ENCODING 20663
SWIDTH 1020 0
DWIDTH 17 0
BBX 16 17 0 -2
BITMAP
0980
0BFE
0BFE
1200
15F8
2A04
23FC
6204
A1F8
2000
2FFF
2180
23FE
2CC9
2391
2CE2
239C
ENDCHAR
STARTCHAR 50BE
ENCODING 20670
SWIDTH 1020 0
DWIDTH 17 0
BBX 16 17 0 -2
BITMAP
1000
13FF
13FF
1010
2820
2A3C
2AC2
6AC2
ACFE
28C2
2AC2
2AFE
2AC2
2AC2
243C
2024
23C3
ENDCHAR
STARTCHAR 50C2
ENCODING 20674
SWIDTH 1020 0
DWIDTH 17 0
BBX 16 17 0 -2
BITMAP
1020
13FC
13FC
1422
1FFF
2422
23FC
6020
A3FC
2422
23FC
20C0
2FFF
2188
23F0
20CC
2F82
ENDCHAR
STARTCHAR 50C5
ENCODING 20677
SWIDTH 1020 0
DWIDTH 17 0
BBX 16 17 0 -2
BITMAP
1188
1188
1188
1FFF
1188
2000
23FC
6422
A422
23FC
2020
27FE
2020
27FE
2020
2FFF
2000
ENDCHAR
STARTCHAR 50C9
ENCODING 20681
SWIDTH 1020 0
DWIDTH 17 0
BBX 16 17 0 -2
BITMAP
0180
02C0
02C0
0420
0810
17E8
2004
DC3B
22C4
22C4
22C4
1C38
0810
0810
1428
22C4
C183
ENDCHAR
STARTCHAR 50CA
ENCODING 20682
SWIDTH 1020 0
DWIDTH 17 0
BBX 16 17 0 -2
BITMAP
1000
1FFF
1FFF
1190
27FC
2992
2992
67FC
A0C0
2FFF
2208
27F4
380B
21F0
2204
2204
21F8
ENDCHAR
STARTCHAR 50CD
ENCODING 20685
SWIDTH 1020 0
DWIDTH 17 0
BBX 16 17 0 -2
BITMAP
10E8
1F88
1F88
1208
3FE8
223E
27C9
6A29
AFE9
2A29
2A29
27C9
2209
2FF1
2212
23E2
2CCC
ENDCHAR
STARTCHAR 50CF
ENCODING 20687
SWIDTH 1020 0
DWIDTH 17 0
BBX 16 17 0 -2
BITMAP
0980
09E0
09E0
1190
1210
27FC
2C22
6422
A3FC
21C2
2E22
21D4
2E38
21D4
2E12
2011
21E0
ENDCHAR
STARTCHAR 50D1
ENCODING 20689
SWIDTH 1020 0
DWIDTH 17 0
BBX 16 17 0 -2
BITMAP
1006
17F8
17F8
10C0
1FFF
2208
25F4
7A0B
A1F0
2000
23FC
2402
24F2
258A
258A
24F2
240C
ENDCHAR
STARTCHAR 50D5
ENCODING 20693
SWIDTH 1020 0
DWIDTH 17 0
BBX 16 17 0 -2
BITMAP
14D2
12D2
12D2
12D4
1FFF
2188
20D0
6FFF
A020
27FE
2020
2020
2FFF
20D0
2188
2204
2C03
ENDCHAR
STARTCHAR 50D6
ENCODING 20694
SWIDTH 1020 0
DWIDTH 17 0
BBX 16 17 0 -2
BITMAP
1020
1020
1020
1FFF
1020
27FE
2000
63FC
A402
23FC
20D0
2FFF
2000
23FC
2402
23FC
2000
ENDCHAR
STARTCHAR 50DA
ENCODING 20698
SWIDTH 1020 0
DWIDTH 17 0
BBX 16 17 0 -2
BITMAP
1020
1020
1020
1FFF
28D1
258A
2204
65FB
BA04
23FC
2204
2204
21F8
2224
2422
2821
23C0
ENDCHAR
STARTCHAR 50DE
ENCODING 20702
SWIDTH 1020 0
DWIDTH 17 0
BBX 16 17 0 -2
BITMAP
101E
1FE4
1FE4
14C4
1228
23F0
2208
63F8
A204
2204
23FE
2401
25A9
2AD5
32D5
2402
200C
ENDCHAR
STARTCHAR 50E3
ENCODING 20707
SWIDTH 1020 0
DWIDTH 17 0
BBX 16 17 0 -2
BITMAP
1208
1208
1208
17DE
1208
2FFF
2208
6594
A5A4
28C3
31F8
2204
23FC
2204
2204
21F8
2000
ENDCHAR
STARTCHAR 50E5
ENCODING 20709
SWIDTH 1020 0
DWIDTH 17 0
BBX 16 17 0 -2
BITMAP
0820
0820
0820
13FC
1020
27FE
2208
6FDE
A208
2FFF
2000
2FFF
2190
2190
2191
2211
2C0E
ENDCHAR
STARTCHAR 50E7
ENCODING 20711
SWIDTH 1020 0
DWIDTH 17 0
BBX 16 17 0 -2
BITMAP
1208
1188
1188
10D0
17FE
2821
2FFF
6821
A7FE
2000
23FC
2402
27FE
2402
2402
23FC
2000
ENDCHAR
STARTCHAR 50ED
ENCODING 20717
SWIDTH 1020 0
DWIDTH 17 0
BBX 16 17 0 -2
BITMAP
1188
1188
1188
17BE
15A8
2FFF
2228
66D4
ABA7
3000
21F8
2204
23FC
2204
2204
21F8
2000
ENDCHAR
STARTCHAR 50EE
ENCODING 20718
SWIDTH 1020 0
DWIDTH 17 0
BBX 16 17 0 -2
BITMAP
0820
0820
0820
17FE
1188
2FFF
2000
61F8
A224
23FC
2224
21F8
2020
27FE
2020
2FFF
2000
ENDCHAR
STARTCHAR 50F5
ENCODING 20725
SWIDTH 1020 0
DWIDTH 17 0
BBX 16 17 0 -2
BITMAP
1000
1FFF
1FFF
1000
11F8
2224
23FC
6224
AFFF
2224
23FC
2224
2224
21F8
2000
2FFF
2000
ENDCHAR
STARTCHAR 50F9
ENCODING 20729
SWIDTH 1020 0
DWIDTH 17 0
BBX 16 17 0 -2
BITMAP
1000
1FFF
1FFF
1190
17FE
2991
27FE
6000
A3FC
2402
27FE
2402
27FE
2402
23FC
2188
2E07
ENDCHAR
STARTCHAR 50FB
ENCODING 20731
SWIDTH 1020 0
DWIDTH 17 0
BBX 16 17 0 -2
BITMAP
1008
1388
1388
14C8
14FF
24D2
24D2
6792
A414
24FF
2B88
2CC8
34FF
24C8
24C8
2388
2008
ENDCHAR
STARTCHAR 5100
ENCODING 20736
SWIDTH 1020 0
DWIDTH 17 0
BBX 16 17 0 -2
BITMAP
1204
1188
1188
1FFF
2020
27FE
2020
6FFF
A0D4
2F92
2192
2FFF
2194
23D4
2D89
2195
26E2
ENDCHAR
STARTCHAR 5101
ENCODING 20737
SWIDTH 1020 0
DWIDTH 17 0
BBX 16 17 0 -2
BITMAP
0990
0990
0990
13FE
1620
2BFC
2220
63FC
A220
23FE
2000
260E
2991
2991
28E1
2801
2806
ENDCHAR
STARTCHAR 5102
ENCODING 20738
SWIDTH 1020 0
DWIDTH 17 0
BBX 16 17 0 -2
BITMAP
10D0
13FC
13FC
14D2
27FE
24D2
23FC
6000
A3FF
2400
25FC
2400
27FF
2992
298A
31E4
2603
ENDCHAR
STARTCHAR 5104
ENCODING 20740
SWIDTH 1020 0
DWIDTH 17 0
BBX 16 17 0 -2
BITMAP
10C0
10C0
10C0
1FFE
2208
2190
3FFF
6000
A3F8
2404
27FC
2404
23F8
20D2
22C9
22C5
2C38
ENDCHAR
STARTCHAR 5109
ENCODING 20745
SWIDTH 1020 0
DWIDTH 17 0
BBX 16 17 0 -2
BITMAP
08C0
09A0
09A0
1190
1208
25F4
2803
738C
A4D2
24D2
24D2
238C
2208
2208
2594
28D2
3021
ENDCHAR
STARTCHAR 5112
ENCODING 20754
SWIDTH 1020 0
DWIDTH 17 0
BBX 16 17 0 -2
BITMAP
1000
17FE
17FE
1020
27FE
2821
2BAD
6020
A3AC
2000
2FFF
20C0
27FE
2991
2991
2991
2996
ENDCHAR
STARTCHAR 5114
ENCODING 20756
SWIDTH 1020 0
DWIDTH 17 0
BBX 16 17 0 -2
BITMAP
1020
17FE
17FE
1020
13FC
2000
2FFF
6002
A7FC
2020
2FFF
2004
2FFF
29A4
2994
2614
2018
ENDCHAR
STARTCHAR 5115
ENCODING 20757
SWIDTH 1020 0
DWIDTH 17 0
BBX 16 17 0 -2
BITMAP
1020
1FFF
1FFF
1188
10D1
2FAE
25AA
65AA
ABAD
3205
23FC
2204
23FC
2204
2204
2404
2804
ENDCHAR
STARTCHAR 5116
ENCODING 20758
SWIDTH 1020 0
DWIDTH 17 0
BBX 16 17 0 -2
BITMAP
1008
13E8
13E8
159F
17D0
24E0
24C0
67DF
A580
23E0
2000
23FC
24D2
24D2
24D2
2FFF
2000
ENDCHAR
STARTCHAR 5118
ENCODING 20760
SWIDTH 1020 0
DWIDTH 17 0
BBX 16 17 0 -2
BITMAP
08C0
08C0
08C0
17F8
10C4
2FFF
20C4
67F8
A0C0
3FFF
24D4
298A
33F9
25A4
25A4
3FFF
2000
ENDCHAR
STARTCHAR 511A
ENCODING 20762
SWIDTH 1020 0
DWIDTH 17 0
BBX 16 17 0 -2
BITMAP
1188
17FF
17FF
1188
1000
23FC
24D2
63FC
A000
27FE
28C1
29F9
2384
2CE4
2018
20E0
2780
ENDCHAR
STARTCHAR 511F
ENCODING 20767
SWIDTH 1020 0
DWIDTH 17 0
BBX 16 17 0 -2
BITMAP
1224
11A4
11A4
11A8
27FE
2801
29F9
6204
A3FC
2402
27FE
2402
27FE
2402
23FC
2188
2E07
ENDCHAR
STARTCHAR 5121
ENCODING 20769
SWIDTH 1020 0
DWIDTH 17 0
BBX 16 17 0 -2
BITMAP
0800
09F8
09F8
1224
13FC
2224
2224
61F8
A000
278E
2AD5
2AD5
2FDF
2AD5
2AD5
278E
2000
ENDCHAR
STARTCHAR 512A
ENCODING 20778
SWIDTH 1020 0
DWIDTH 17 0
BBX 16 17 0 -2
BITMAP
0800
0FFF
0FFF
10C0
11F8
2204
23FC
6204
A7FE
2AD5
2A3D
2580
21FC
26C8
2030
21CC
2E03
ENDCHAR
STARTCHAR 5132
ENCODING 20786
SWIDTH 1020 0
DWIDTH 17 0
BBX 16 17 0 -2
BITMAP
1010
1790
1790
1012
3FFE
2014
2018
6FFF
A010
2FA0
20DC
2622
29BE
29A2
29A2
261C
2000
ENDCHAR
STARTCHAR 5137
ENCODING 20791
SWIDTH 1020 0
DWIDTH 17 0
BBX 16 17 0 -2
BITMAP
1000
1FDF
1FDF
1000
2FDF
2AD5
2820
63FF
A4C8
27FE
24C9
27FE
2592
29FE
2991
31F1
278E
ENDCHAR
STARTCHAR 513A
ENCODING 20794
SWIDTH 1020 0
DWIDTH 17 0
BBX 16 17 0 -2
BITMAP
1588
1FEA
1FEA
1592
1794
223F
2FD4
6AD4
AFDF
2214
2FD4
221F
2FD4
2214
2594
28CF
3020
ENDCHAR
STARTCHAR 513B
ENCODING 20795
SWIDTH 1020 0
DWIDTH 17 0
BBX 16 17 0 -2
BITMAP
1224
11A8
11A8
13FC
158A
24F2
2000
63FC
A5AA
25AA
23FC
2020
27FE
2020
2FFF
2592
28C9
ENDCHAR
STARTCHAR 513C
ENCODING 20796
SWIDTH 1020 0
DWIDTH 17 0
BBX 16 17 0 -2
BITMAP
1000
138C
138C
14D2
138C
2000
27FF
6808
ABE8
299F
2FEA
2A2A
2BEA
2A24
2BEA
362A
2031
ENDCHAR
STARTCHAR 513F
ENCODING 20799
SWIDTH 1020 0
DWIDTH 17 0
BBX 16 17 0 -2
BITMAP
0420
0420
0420
0420
0420
0420
0420
0420
0420
0420
0420
0420
0821
0821
1021
2021
C01E
ENDCHAR
STARTCHAR 5140
ENCODING 20800
SWIDTH 1020 0
DWIDTH 17 0
BBX 16 16 0 -2
BITMAP
FFFF
FFFF
0420
0420
0420
0420
0420
0420
0420
0420
0420
0821
0821
1021
2021
C01E
ENDCHAR
STARTCHAR 5141
ENCODING 20801
SWIDTH 1020 0
DWIDTH 17 0
BBX 16 17 0 -2
BITMAP
0200
0210
0210
0408
0804
11FE
FE21
0421
0420
0420
0420
0420
0820
0821
1021
2021
C01E
ENDCHAR
STARTCHAR 5143
ENCODING 20803
SWIDTH 1020 0
DWIDTH 17 0
BBX 16 16 0 -2
BITMAP
7FFE
7FFE
0000
0000
0000
0000
FFFF
0420
0420
0420
0420
0820
0821
1021
2021
C01E
ENDCHAR
STARTCHAR 5144
ENCODING 20804
SWIDTH 1020 0
DWIDTH 17 0
BBX 16 16 0 -2
BITMAP
1FF8
1FF8
2004
2004
2004
2004
2004
1FF8
00C0
04C0
04C0
08C0
08C1
10C1
20C1
C03E
ENDCHAR
STARTCHAR 5145
ENCODING 20805
SWIDTH 1020 0
DWIDTH 17 0
BBX 16 17 0 -2
BITMAP
0180
0180
0180
0180
FFFF
0410
0408
0804
11FE
7EC2
04C0
04C0
08C0
08C1
10C1
20C1
C03E
ENDCHAR
STARTCHAR 5146
ENCODING 20806
SWIDTH 1020 0
DWIDTH 17 0
BBX 16 17 0 -2
BITMAP
04C0
04C0
04C0
44C2
24C2
24C4
24D8
04C0
0CF0
34C8
C4C4
04C2
08C0
08C1
10C1
20C1
C03E
ENDCHAR
STARTCHAR 5147
ENCODING 20807
SWIDTH 1020 0
DWIDTH 17 0
BBX 16 17 0 -2
BITMAP
4012
4C22
4C22
42C2
4182
42C2
4422
5812
4002
3FFC
0420
0420
0820
0821
1021
2021
C01E
ENDCHAR
STARTCHAR 5148
ENCODING 20808
SWIDTH 1020 0
DWIDTH 17 0
BBX 16 17 0 -2
BITMAP
0180
2180
2180
2180
3FFE
4180
4180
8180
0180
FFFF
0420
0420
0820
0821
1021
2021
C01E
ENDCHAR
STARTCHAR 5149
ENCODING 20809
SWIDTH 1020 0
DWIDTH 17 0
BBX 16 17 0 -2
BITMAP
0180
4184
4184
2184
1184
1188
1188
0180
FFFF
04C0
04C0
04C0
08C0
08C1
10C1
20C1
C03E
ENDCHAR
STARTCHAR 514B
ENCODING 20811
SWIDTH 1020 0
DWIDTH 17 0
BBX 16 17 0 -2
BITMAP
0180
0180
0180
FFFF
0180
0180
1FF8
2004
2004
2004
2004
1FF8
0420
0421
0821
3021
C01E
ENDCHAR
STARTCHAR 514C
ENCODING 20812
SWIDTH 1020 0
DWIDTH 17 0
BBX 16 17 0 -2
BITMAP
0810
0810
0810
0420
02C0
1FF8
2004
2004
2004
2004
1FF8
00C0
04C0
04C1
08C1
30C1
C03E
ENDCHAR
STARTCHAR 514D
ENCODING 20813
SWIDTH 1020 0
DWIDTH 17 0
BBX 16 17 0 -2
BITMAP
0400
0400
0400
0FE0
1010
2020
FFFC
4182
4182
4182
3FFC
04C0
04C0
04C1
08C1
30C1
C03E
ENDCHAR
STARTCHAR 514E
ENCODING 20814
SWIDTH 1020 0
DWIDTH 17 0
BBX 16 17 0 -2
BITMAP
0006
00F8
00F8
7F80
0180
0180
3FFC
4182
4182
4182
3FFC
04D0
04C8
04C5
08C5
30C1
C03E
ENDCHAR
STARTCHAR 5150
ENCODING 20816
SWIDTH 1020 0
DWIDTH 17 0
BBX 16 17 0 -2
BITMAP
4000
43FC
43FC
4402
4402
47FE
4402
4402
4402
43FC
4000
08C0
08C0
08C1
10C1
20C1
C03E
ENDCHAR
STARTCHAR 5152
ENCODING 20818
SWIDTH 1020 0
DWIDTH 17 0
BBX 16 17 0 -2
BITMAP
0380
1CF8
1CF8
2004
2004
3EFC
2004
2004
2004
1FF8
04C0
04C0
08C0
08C1
10C1
20C1
C03E
ENDCHAR
STARTCHAR 5154
ENCODING 20820
SWIDTH 1020 0
DWIDTH 17 0
BBX 16 17 0 -2
BITMAP
0200
0200
0200
07F0
0810
1020
3FFC
E182
2182
2182
1FFC
04D4
04C8
04C4
08C5
30C1
C03E
ENDCHAR
STARTCHAR 515A
ENCODING 20826
SWIDTH 1020 0
DWIDTH 17 0
BBX 16 17 0 -2
BITMAP
2184
1184
1184
0988
7FFE
8001
8001
0FF0
1008
1008
1008
0FF0
04C0
04C1
08C1
30C1
C03E
ENDCHAR
STARTCHAR 515C
ENCODING 20828
SWIDTH 1020 0
DWIDTH 17 0
BBX 16 17 0 -2
BITMAP
0200
1200
1200
67EE
8811
8811
8FF1
8811
8811
77EE
0000
0420
0420
0421
0821
1021
E01E
ENDCHAR
STARTCHAR 5162
ENCODING 20834
SWIDTH 1020 0
DWIDTH 17 0
BBX 16 17 0 -2
BITMAP
1010
1010
1010
FFFF
1010
1010
3C3C
42C2
42C2
42C2
3C3C
2828
29A8
2A29
4CC9
40C9
8386
ENDCHAR
STARTCHAR 5165
ENCODING 20837
SWIDTH 1020 0
DWIDTH 17 0
BBX 16 16 0 -2
BITMAP
3E00
3E00
0180
0180
0180
0180
0180
02C0
02C0
02C0
0420
0420
0810
1008
2004
C003
ENDCHAR
STARTCHAR 5168
ENCODING 20840
SWIDTH 1020 0
DWIDTH 17 0
BBX 16 16 0 -1
BITMAP
0180
02C0
02C0
0420
0810
1008
3FFC
C183
0180
0180
3FFC
0180
0180
0180
0180
FFFF
ENDCHAR
STARTCHAR 5169
ENCODING 20841
SWIDTH 1020 0
DWIDTH 17 0
BBX 16 16 0 -2
BITMAP
FFFF
FFFF
0180
0180
3FFC
4182
4182
51A2
4992
4992
55AA
55AA
63C6
4182
4182
418C
ENDCHAR
STARTCHAR 516A
ENCODING 20842
SWIDTH 1020 0
DWIDTH 17 0
BBX 16 17 0 -2
BITMAP
0180
02C0
02C0
0420
0810
37EC
C013
1C12
2212
3224
2A24
26C8
3224
2A24
2612
2212
2C12
ENDCHAR
STARTCHAR 516B
ENCODING 20843
SWIDTH 1020 0
DWIDTH 17 0
BBX 16 17 0 -2
BITMAP
04C0
04C0
04C0
04C0
04C0
04C0
04C0
0420
0420
0820
0810
0810
1008
1008
2004
4002
8001
ENDCHAR
STARTCHAR 516C
ENCODING 20844
SWIDTH 1020 0
DWIDTH 17 0
BBX 16 17 0 -2
BITMAP
0420
0420
0420
0420
0810
0810
1008
2204
4202
8401
0420
0810
1008
2004
20FC
1F82
0002
ENDCHAR
STARTCHAR 516D
ENCODING 20845
SWIDTH 1020 0
DWIDTH 17 0
BBX 16 17 0 -2
BITMAP
0180
0180
0180
0180
0180
FFFF
0000
0000
0810
0808
0804
1004
1002
2002
2001
4001
8001
ENDCHAR
STARTCHAR 516E
ENCODING 20846
SWIDTH 1020 0
DWIDTH 17 0
BBX 16 17 0 -2
BITMAP
0420
0420
0420
0810
0810
1008
2FF4
C203
0400
0400
03F0
0008
0008
0008
0008
0010
01E0
ENDCHAR
STARTCHAR 5171
ENCODING 20849
SWIDTH 1020 0
DWIDTH 17 0
BBX 16 17 0 -2
BITMAP
0810
0810
0810
0810
0810
7FFE
0810
0810
0810
0810
FFFF
0000
0000
0810
1008
2004
C003
ENDCHAR
STARTCHAR 5175
ENCODING 20853
SWIDTH 1020 0
DWIDTH 17 0
BBX 16 17 0 -2
BITMAP
0008
00F0
00F0
0F80
1000
1000
1FFE
1010
1010
1010
1010
FFFF
0000
0810
1008
2004
C003
ENDCHAR
STARTCHAR 5176
ENCODING 20854
SWIDTH 1020 0
DWIDTH 17 0
BBX 16 17 0 -2
BITMAP
0810
0810
0810
7FFE
0810
0810
0FF0
0810
0810
0FF0
0810
0810
FFFF
0000
0420
1818
E007
ENDCHAR
STARTCHAR 5177
ENCODING 20855
SWIDTH 1020 0
DWIDTH 17 0
BBX 16 16 0 -2
BITMAP
0FF0
0FF0
1008
1008
1FF8
1008
1008
1FF8
1008
1008
0FF0
0000
FFFF
0000
1818
E007
ENDCHAR
STARTCHAR 5178
ENCODING 20856
SWIDTH 1020 0
DWIDTH 17 0
BBX 16 17 0 -2
BITMAP
0420
0420
0420
0420
3FFC
4422
4422
4422
7FFE
4422
4422
4422
FFFF
0000
0810
300C
C003
ENDCHAR
STARTCHAR 517C
ENCODING 20860
SWIDTH 1020 0
DWIDTH 17 0
BBX 16 17 0 -2
BITMAP
1010
0820
0820
FFFF
04C0
7FF8
04C4
04C4
FFFF
04C4
04C4
7FF8
0CE0
14D0
14C8
24C4
C4C3
ENDCHAR
STARTCHAR 5180
ENCODING 20864
SWIDTH 1020 0
DWIDTH 17 0
BBX 16 17 0 -2
BITMAP
04C4
FCF9
FCF9
04C1
1C3E
E400
1FF8
2184
3FFC
2184
1FF8
0420
7FFE
0420
FFFF
0810
700E
ENDCHAR
STARTCHAR 5182
ENCODING 20866
SWIDTH 1020 0
DWIDTH 17 0
BBX 14 16 1 -2
BITMAP
7FF8
7FF8
8004
8004
8004
8004
8004
8004
8004
8004
8004
8004
8004
8004
8004
8038
ENDCHAR
STARTCHAR 5185
ENCODING 20869
SWIDTH 1020 0
DWIDTH 17 0
BBX 14 17 1 -2
BITMAP
0300
0300
0300
0300
7FF8
8304
8304
8584
8584
8844
9024
E01C
8004
8004
8004
8004
8038
ENDCHAR
STARTCHAR 5186
ENCODING 20870
SWIDTH 1020 0
DWIDTH 17 0
BBX 14 16 1 -2
BITMAP
7FF8
7FF8
8304
8304
8304
8304
8304
8304
FFFC
8004
8004
8004
8004
8004
8004
8038
ENDCHAR
STARTCHAR 5189
ENCODING 20873
SWIDTH 1020 0
DWIDTH 17 0
BBX 16 17 0 -2
BITMAP
0180
0180
0180
0180
1FF8
2184
2184
3FFC
2184
2184
2184
FFFF
2004
2004
2004
2004
2018
ENDCHAR
STARTCHAR 518A
ENCODING 20874
SWIDTH 1020 0
DWIDTH 17 0
BBX 16 16 0 -2
BITMAP
1FF8
1FF8
24C4
24C4
24C4
24C4
24C4
FFFF
24C4
24C4
24C4
24C4
24C4
24C4
24C4
2038
ENDCHAR
STARTCHAR 518C
ENCODING 20876
SWIDTH 1020 0
DWIDTH 17 0
BBX 16 16 0 -2
BITMAP
1C1C
1C1C
2222
2222
2222
2222
2222
FFFF
2222
2222
2222
2222
2222
42C2
42C2
8D8C
ENDCHAR
STARTCHAR 518D
ENCODING 20877
SWIDTH 1020 0
DWIDTH 17 0
BBX 16 16 0 -2
BITMAP
FFFF
FFFF
0180
0180
1FF8
2184
2184
3FFC
2184
2184
FFFF
2004
2004
2004
2004
2038
ENDCHAR
STARTCHAR 518F
ENCODING 20879
SWIDTH 1020 0
DWIDTH 17 0
BBX 14 16 1 -2
BITMAP
7FF8
7FF8
8984
8984
8984
9184
E07C
8004
8FC4
9024
9024
9024
8FC4
8004
8004
8038
ENDCHAR
STARTCHAR 5190
ENCODING 20880
SWIDTH 1020 0
DWIDTH 17 0
BBX 16 16 0 -2
BITMAP
7FFE
7FFE
8001
BFFD
8001
BFFD
8001
0000
1FF8
2004
3FFC
2004
3FFC
2004
2004
2038
ENDCHAR
STARTCHAR 5191
ENCODING 20881
SWIDTH 1020 0
DWIDTH 17 0
BBX 14 17 1 -2
BITMAP
0300
0300
0300
7FF8
8304
FFFC
8304
7FF8
0000
3FF0
4008
5FE8
4008
5FE8
4008
4008
4070
ENDCHAR
STARTCHAR 5192
ENCODING 20882
SWIDTH 1020 0
DWIDTH 17 0
BBX 13 15 2 -1
BITMAP
7FF0
7FF0
8008
FFF8
8008
7FF0
0000
3FE0
4010
7FF0
4010
7FF0
4010
4010
3FE0
ENDCHAR
STARTCHAR 5193
ENCODING 20883
SWIDTH 1020 0
DWIDTH 17 0
BBX 16 17 0 -2
BITMAP
0420
0420
0420
7FFE
0420
3FFC
0420
FFFF
0180
1FF8
2184
3FFC
2184
FFFF
2004
2004
2038
ENDCHAR
STARTCHAR 5195
ENCODING 20885
SWIDTH 1020 0
DWIDTH 17 0
BBX 16 16 0 -2
BITMAP
3FFC
3FFC
4002
5FFA
4002
5FFA
0400
0FE0
10C0
FFFC
2182
2182
1FFC
04C1
18C1
E03E
ENDCHAR
STARTCHAR 5196
ENCODING 20886
SWIDTH 1020 0
DWIDTH 17 0
BBX 16 5 0 4
BITMAP
7FFE
8001
8001
8001
8001
ENDCHAR
STARTCHAR 5197
ENCODING 20887
SWIDTH 1020 0
DWIDTH 17 0
BBX 16 16 0 -2
BITMAP
7FFE
7FFE
8001
8001
0000
07E0
0810
0810
0810
0810
0810
0811
1011
1011
2011
C00E
ENDCHAR
STARTCHAR 5199
ENCODING 20889
SWIDTH 1020 0
DWIDTH 17 0
BBX 16 16 0 -2
BITMAP
7FFE
7FFE
9001
9001
1FF8
1000
1000
0FF0
0008
0008
FFFF
0008
0010
0010
0020
03C0
ENDCHAR
STARTCHAR 51A0
ENCODING 20896
SWIDTH 1020 0
DWIDTH 17 0
BBX 16 16 0 -2
BITMAP
7FFE
7FFE
8001
8005
7E04
0004
01FF
FE04
28C4
2824
2824
2804
2805
4839
4801
87FE
ENDCHAR
STARTCHAR 51A2
ENCODING 20898
SWIDTH 1020 0
DWIDTH 17 0
BBX 16 16 0 -2
BITMAP
7FFE
7FFE
8001
8001
3FFC
0200
1C04
E208
0790
18E0
E1D0
06C8
18C4
E0C3
0980
0600
ENDCHAR
STARTCHAR 51A4
ENCODING 20900
SWIDTH 1020 0
DWIDTH 17 0
BBX 16 16 0 -2
BITMAP
7FFE
7FFE
8201
83F1
8411
0820
1FFC
E182
2182
2182
1FFC
04D0
04C9
08C9
30C1
C03E
ENDCHAR
STARTCHAR 51A5
ENCODING 20901
SWIDTH 1020 0
DWIDTH 17 0
BBX 16 16 0 -2
BITMAP
7FFE
7FFE
8001
8FF1
1008
1008
1FF8
1008
1008
0FF0
0180
FFFF
0000
0420
1818
E007
ENDCHAR
STARTCHAR 51A6
ENCODING 20902
SWIDTH 1020 0
DWIDTH 17 0
BBX 16 16 0 -2
BITMAP
7FFE
7FFE
8001
8021
7C20
003E
0020
FE20
29FE
2822
2814
2818
28E6
4B81
4801
87FE
ENDCHAR
STARTCHAR 51A8
ENCODING 20904
SWIDTH 1020 0
DWIDTH 17 0
BBX 16 15 0 -1
BITMAP
7FFE
7FFE
8001
BFFD
0000
0FF0
1008
0FF0
0000
1FF8
2184
3FFC
2184
2184
1FF8
ENDCHAR
STARTCHAR 51A9
ENCODING 20905
SWIDTH 1020 0
DWIDTH 17 0
BBX 16 16 0 -2
BITMAP
7FFE
7FFE
8001
8381
1CF0
2008
3EF8
2008
1FF0
0800
1FFE
2221
C991
14D1
24C2
200C
ENDCHAR
STARTCHAR 51AA
ENCODING 20906
SWIDTH 1020 0
DWIDTH 17 0
BBX 16 16 0 -2
BITMAP
7FFE
7FFE
8421
BFFD
0420
0FF0
1008
1FF8
1008
FFFF
0990
1FF8
318C
D18B
11B0
0180
ENDCHAR
STARTCHAR 51AB
ENCODING 20907
SWIDTH 1020 0
DWIDTH 17 0
BBX 8 17 4 -2
BITMAP
40
20
20
18
18
18
00
01
02
02
0C
18
18
20
40
40
80
ENDCHAR
STARTCHAR 51AC
ENCODING 20908
SWIDTH 1020 0
DWIDTH 17 0
BBX 16 17 0 -2
BITMAP
0400
0400
0400
07F0
0808
1810
2420
C2C0
0180
06E0
1818
E787
00E0
0010
1E00
01E0
0018
ENDCHAR
STARTCHAR 51B0
ENCODING 20912
SWIDTH 1020 0
DWIDTH 17 0
BBX 16 17 0 -2
BITMAP
40C0
20C0
20C0
20C0
20C2
0CE2
02E4
02D8
12D0
22D0
22C8
24C8
44C4
48C4
B0C3
80C0
8380
ENDCHAR
STARTCHAR 51B1
ENCODING 20913
SWIDTH 1020 0
DWIDTH 17 0
BBX 16 17 0 -2
BITMAP
4000
2FFF
2FFF
2180
2180
0180
01F8
1204
1204
1204
2204
21FC
2004
4004
4004
9FFF
8000
ENDCHAR
STARTCHAR 51B2
ENCODING 20914
SWIDTH 1020 0
DWIDTH 17 0
BBX 16 17 0 -2
BITMAP
4020
2020
2020
2020
2020
03FE
0421
0421
1421
1421
2421
23FE
2020
4020
4020
8020
8020
ENDCHAR
STARTCHAR 51B3
ENCODING 20915
SWIDTH 1020 0
DWIDTH 17 0
BBX 16 17 0 -2
BITMAP
40C0
20C0
20C0
10C0
17F8
00C4
00C4
10C4
10C4
2FFF
21A0
21A0
4210
4210
8408
8804
3003
ENDCHAR
STARTCHAR 51B4
ENCODING 20916
SWIDTH 1020 0
DWIDTH 17 0
BBX 16 17 0 -2
BITMAP
4000
2FFF
2FFF
2184
2184
0184
0184
1FFF
2014
2024
2024
20C4
4184
4204
4404
98C4
8038
ENDCHAR
STARTCHAR 51B5
ENCODING 20917
SWIDTH 1020 0
DWIDTH 17 0
BBX 16 17 0 -2
BITMAP
4000
23F8
23F8
2404
2404
0404
0404
0404
13F8
1190
2190
2190
2210
4211
4411
8811
B00E
ENDCHAR
STARTCHAR 51B6
ENCODING 20918
SWIDTH 1020 0
DWIDTH 17 0
BBX 16 17 0 -2
BITMAP
4180
2180
2180
2210
2208
0404
0802
083E
27C1
2001
23F8
4404
4404
4404
4404
83F8
8000
ENDCHAR
STARTCHAR 51B7
ENCODING 20919
SWIDTH 1020 0
DWIDTH 17 0
BBX 16 17 0 -2
BITMAP
40C0
20C0
20C0
21A0
2190
0208
05F4
1803
2000
2FFC
20C2
40C2
40C2
40C2
40DC
80C0
80C0
ENDCHAR
STARTCHAR 51BD
ENCODING 20925
SWIDTH 1020 0
DWIDTH 17 0
BBX 16 17 0 -2
BITMAP
4001
2FF1
2FF1
2209
2209
03C9
0229
1429
1429
26C9
29C9
3189
4189
4201
4401
8801
9006
ENDCHAR
STARTCHAR 51C4
ENCODING 20932
SWIDTH 1020 0
DWIDTH 17 0
BBX 16 17 0 -2
BITMAP
40C0
20C0
20C0
2FFF
20C0
0FF8
00C4
1FFF
20C4
2FF8
2180
5FFF
4208
4790
80F0
838C
1C02
ENDCHAR
STARTCHAR 51C5
ENCODING 20933
SWIDTH 1020 0
DWIDTH 17 0
BBX 16 17 0 -2
BITMAP
4000
23FE
23FE
2421
2421
0421
07FF
1421
1421
24F9
2585
2585
4585
44F9
4401
83FE
8000
ENDCHAR
STARTCHAR 51C6
ENCODING 20934
SWIDTH 1020 0
DWIDTH 17 0
BBX 16 17 0 -2
BITMAP
4200
2210
2210
2210
2420
07FF
0C20
1420
27FE
2420
2420
27FE
4420
4420
4420
83FF
8000
ENDCHAR
STARTCHAR 51C9
ENCODING 20937
SWIDTH 1020 0
DWIDTH 17 0
BBX 16 17 0 -2
BITMAP
4020
2020
2020
2020
2FFF
0000
03FC
0402
1402
2402
23FC
2020
4424
4422
4821
9021
81C0
ENDCHAR
STARTCHAR 51CB
ENCODING 20939
SWIDTH 1020 0
DWIDTH 17 0
BBX 15 17 0 -2
BITMAP
4000
23FC
23FC
2422
2422
05FA
0422
1422
15FA
1402
24F2
258A
258A
458A
48F2
8802
B01C
ENDCHAR
STARTCHAR 51CC
ENCODING 20940
SWIDTH 1020 0
DWIDTH 17 0
BBX 16 17 0 -2
BITMAP
40C0
20C0
20C0
2FFE
20C0
00C0
1FFF
0190
2210
2D8F
21F0
4208
4588
48D0
4020
81D8
8E07
ENDCHAR
STARTCHAR 51CD
ENCODING 20941
SWIDTH 1020 0
DWIDTH 17 0
BBX 16 17 0 -2
BITMAP
00C0
80C0
80C0
5FFF
20C0
27FC
08C2
08C2
2FFE
28C2
28C2
47FC
41E0
42D0
84C8
88C4
30C3
ENDCHAR
STARTCHAR 51D6
ENCODING 20950
SWIDTH 1020 0
DWIDTH 17 0
BBX 16 17 0 -2
BITMAP
4210
2220
2220
27FE
0C20
17FC
1420
27FC
2420
43FE
4180
0180
FFFF
0180
0180
0180
0180
ENDCHAR
STARTCHAR 51DB
ENCODING 20955
SWIDTH 1020 0
DWIDTH 17 0
BBX 16 17 0 -2
BITMAP
4020
2FFF
2FFF
2000
23FC
058A
04F2
1402
13FC
2000
27FE
2000
4FFF
4020
4224
8422
99C1
ENDCHAR
STARTCHAR 51DC
ENCODING 20956
SWIDTH 1020 0
DWIDTH 17 0
BBX 16 17 0 -2
BITMAP
0020
8020
8020
4FFF
2000
23FC
0402
14F2
158A
23FC
2018
21E0
4FFF
40F0
41A8
8224
8C23
ENDCHAR
STARTCHAR 51DD
ENCODING 20957
SWIDTH 1020 0
DWIDTH 17 0
BBX 16 17 0 -2
BITMAP
48C0
2BBC
2BBC
2CC2
28D2
0794
08FE
2809
2FE9
2A2A
3228
5FEF
4228
45A8
45B8
88C8
9187
ENDCHAR
STARTCHAR 51E0
ENCODING 20960
SWIDTH 1020 0
DWIDTH 17 0
BBX 16 16 0 -2
BITMAP
07E0
07E0
0810
0810
0810
0810
0810
0810
0810
0810
0810
0811
1011
1011
2011
C00E
ENDCHAR
STARTCHAR 51E1
ENCODING 20961
SWIDTH 1020 0
DWIDTH 17 0
BBX 16 16 0 -2
BITMAP
0FE0
0FE0
1010
1010
1010
1410
1210
1210
1190
1190
1190
1011
2011
2011
4011
800E
ENDCHAR
STARTCHAR 51E6
ENCODING 20966
SWIDTH 1020 0
DWIDTH 17 0
BBX 16 17 0 -2
BITMAP
2000
2030
2030
20C8
38C8
24C8
24C8
44C8
44C8
A8C8
28C9
1189
1189
2A09
2406
4380
80FF
ENDCHAR
STARTCHAR 51E7
ENCODING 20967
SWIDTH 1020 0
DWIDTH 17 0
BBX 16 16 0 -2
BITMAP
1FF8
1FF8
2004
2184
2184
27E4
2994
2994
2994
2994
2994
2995
2995
49E5
4185
8182
ENDCHAR
STARTCHAR 51E9
ENCODING 20969
SWIDTH 1020 0
DWIDTH 17 0
BBX 16 16 0 -2
BITMAP
1FF8
1FF8
2004
2184
2184
2184
2FF4
2184
23C4
25A4
25A4
2994
2994
4182
4182
8001
ENDCHAR
STARTCHAR 51EA
ENCODING 20970
SWIDTH 1020 0
DWIDTH 17 0
BBX 16 16 0 -2
BITMAP
1FF8
1FF8
2004
2184
2584
2584
25F4
2584
2584
2584
2584
2585
2585
5FFD
4005
8002
ENDCHAR
STARTCHAR 51ED
ENCODING 20973
SWIDTH 1020 0
DWIDTH 17 0
BBX 16 17 0 -2
BITMAP
080E
0BF0
0BF0
1020
37FF
5020
9020
13FE
1000
07E0
0810
0810
0810
0811
1011
2011
C00E
ENDCHAR
STARTCHAR 51F0
ENCODING 20976
SWIDTH 1020 0
DWIDTH 17 0
BBX 16 16 0 -2
BITMAP
1FF8
1FF8
2184
2184
23C4
2424
27E4
2424
23C4
2004
2FF4
2184
27E4
4182
5FFA
8001
ENDCHAR
STARTCHAR 51F1
ENCODING 20977
SWIDTH 1020 0
DWIDTH 17 0
BBX 16 17 0 -2
BITMAP
0800
4998
4998
49A4
3E24
0024
FFE4
0024
3E24
41A4
41A4
3E24
4225
25A5
2EC5
F0C5
0382
ENDCHAR
STARTCHAR 51F5
ENCODING 20981
SWIDTH 1020 0
DWIDTH 17 0
BBX 14 16 1 -1
BITMAP
8004
8004
8004
8004
8004
8004
8004
8004
8004
8004
8004
8004
8004
8004
8004
7FF8
ENDCHAR
STARTCHAR 51F6
ENCODING 20982
SWIDTH 1020 0
DWIDTH 17 0
BBX 14 16 1 -1
BITMAP
0020
8024
8024
8024
9044
8844
8584
8304
8384
8444
8444
8824
9014
A014
8004
7FF8
ENDCHAR
STARTCHAR 51F8
ENCODING 20984
SWIDTH 1020 0
DWIDTH 17 0
BBX 14 15 1 -1
BITMAP
0780
0780
0840
0840
0840
0840
0840
7038
8004
8004
8004
8004
8004
8004
7FF8
ENDCHAR
STARTCHAR 51F9
ENCODING 20985
SWIDTH 1020 0
DWIDTH 17 0
BBX 14 15 1 -1
BITMAP
7038
7038
8844
8844
8844
8844
8844
8844
8844
8784
8004
8004
8004
8004
7FF8
ENDCHAR
STARTCHAR 51FA
ENCODING 20986
SWIDTH 1020 0
DWIDTH 17 0
BBX 14 16 1 -1
BITMAP
0300
4308
4308
4308
4308
4308
4308
3FF0
0300
0300
8304
8304
8304
8304
8304
7FF8
ENDCHAR
STARTCHAR 51FD
ENCODING 20989
SWIDTH 1020 0
DWIDTH 17 0
BBX 16 15 0 -1
BITMAP
FFFF
FFFF
0400
0400
438A
58CA
44D2
44C2
41E2
46D2
58CA
40CA
4782
4002
3FFC
ENDCHAR
STARTCHAR 51FE
ENCODING 20990
SWIDTH 1020 0
DWIDTH 17 0
BBX 14 15 1 -1
BITMAP
7FE0
7FE0
0020
0440
8384
9304
ABE4
AB94
AB64
AB24
9354
8394
8C14
8004
7FF8
ENDCHAR
STARTCHAR 5200
ENCODING 20992
SWIDTH 1020 0
DWIDTH 17 0
BBX 15 16 0 -2
BITMAP
FFFC
FFFC
0202
0202
0202
0202
0202
0202
0202
0402
0402
0802
0804
1004
2188
C0F0
ENDCHAR
STARTCHAR 5203
ENCODING 20995
SWIDTH 1020 0
DWIDTH 17 0
BBX 15 16 0 -2
BITMAP
FFFC
FFFC
0202
0202
1202
0A02
0602
0202
0382
02C2
04C2
0422
0824
1004
2188
C0F0
ENDCHAR
STARTCHAR 5204
ENCODING 20996
SWIDTH 1020 0
DWIDTH 17 0
BBX 16 14 0 -2
BITMAP
7FF8
0184
1184
0984
0984
0604
0204
0388
04E8
041C
0813
1010
2620
C1C0
ENDCHAR
STARTCHAR 5206
ENCODING 20998
SWIDTH 1020 0
DWIDTH 17 0
BBX 16 17 0 -2
BITMAP
04C0
04C0
04C0
0420
0820
0810
1008
2004
DFFB
0204
0204
0204
0404
0404
0808
3188
C0F0
ENDCHAR
STARTCHAR 5207
ENCODING 20999
SWIDTH 1020 0
DWIDTH 17 0
BBX 16 17 0 -2
BITMAP
2000
2000
2000
27FE
2021
2621
3821
E021
2021
2021
2221
2221
22C1
1CC2
0182
0204
0C38
ENDCHAR
STARTCHAR 5208
ENCODING 21000
SWIDTH 1020 0
DWIDTH 17 0
BBX 15 17 0 -2
BITMAP
0202
0212
0212
0212
0212
C212
2212
1412
0C12
0412
0A12
0992
1182
20C2
40C2
8002
001C
ENDCHAR
STARTCHAR 520A
ENCODING 21002
SWIDTH 1020 0
DWIDTH 17 0
BBX 16 17 0 -2
BITMAP
0001
7F91
7F91
0811
0811
0811
0811
0811
FFD1
0811
0811
0811
0811
0801
0801
0801
080E
ENDCHAR
STARTCHAR 520B
ENCODING 21003
SWIDTH 1020 0
DWIDTH 17 0
BBX 15 17 0 -2
BITMAP
01C2
0E02
0E02
F822
0822
0822
0822
FFE2
0822
0822
0822
0822
1022
1002
2002
4002
800C
ENDCHAR
STARTCHAR 520E
ENCODING 21006
SWIDTH 1020 0
DWIDTH 17 0
BBX 15 17 0 -2
BITMAP
1002
1002
1002
2012
3F92
52D2
92D2
24D2
24D2
48D2
88D2
1192
2182
4202
0202
2402
180C
ENDCHAR
STARTCHAR 5211
ENCODING 21009
SWIDTH 1020 0
DWIDTH 17 0
BBX 16 17 0 -2
BITMAP
0001
FFD1
FFD1
2211
2211
2211
2211
2211
FFF1
2211
2211
2211
2211
2211
4201
4201
820E
ENDCHAR
STARTCHAR 5214
ENCODING 21012
SWIDTH 1020 0
DWIDTH 17 0
BBX 15 17 0 -2
BITMAP
0802
0802
0802
0812
7F92
08D2
08D2
08D2
FFF2
0812
0812
1412
1212
2182
2182
4002
800C
ENDCHAR
STARTCHAR 5217
ENCODING 21015
SWIDTH 1020 0
DWIDTH 17 0
BBX 16 17 0 -2
BITMAP
0001
FFD1
FFD1
1011
1011
1E11
1191
2191
2191
5211
8A11
0411
0411
0801
1001
2001
C00E
ENDCHAR
STARTCHAR 521D
ENCODING 21021
SWIDTH 1020 0
DWIDTH 17 0
BBX 16 17 0 -2
BITMAP
1000
1000
1000
17FE
F821
0421
0421
0821
1621
3821
5421
94C1
10C1
10C2
1182
1204
1C38
ENDCHAR
STARTCHAR 5224
ENCODING 21028
SWIDTH 1020 0
DWIDTH 17 0
BBX 16 17 0 -2
BITMAP
0801
4991
4991
4991
2991
2A11
0811
7F91
0811
0811
0811
FFD1
0811
0801
0801
0801
080E
ENDCHAR
STARTCHAR 5225
ENCODING 21029
SWIDTH 1020 0
DWIDTH 17 0
BBX 16 17 0 -2
BITMAP
0001
3E11
3E11
4191
4191
4191
4191
3E11
1011
1011
1E11
1191
1191
2181
2181
4201
9C0E
ENDCHAR
STARTCHAR 5227
ENCODING 21031
SWIDTH 1020 0
DWIDTH 17 0
BBX 15 17 0 -2
BITMAP
1000
1000
1000
11FC
7E22
1022
1022
1022
FFA2
1022
2822
2422
44C2
9AC2
E2C4
01A4
0618
ENDCHAR
STARTCHAR 5229
ENCODING 21033
SWIDTH 1020 0
DWIDTH 17 0
BBX 16 17 0 -2
BITMAP
00C1
0791
0791
F811
0811
0811
FFD1
0811
1C11
1A11
2991
2991
4811
8801
0801
0801
080E
ENDCHAR
STARTCHAR 522A
ENCODING 21034
SWIDTH 1020 0
DWIDTH 17 0
BBX 16 17 0 -2
BITMAP
0001
3FC9
3FC9
4A29
4A29
4A29
4A29
4A29
FFF9
4A29
4A29
4A29
4A29
4A21
4A21
4A21
41C6
ENDCHAR
STARTCHAR 522E
ENCODING 21038
SWIDTH 1020 0
DWIDTH 17 0
BBX 15 17 0 -2
BITMAP
01C2
0E02
0E02
F812
0812
0812
FFD2
0812
0812
0812
3E12
4192
4192
4182
4182
3E02
000C
ENDCHAR
STARTCHAR 5230
ENCODING 21040
SWIDTH 1020 0
DWIDTH 17 0
BBX 16 17 0 -2
BITMAP
0001
FFD1
FFD1
2011
4411
8211
8F91
7191
1011
1011
FF91
1011
1011
1001
1F81
F001
000E
ENDCHAR
STARTCHAR 5233
ENCODING 21043
SWIDTH 1020 0
DWIDTH 17 0
BBX 15 17 0 -2
BITMAP
0802
0802
0802
FFD2
1412
2212
4192
BED2
0012
FFD2
2012
2012
1E12
0182
0182
0202
1C0C
ENDCHAR
STARTCHAR 5236
ENCODING 21046
SWIDTH 1020 0
DWIDTH 17 0
BBX 16 17 0 -2
BITMAP
4801
4811
4811
7FD1
4811
8811
FFD1
0811
0811
3F91
48D1
48D1
48D1
48D1
4F81
0801
080E
ENDCHAR
STARTCHAR 5237
ENCODING 21047
SWIDTH 1020 0
DWIDTH 17 0
BBX 16 17 0 -2
BITMAP
0001
3FC9
3FC9
4029
4029
4029
7FC9
4209
4209
4FC9
5229
5229
5229
5221
53C1
8201
020E
ENDCHAR
STARTCHAR 5238
ENCODING 21048
SWIDTH 1020 0
DWIDTH 17 0
BBX 16 17 0 -2
BITMAP
1188
0988
0988
0990
7FFE
02C0
0420
FFFF
0810
1008
3FF4
C20B
0208
0408
0408
1A10
61E0
ENDCHAR
STARTCHAR 5239
ENCODING 21049
SWIDTH 1020 0
DWIDTH 17 0
BBX 15 17 0 -2
BITMAP
0202
6202
6202
1412
0C12
1212
2992
C992
0812
FFD2
0812
1C12
2A12
4982
8982
0802
080C
ENDCHAR
STARTCHAR 523A
ENCODING 21050
SWIDTH 1020 0
DWIDTH 17 0
BBX 16 17 0 -2
BITMAP
0801
0811
0811
FFD1
0811
0811
3F91
48D1
48D1
48D1
4B91
1C11
2A11
2981
4981
8801
080E
ENDCHAR
STARTCHAR 523B
ENCODING 21051
SWIDTH 1020 0
DWIDTH 17 0
BBX 16 17 0 -2
BITMAP
0801
0811
0811
0811
FFF1
0811
5211
2211
1411
0991
1191
2211
C411
0A01
1181
20C1
C0CE
ENDCHAR
STARTCHAR 5243
ENCODING 21059
SWIDTH 1020 0
DWIDTH 17 0
BBX 16 17 0 -2
BITMAP
4201
2209
2209
2409
FF89
08C9
08C9
7F89
8809
8809
7FC9
1829
2829
2821
48C1
8F81
080E
ENDCHAR
STARTCHAR 5244
ENCODING 21060
SWIDTH 1020 0
DWIDTH 17 0
BBX 15 17 0 -2
BITMAP
0002
FFC2
FFC2
24D2
24D2
4992
9212
4992
24D2
24D2
FFD2
0812
0812
09C2
0E02
F002
000C
ENDCHAR
STARTCHAR 5247
ENCODING 21063
SWIDTH 1020 0
DWIDTH 17 0
BBX 16 17 0 -2
BITMAP
0001
3E11
3E11
4191
4191
7F91
4191
4191
7F91
4191
4191
4191
3E11
0401
2201
4181
818E
ENDCHAR
STARTCHAR 524A
ENCODING 21066
SWIDTH 1020 0
DWIDTH 17 0
BBX 16 17 0 -2
BITMAP
88C1
48D1
48D1
4991
0811
3E11
4191
4191
7F91
4191
4191
7F91
4191
4181
4181
4181
4E0E
ENDCHAR
STARTCHAR 524B
ENCODING 21067
SWIDTH 1020 0
DWIDTH 17 0
BBX 16 17 0 -2
BITMAP
0802
0802
0802
FFD2
0812
0812
3E12
4192
4192
4192
3E12
1402
1402
240C
2401
4401
83FE
ENDCHAR
STARTCHAR 524C
ENCODING 21068
SWIDTH 1020 0
DWIDTH 17 0
BBX 15 17 0 -2
BITMAP
0802
0802
0802
FFD2
0812
3E12
4992
4992
4992
3E12
0812
1C12
2A12
2982
4982
8802
080C
ENDCHAR
STARTCHAR 524D
ENCODING 21069
SWIDTH 1020 0
DWIDTH 17 0
BBX 16 17 0 -2
BITMAP
0810
0420
0420
FFFF
0000
3C02
4222
4222
7E22
4222
4222
7E22
4222
4202
4202
4202
5C1C
ENDCHAR
STARTCHAR 524F
ENCODING 21071
SWIDTH 1020 0
DWIDTH 17 0
BBX 16 17 0 -2
BITMAP
4400
4400
4400
29FC
FF92
2412
24D2
24D2
24D2
FFA2
2422
2432
24CC
24C7
4584
45A4
8618
ENDCHAR
STARTCHAR 5254
ENCODING 21076
SWIDTH 1020 0
DWIDTH 17 0
BBX 15 17 0 -2
BITMAP
0002
3E02
3E02
4192
7F92
4192
4192
3E12
1012
3F92
CAD2
12D2
64D2
08C2
1182
6982
060C
ENDCHAR
STARTCHAR 5256
ENCODING 21078
SWIDTH 1020 0
DWIDTH 17 0
BBX 16 17 0 -2
BITMAP
0801
0811
0811
7F91
2211
2211
1411
FFD1
0011
0011
3E11
4191
4191
4181
4181
3E01
000E
ENDCHAR
STARTCHAR 525B
ENCODING 21083
SWIDTH 1020 0
DWIDTH 17 0
BBX 15 17 0 -2
BITMAP
0002
7F92
7F92
80D2
A2D2
92D2
94D2
FFD2
88D2
AAD2
AAD2
AAD2
AAD2
AAC2
9CC2
80C2
879C
ENDCHAR
STARTCHAR 525E
ENCODING 21086
SWIDTH 1020 0
DWIDTH 17 0
BBX 15 17 0 -2
BITMAP
0802
0802
0802
FFD2
0812
1412
2212
4192
FFF2
0192
3192
4992
4992
4982
3182
0182
060C
ENDCHAR
STARTCHAR 5263
ENCODING 21091
SWIDTH 1020 0
DWIDTH 17 0
BBX 16 17 0 -2
BITMAP
0801
0809
0809
1409
2209
5D89
88E9
3F89
48C9
48C9
48C9
3F89
0809
1401
1201
2181
C18E
ENDCHAR
STARTCHAR 5264
ENCODING 21092
SWIDTH 1020 0
DWIDTH 17 0
BBX 16 17 0 -2
BITMAP
0801
0809
0809
FFE9
2189
1209
0C09
3389
E1E9
3F89
2189
2189
3F89
2181
2181
4181
818E
ENDCHAR
STARTCHAR 5265
ENCODING 21093
SWIDTH 1020 0
DWIDTH 17 0
BBX 16 17 0 -2
BITMAP
0001
7E11
7E11
0191
7F91
0191
0191
FFF1
0411
44D1
24D1
2591
0E11
3591
C4C1
0421
380E
ENDCHAR
STARTCHAR 5269
ENCODING 21097
SWIDTH 1020 0
DWIDTH 17 0
BBX 15 17 0 -2
BITMAP
03C2
FC02
FC02
0812
FFD2
0812
2AD2
EB92
2A12
6AD2
A9D2
1C12
2A12
2982
48C2
8802
080C
ENDCHAR
STARTCHAR 526A
ENCODING 21098
SWIDTH 1020 0
DWIDTH 17 0
BBX 16 17 0 -2
BITMAP
0810
0420
0420
FFFF
0000
3C22
4222
7E22
4222
7E02
420C
0000
FFFE
0201
0401
1802
E01C
ENDCHAR
STARTCHAR 526F
ENCODING 21103
SWIDTH 1020 0
DWIDTH 17 0
BBX 16 17 0 -2
BITMAP
0001
FFC9
FFC9
0009
3E09
4189
4189
3E09
0009
7F89
88C9
88C9
FFC9
88C1
88C1
7F81
000E
ENDCHAR
STARTCHAR 5270
ENCODING 21104
SWIDTH 1020 0
DWIDTH 17 0
BBX 16 17 0 -2
BITMAP
01C1
FE11
FE11
0811
0811
FFD1
4991
4991
FFF1
4991
4991
FFD1
2C11
2A11
4981
8981
080E
ENDCHAR
STARTCHAR 5271
ENCODING 21105
SWIDTH 1020 0
DWIDTH 17 0
BBX 16 17 0 -2
BITMAP
0800
0800
0800
15FC
2212
5D92
88D2
3ED2
49B2
4992
3E12
082A
1426
12C3
22C4
41A4
8218
ENDCHAR
STARTCHAR 5272
ENCODING 21106
SWIDTH 1020 0
DWIDTH 17 0
BBX 15 17 0 -2
BITMAP
0802
0802
0802
7F92
88D2
88D2
7F92
0812
7F92
0812
FFD2
0012
3E12
4182
4182
3E02
001C
ENDCHAR
STARTCHAR 5273
ENCODING 21107
SWIDTH 1020 0
DWIDTH 17 0
BBX 15 17 0 -2
BITMAP
2202
2202
2202
FFD2
2212
2212
0C12
1212
2192
3ED2
40D2
9E12
2192
2182
2182
1E02
000C
ENDCHAR
STARTCHAR 5274
ENCODING 21108
SWIDTH 1020 0
DWIDTH 17 0
BBX 15 17 0 -2
BITMAP
0802
4982
4982
4992
4992
3E12
0012
FFD2
0012
3E12
4192
4192
3E12
2202
2402
1FC2
F00C
ENDCHAR
STARTCHAR 5275
ENCODING 21109
SWIDTH 1020 0
DWIDTH 17 0
BBX 16 17 0 -2
BITMAP
0801
1409
1409
1209
2D89
20C9
5F89
A0C9
3FC9
20C9
3F89
4009
5F89
A0C1
20C1
1F81
000E
ENDCHAR
STARTCHAR 527D
ENCODING 21117
SWIDTH 1020 0
DWIDTH 17 0
BBX 15 17 0 -2
BITMAP
0002
FFE2
FFE2
1412
3E12
5592
5592
3E12
0012
7F92
0012
FFD2
0812
4A02
4982
8982
300C
ENDCHAR
STARTCHAR 527F
ENCODING 21119
SWIDTH 1020 0
DWIDTH 17 0
BBX 15 17 0 -2
BITMAP
90C2
4982
4982
4A12
3E12
4992
7F92
4992
3E12
0812
FFD2
1C12
2A12
2982
48C2
8802
080C
ENDCHAR
STARTCHAR 5283
ENCODING 21123
SWIDTH 1020 0
DWIDTH 17 0
BBX 15 17 0 -2
BITMAP
0802
0812
0812
7E12
0992
FFD2
0992
7E12
0812
FFD2
4992
7F92
4992
3E02
0002
FFE2
001C
ENDCHAR
STARTCHAR 5287
ENCODING 21127
SWIDTH 1020 0
DWIDTH 17 0
BBX 16 17 0 -2
BITMAP
0801
0FC9
0FC9
0809
3FC9
5029
7FA9
50C9
4F89
4009
7FE9
44C9
5AC9
4781
7AC1
8221
1C0E
ENDCHAR
STARTCHAR 5288
ENCODING 21128
SWIDTH 1020 0
DWIDTH 17 0
BBX 16 17 0 -2
BITMAP
0010
3C10
3C10
43FE
7CC4
4028
5DFF
A210
A2FE
1C10
0010
7FFC
0202
0202
0402
1804
E038
ENDCHAR
STARTCHAR 5289
ENCODING 21129
SWIDTH 1020 0
DWIDTH 17 0
BBX 16 17 0 -2
BITMAP
0801
37C9
37C9
4229
5229
4A29
5C29
E9C9
1609
2189
7EE9
8809
FFC9
4981
2A01
2FC1
F00E
ENDCHAR
STARTCHAR 528D
ENCODING 21133
SWIDTH 1020 0
DWIDTH 17 0
BBX 15 17 0 -2
BITMAP
0802
1402
1402
1212
2192
20D2
5ED2
8012
3192
4AD2
4AD2
3192
2182
31C2
4A22
4222
8C0C
ENDCHAR
STARTCHAR 5291
ENCODING 21137
SWIDTH 1020 0
DWIDTH 17 0
BBX 16 17 0 -2
BITMAP
0401
FFF1
FFF1
1189
0A29
F5C9
55A9
5599
55E9
A4C9
20C9
3FC9
20C9
3FC1
20C1
40C1
80C6
ENDCHAR
STARTCHAR 5292
ENCODING 21138
SWIDTH 1020 0
DWIDTH 17 0
BBX 15 17 0 -2
BITMAP
0800
0800
0800
15FC
1212
2392
5CD2
80D2
2232
5592
5592
222A
222A
23A2
54C4
49A4
9218
ENDCHAR
STARTCHAR 5294
ENCODING 21140
SWIDTH 1020 0
DWIDTH 17 0
BBX 16 17 0 -2
BITMAP
0800
0800
0800
15FC
1212
2392
5CD2
80D2
2232
5592
5592
222A
2226
23A3
54C4
49A4
9218
ENDCHAR
STARTCHAR 529B
ENCODING 21147
SWIDTH 1020 0
DWIDTH 17 0
BBX 15 17 0 -2
BITMAP
0200
0200
0200
0200
0200
FFFC
0202
0202
0202
0202
0402
0402
0402
0804
1004
2188
C0F0
ENDCHAR
STARTCHAR 529F
ENCODING 21151
SWIDTH 1020 0
DWIDTH 17 0
BBX 16 17 0 -2
BITMAP
0020
0020
0020
0020
FE20
11FE
1021
1021
1021
1021
16C1
18C1
E0C1
0181
0182
0222
0C1C
ENDCHAR
STARTCHAR 52A0
ENCODING 21152
SWIDTH 1020 0
DWIDTH 17 0
BBX 16 17 0 -2
BITMAP
1000
1000
1000
1000
101E
FE21
11A1
11A1
11A1
11A1
11A1
11A1
21A1
21A1
2221
421E
9C00
ENDCHAR
STARTCHAR 52A3
ENCODING 21155
SWIDTH 1020 0
DWIDTH 17 0
BBX 16 17 0 -2
BITMAP
0180
0998
0998
1184
2182
CE19
00E0
0F80
F180
0180
7FFC
0182
0202
0202
0402
18C4
E038
ENDCHAR
STARTCHAR 52A9
ENCODING 21161
SWIDTH 1020 0
DWIDTH 17 0
BBX 16 17 0 -2
BITMAP
0020
0020
0020
3820
4420
47FE
7C21
4421
4421
4421
7C21
44C1
44C1
4EC1
7182
C222
0C1C
ENDCHAR
STARTCHAR 52AA
ENCODING 21162
SWIDTH 1020 0
DWIDTH 17 0
BBX 16 17 0 -2
BITMAP
2000
2000
2000
FDFC
22C2
C424
2818
182C
25C3
C580
7FFC
0182
0202
0202
0402
18C4
E038
ENDCHAR
STARTCHAR 52AB
ENCODING 21163
SWIDTH 1020 0
DWIDTH 17 0
BBX 16 17 0 -2
BITMAP
1010
1010
1010
1010
FE10
11FE
1011
1011
FF91
2011
2011
4811
4421
8621
9A22
60C2
039C
ENDCHAR
STARTCHAR 52AC
ENCODING 21164
SWIDTH 1020 0
DWIDTH 17 0
BBX 16 17 0 -2
BITMAP
2010
2010
2010
2010
3E10
41FE
4191
B991
4591
4591
4591
4591
39A1
0221
02C2
0592
1A0C
ENDCHAR
STARTCHAR 52AD
ENCODING 21165
SWIDTH 1020 0
DWIDTH 17 0
BBX 15 17 0 -2
BITMAP
0010
FC10
FC10
1210
1210
23FC
2212
5212
8C12
0012
3822
4422
4422
44C2
44C4
39A4
0218
ENDCHAR
STARTCHAR 52B1
ENCODING 21169
SWIDTH 1020 0
DWIDTH 17 0
BBX 16 17 0 -2
BITMAP
0010
3FD0
3FD0
4010
4010
7FFE
5011
5011
5E11
5191
5191
5191
5191
51A1
51A2
A2C2
5D9C
ENDCHAR
STARTCHAR 52B4
ENCODING 21172
SWIDTH 1020 0
DWIDTH 17 0
BBX 16 17 0 -2
BITMAP
2204
1184
1184
0188
7FFE
8001
8201
0200
FFFC
0202
0202
0202
0402
0402
0804
30C4
C038
ENDCHAR
STARTCHAR 52B5
ENCODING 21173
SWIDTH 1020 0
DWIDTH 17 0
BBX 16 17 0 -2
BITMAP
1188
1188
1188
0990
7FFE
02C0
0420
FFFF
0810
1208
2204
DFF3
0208
0408
0408
1990
60E0
ENDCHAR
STARTCHAR 52B9
ENCODING 21177
SWIDTH 1020 0
DWIDTH 17 0
BBX 16 17 0 -2
BITMAP
1010
1010
1010
1010
FF90
28FE
2411
4391
A411
1411
0821
0821
1421
12C1
22C2
41A2
821C
ENDCHAR
STARTCHAR 52BC
ENCODING 21180
SWIDTH 1020 0
DWIDTH 17 0
BBX 15 17 0 -2
BITMAP
1010
1010
1010
1010
FF90
10FC
1012
1012
7E12
0012
3822
4422
4422
44C2
44C4
39A4
0218
ENDCHAR
STARTCHAR 52BE
ENCODING 21182
SWIDTH 1020 0
DWIDTH 17 0
BBX 16 17 0 -2
BITMAP
1010
1010
1010
1010
FF90
10FE
1211
A211
4411
2991
1191
2211
4411
8821
1422
22C2
C39C
ENDCHAR
STARTCHAR 52C1
ENCODING 21185
SWIDTH 1020 0
DWIDTH 17 0
BBX 16 17 0 -2
BITMAP
0010
FFD0
FFD0
0010
4990
49FE
9211
4991
4991
0011
FF91
0811
0821
0BA1
1C22
E0D2
018C
ENDCHAR
STARTCHAR 52C3
ENCODING 21187
SWIDTH 1020 0
DWIDTH 17 0
BBX 16 17 0 -2
BITMAP
0810
0810
0810
FF90
0810
09FE
7E11
8191
BD91
0211
2411
1F91
E811
0821
0822
08C2
739C
ENDCHAR
STARTCHAR 52C5
ENCODING 21189
SWIDTH 1020 0
DWIDTH 17 0
BBX 16 17 0 -2
BITMAP
0810
0810
0810
FFD0
0810
09FE
3E11
4991
4991
4991
3E11
1C11
2A11
29A1
49A2
88C2
0B9C
ENDCHAR
STARTCHAR 52C7
ENCODING 21191
SWIDTH 1020 0
DWIDTH 17 0
BBX 15 16 0 -2
BITMAP
7FF8
7FF8
0404
0208
3FFC
4182
7FFE
4182
3FFC
0180
FFFC
0202
0202
0402
18C4
E038
ENDCHAR
STARTCHAR 52C9
ENCODING 21193
SWIDTH 1020 0
DWIDTH 17 0
BBX 16 17 0 -2
BITMAP
2020
2020
2020
7020
4820
8BFC
7C22
9222
9222
9222
7C22
28C2
28C4
2985
2E39
4801
87FE
ENDCHAR
STARTCHAR 52CD
ENCODING 21197
SWIDTH 1020 0
DWIDTH 17 0
BBX 16 17 0 -2
BITMAP
0810
0810
0810
FFD0
0010
00FE
3E11
4191
4191
4191
3E11
0821
2A21
29A1
48C2
88D2
318C
ENDCHAR
STARTCHAR 52D2
ENCODING 21202
SWIDTH 1020 0
DWIDTH 17 0
BBX 16 17 0 -2
BITMAP
4410
4410
4410
FF90
4410
39FE
1011
7C11
9211
9211
9211
7C21
1021
FFA1
10C2
10C2
119C
ENDCHAR
STARTCHAR 52D5
ENCODING 21205
SWIDTH 1020 0
DWIDTH 17 0
BBX 16 17 0 -2
BITMAP
0390
FC10
FC10
0810
FFD0
08FE
7E11
8991
FF91
8991
7E11
0811
FFD1
0821
0FA2
F0C2
039C
ENDCHAR
STARTCHAR 52D7
ENCODING 21207
SWIDTH 1020 0
DWIDTH 17 0
BBX 16 16 0 -2
BITMAP
0FF8
0FF8
1004
1FFC
1004
0FF8
0010
1C10
23FE
3E11
2211
3E11
2221
3FA1
E0D2
038C
ENDCHAR
STARTCHAR 52D8
ENCODING 21208
SWIDTH 1020 0
DWIDTH 17 0
BBX 16 17 0 -2
BITMAP
2210
2210
2210
FFD0
2210
3EFE
2211
3E11
2211
2211
FFD1
5411
5411
63A1
4022
3FC2
019C
ENDCHAR
STARTCHAR 52D9
ENCODING 21209
SWIDTH 1020 0
DWIDTH 17 0
BBX 16 17 0 -2
BITMAP
00C0
F8C0
F8C0
04FF
45C4
2A28
1010
FC28
13C4
3223
3C20
53FC
50C2
90C2
1182
1204
EC38
ENDCHAR
STARTCHAR 52DD
ENCODING 21213
SWIDTH 1020 0
DWIDTH 17 0
BBX 16 17 0 -2
BITMAP
0224
31A4
31A4
49A8
4BFE
4820
7820
4FFF
48C8
49A4
7E23
4BFC
4822
48C2
48C2
4984
B638
ENDCHAR
STARTCHAR 52DE
ENCODING 21214
SWIDTH 1020 0
DWIDTH 17 0
BBX 16 17 0 -2
BITMAP
0810
4AD2
4AD2
4AD2
2994
1428
22C4
7FFE
8181
8181
3FF8
0204
0204
0404
0804
10C8
6030
ENDCHAR
STARTCHAR 52DF
ENCODING 21215
SWIDTH 1020 0
DWIDTH 17 0
BBX 16 17 0 -2
BITMAP
0810
FFFF
FFFF
0810
1FF8
2004
3FFC
2004
1FF8
0200
FFFF
1210
3FFC
C20B
0408
0A10
71E0
ENDCHAR
STARTCHAR 52E0
ENCODING 21216
SWIDTH 1020 0
DWIDTH 17 0
BBX 16 17 0 -2
BITMAP
0008
E788
E788
10C8
D6C8
31FE
D6C9
18C9
1409
2A09
C9C9
1409
6591
0991
7222
0CD2
F18C
ENDCHAR
STARTCHAR 52E2
ENCODING 21218
SWIDTH 1020 0
DWIDTH 17 0
BBX 16 17 0 -2
BITMAP
1020
7C20
7C20
11F8
FE24
29A4
4EE4
9025
FCD5
1192
3D80
C180
3FFC
0202
0402
1804
E038
ENDCHAR
STARTCHAR 52E3
ENCODING 21219
SWIDTH 1020 0
DWIDTH 17 0
BBX 16 17 0 -2
BITMAP
0810
7F90
7F90
0810
3E10
09FE
FF91
0011
3E11
4191
7F91
4191
7F91
41A1
3E22
24D2
C38C
ENDCHAR
STARTCHAR 52E4
ENCODING 21220
SWIDTH 1020 0
DWIDTH 17 0
BBX 16 17 0 -2
BITMAP
4410
FF90
FF90
4410
0010
7DFE
9211
9211
7C11
1011
FF91
1011
FFA1
1021
1FA2
F0C2
019C
ENDCHAR
STARTCHAR 52E6
ENCODING 21222
SWIDTH 1020 0
DWIDTH 17 0
BBX 15 17 0 -2
BITMAP
9190
4990
4990
4A10
3E10
49FC
7F92
4992
3E12
0812
FFD2
0822
1C22
2BA2
48C4
89A4
0A18
ENDCHAR
STARTCHAR 52E7
ENCODING 21223
SWIDTH 1020 0
DWIDTH 17 0
BBX 16 17 0 -2
BITMAP
2010
2010
2010
7F90
5010
91FE
FF91
2411
4811
7FD1
C811
7F91
4811
7FA1
4822
3FC2
019C
ENDCHAR
STARTCHAR 52F2
ENCODING 21234
SWIDTH 1020 0
DWIDTH 17 0
BBX 16 17 0 -2
BITMAP
0390
7C10
7C10
0810
FF90
08FE
7E11
8991
FF91
8991
7E21
0821
FFC2
081C
FFC4
2822
C611
ENDCHAR
STARTCHAR 52F3
ENCODING 21235
SWIDTH 1020 0
DWIDTH 17 0
BBX 16 17 0 -2
BITMAP
0388
FC08
FC08
0808
FF88
08FE
3E09
4989
7F89
4989
3E11
0811
7F91
0821
FFE2
54D2
958C
ENDCHAR
STARTCHAR 52F5
ENCODING 21237
SWIDTH 1020 0
DWIDTH 17 0
BBX 16 17 0 -2
BITMAP
0008
3FE8
3FE8
4008
4A08
7FFE
4A09
4F89
54C9
5FC9
54C9
4F89
4409
9FC9
A432
AFA2
21CC
ENDCHAR
STARTCHAR 52F8
ENCODING 21240
SWIDTH 1020 0
DWIDTH 17 0
BBX 15 17 0 -2
BITMAP
2210
FFD0
FFD0
2210
7790
55FC
7792
2412
2812
7F92
C812
7F92
4822
7FA2
48C4
3FA4
0198
ENDCHAR
STARTCHAR 52F9
ENCODING 21241
SWIDTH 1020 0
DWIDTH 17 0
BBX 15 17 0 -2
BITMAP
1000
1000
1000
1000
1FFC
2002
2002
4002
8002
0002
0002
0002
0002
0004
0004
0188
00F0
ENDCHAR
STARTCHAR 52FA
ENCODING 21242
SWIDTH 1020 0
DWIDTH 17 0
BBX 15 17 0 -2
BITMAP
1000
1000
1000
1000
3FFC
2002
4002
9002
0802
0402
0202
0202
0002
0004
0004
0008
00F0
ENDCHAR
STARTCHAR 52FE
ENCODING 21246
SWIDTH 1020 0
DWIDTH 17 0
BBX 16 17 0 -2
BITMAP
1000
1000
1000
1000
1FFE
2001
2401
4401
8801
0981
10C1
2021
23F1
1C12
0002
00C4
0038
ENDCHAR
STARTCHAR 52FF
ENCODING 21247
SWIDTH 1020 0
DWIDTH 17 0
BBX 15 17 0 -2
BITMAP
1000
1000
1000
1000
1FFC
2222
2222
4422
8422
08C2
10C2
6182
0202
0C04
3004
0188
00F0
ENDCHAR
STARTCHAR 5301
ENCODING 21249
SWIDTH 1020 0
DWIDTH 17 0
BBX 16 17 0 -2
BITMAP
1000
1000
1000
1FFC
10C2
20C2
28C2
4982
8582
0202
0584
08C4
1034
600C
000B
0210
01E0
ENDCHAR
STARTCHAR 5302
ENCODING 21250
SWIDTH 1020 0
DWIDTH 17 0
BBX 15 17 0 -2
BITMAP
1000
1000
1000
1FFC
2002
2002
5002
90C2
1382
1C02
1022
1022
1022
0FC4
0004
0008
00F0
ENDCHAR
STARTCHAR 5305
ENCODING 21253
SWIDTH 1020 0
DWIDTH 17 0
BBX 16 17 0 -2
BITMAP
1000
1000
1000
1FF8
2004
2004
7FC4
8024
0024
0024
1FC4
2008
20F0
2001
2001
2001
1FFE
ENDCHAR
STARTCHAR 5306
ENCODING 21254
SWIDTH 1020 0
DWIDTH 17 0
BBX 15 17 0 -2
BITMAP
1000
1000
1000
1FFC
2192
2192
4212
9A22
0622
19A2
60C2
01A2
0212
0C14
3004
0188
00F0
ENDCHAR
STARTCHAR 5308
ENCODING 21256
SWIDTH 1020 0
DWIDTH 17 0
BBX 15 17 0 -2
BITMAP
1000
1000
1000
1FFC
2002
20C2
78D2
A592
2212
2592
28D2
30D2
2012
1FE4
0004
0008
00F0
ENDCHAR
STARTCHAR 530D
ENCODING 21261
SWIDTH 1020 0
DWIDTH 17 0
BBX 15 17 0 -2
BITMAP
1000
1000
1000
3FFC
2222
4212
FFFA
0202
1FE2
2212
3FF2
2212
3FF2
2212
2214
22E4
0018
ENDCHAR
STARTCHAR 530F
ENCODING 21263
SWIDTH 1020 0
DWIDTH 17 0
BBX 16 17 0 -2
BITMAP
10C0
10C0
10C0
FDFC
1182
2A02
47F2
BC0A
000A
FE0A
20F2
4184
7998
0581
0581
0981
30FE
ENDCHAR
STARTCHAR 5310
ENCODING 21264
SWIDTH 1020 0
DWIDTH 17 0
BBX 15 17 0 -2
BITMAP
1000
1000
1000
3FFC
2002
5FF2
8002
0FC2
1022
0FC2
0002
1FE2
2212
3FF2
2214
1FE4
0018
ENDCHAR
STARTCHAR 5315
ENCODING 21269
SWIDTH 1020 0
DWIDTH 17 0
BBX 16 17 0 -2
BITMAP
1000
1000
1000
1000
1000
1002
100C
1030
13C0
1C00
F000
1000
1000
1001
1001
1001
0FFE
ENDCHAR
STARTCHAR 5316
ENCODING 21270
SWIDTH 1020 0
DWIDTH 17 0
BBX 16 17 0 -2
BITMAP
0980
0980
0980
0980
1180
1182
3184
5198
91E0
1180
1180
1180
1181
1181
1181
1181
10FE
ENDCHAR
STARTCHAR 5317
ENCODING 21271
SWIDTH 1020 0
DWIDTH 17 0
BBX 16 17 0 -2
BITMAP
04C0
04C0
04C0
04C0
04C2
FCC2
04CC
04F0
04C0
04C0
04C0
0CC0
34C1
C4C1
04C1
043E
0400
ENDCHAR
STARTCHAR 5319
ENCODING 21273
SWIDTH 1020 0
DWIDTH 17 0
BBX 16 16 0 -2
BITMAP
3E20
3E20
41A0
7FA2
41A2
3E24
0038
FFA0
0820
4821
4821
4FA1
481E
6800
5800
87FF
ENDCHAR
STARTCHAR 531A
ENCODING 21274
SWIDTH 1020 0
DWIDTH 17 0
BBX 15 15 1 -1
BITMAP
7FFE
7FFE
8000
8000
8000
8000
8000
8000
8000
8000
8000
8000
8000
8000
7FFE
ENDCHAR
STARTCHAR 531D
ENCODING 21277
SWIDTH 1020 0
DWIDTH 17 0
BBX 15 15 1 -1
BITMAP
7FFE
7FFE
8000
8180
8180
8FF0
9188
9188
9188
9188
91F0
8180
8180
8000
7FFE
ENDCHAR
STARTCHAR 5320
ENCODING 21280
SWIDTH 1020 0
DWIDTH 17 0
BBX 15 15 1 -1
BITMAP
7FFE
7FFE
8000
8038
8FC0
9000
9000
9FFC
9020
9020
9020
9020
A020
8000
7FFE
ENDCHAR
STARTCHAR 5321
ENCODING 21281
SWIDTH 1020 0
DWIDTH 17 0
BBX 15 15 1 -1
BITMAP
7FFE
7FFE
8000
8000
BFFC
8180
8180
9FF8
8180
8180
8180
BFFC
8000
8000
7FFE
ENDCHAR
STARTCHAR 5323
ENCODING 21283
SWIDTH 1020 0
DWIDTH 17 0
BBX 15 15 1 -1
BITMAP
7FFE
7FFE
8000
8FF0
9188
9188
9FF8
9188
9188
9188
8FF0
8180
8180
8180
7FFE
ENDCHAR
STARTCHAR 532A
ENCODING 21290
SWIDTH 1020 0
DWIDTH 17 0
BBX 15 15 1 -1
BITMAP
7FFE
7FFE
8000
8440
BC7C
8440
BC40
8478
8C40
B440
847C
8840
B040
8000
7FFE
ENDCHAR
STARTCHAR 532F
ENCODING 21295
SWIDTH 1020 0
DWIDTH 17 0
BBX 15 15 1 -1
BITMAP
7FFE
7FFE
8190
91A0
8BFC
AF20
9320
93FC
8B20
8BFC
9320
9320
A1FC
A000
7FFE
ENDCHAR
STARTCHAR 5331
ENCODING 21297
SWIDTH 1020 0
DWIDTH 17 0
BBX 15 15 1 -1
BITMAP
7FFE
7FFE
8180
8FF0
9188
8FF0
8180
FFFE
9008
9FF8
9008
8FF0
8420
8810
7FFE
ENDCHAR
STARTCHAR 5333
ENCODING 21299
SWIDTH 1020 0
DWIDTH 17 0
BBX 15 15 1 -1
BITMAP
7FFE
7FFE
8180
8340
8420
8810
B7EC
8000
8C30
9348
8C30
8820
9430
A348
7FFE
ENDCHAR
STARTCHAR 5338
ENCODING 21304
SWIDTH 1020 0
DWIDTH 17 0
BBX 16 13 0 -1
BITMAP
FFFF
2000
2000
2000
2000
2000
2000
2000
2000
2000
2000
2000
1FFF
ENDCHAR
STARTCHAR 5339
ENCODING 21305
SWIDTH 1020 0
DWIDTH 17 0
BBX 15 13 1 -1
BITMAP
7FFE
8980
8980
8980
8980
8984
9184
9184
A078
C000
8000
8000
7FFE
ENDCHAR
STARTCHAR 533A
ENCODING 21306
SWIDTH 1020 0
DWIDTH 17 0
BBX 15 15 1 -1
BITMAP
7FFC
7FFC
8000
8010
9010
8820
8420
8340
8180
8340
8420
8810
B010
8000
7FFE
ENDCHAR
STARTCHAR 533B
ENCODING 21307
SWIDTH 1020 0
DWIDTH 17 0
BBX 15 15 1 -1
BITMAP
7FFC
7FFC
8800
8800
8FF8
9180
A180
BFFC
8180
8340
8420
8810
B00C
8000
7FFE
ENDCHAR
STARTCHAR 533F
ENCODING 21311
SWIDTH 1020 0
DWIDTH 17 0
BBX 15 15 1 -1
BITMAP
7FFE
7FFE
8820
8820
BFFC
8B20
8400
FFFE
8800
97F0
E808
8808
87F0
8000
7FFE
ENDCHAR
STARTCHAR 5340
ENCODING 21312
SWIDTH 1020 0
DWIDTH 17 0
BBX 15 15 1 -1
BITMAP
7FFE
7FFE
8000
83C0
8420
8420
8420
83C0
9C38
A344
A344
A344
9C38
8000
7FFE
ENDCHAR
STARTCHAR 5341
ENCODING 21313
SWIDTH 1020 0
DWIDTH 17 0
BBX 16 17 0 -2
BITMAP
0180
0180
0180
0180
0180
0180
0180
FFFF
0180
0180
0180
0180
0180
0180
0180
0180
0180
ENDCHAR
STARTCHAR 5343
ENCODING 21315
SWIDTH 1020 0
DWIDTH 17 0
BBX 16 17 0 -2
BITMAP
000C
01F0
01F0
7F80
0180
0180
0180
0180
FFFF
0180
0180
0180
0180
0180
0180
0180
0180
ENDCHAR
STARTCHAR 5345
ENCODING 21317
SWIDTH 1020 0
DWIDTH 17 0
BBX 16 17 0 -2
BITMAP
1184
1184
1184
1184
1184
1184
1184
1184
FFFF
1184
1184
1184
1184
2184
2184
4184
8184
ENDCHAR
STARTCHAR 5346
ENCODING 21318
SWIDTH 1020 0
DWIDTH 17 0
BBX 16 17 0 -2
BITMAP
0400
0400
0400
0400
FFE0
0410
0410
0811
1011
218E
C180
0180
FFFF
0180
0180
0180
0180
ENDCHAR
STARTCHAR 5347
ENCODING 21319
SWIDTH 1020 0
DWIDTH 17 0
BBX 16 17 0 -2
BITMAP
01C8
0E08
0E08
F808
0808
0808
0808
0808
FFFF
0808
0808
0808
0808
1008
1008
2008
C008
ENDCHAR
STARTCHAR 5348
ENCODING 21320
SWIDTH 1020 0
DWIDTH 17 0
BBX 16 17 0 -2
BITMAP
1000
1000
1000
1000
1FFE
2180
2180
4180
8180
0180
FFFF
0180
0180
0180
0180
0180
0180
ENDCHAR
STARTCHAR 5349
ENCODING 21321
SWIDTH 1020 0
DWIDTH 17 0
BBX 16 17 0 -2
BITMAP
0180
0180
0180
0180
7FFE
0180
1188
1188
1188
1008
FFFF
1008
1008
2008
2008
4008
8008
ENDCHAR
STARTCHAR 534A
ENCODING 21322
SWIDTH 1020 0
DWIDTH 17 0
BBX 16 17 0 -2
BITMAP
2184
1184
1184
1188
0988
0990
0180
7FFE
0180
0180
0180
FFFF
0180
0180
0180
0180
0180
ENDCHAR
STARTCHAR 534D
ENCODING 21325
SWIDTH 1020 0
DWIDTH 17 0
BBX 16 17 0 -2
BITMAP
0002
FE02
FE02
0182
0182
0182
0182
0182
3FFC
4180
4180
4180
4180
4180
4180
40FF
4000
ENDCHAR
STARTCHAR 5351
ENCODING 21329
SWIDTH 1020 0
DWIDTH 17 0
BBX 16 17 0 -2
BITMAP
0200
0200
0200
1FF8
2184
2184
3FFC
2184
2184
2184
1FF8
0820
1020
FFFF
0020
0020
0020
ENDCHAR
STARTCHAR 5352
ENCODING 21330
SWIDTH 1020 0
DWIDTH 17 0
BBX 16 17 0 -2
BITMAP
0180
0180
0180
FFFF
0810
0810
1428
1428
22C4
C183
0180
FFFF
0180
0180
0180
0180
0180
ENDCHAR
STARTCHAR 5353
ENCODING 21331
SWIDTH 1020 0
DWIDTH 17 0
BBX 16 17 0 -2
BITMAP
0180
0180
0180
01FE
0180
1FF8
2004
2004
3FFC
2004
2004
1FF8
0180
FFFF
0180
0180
0180
ENDCHAR
STARTCHAR 5354
ENCODING 21332
SWIDTH 1020 0
DWIDTH 17 0
BBX 16 17 0 -2
BITMAP
20C0
20C0
20C0
27F8
20C4
F984
2184
2238
2408
2408
3FBE
24C9
24C9
24C9
28D1
2992
36EC
ENDCHAR
STARTCHAR 5357
ENCODING 21335
SWIDTH 1020 0
DWIDTH 17 0
BBX 16 17 0 -2
BITMAP
0180
0180
0180
FFFF
0180
0180
3FFC
4812
4422
5FFA
4182
4182
5FFA
4182
4182
4182
401C
ENDCHAR
STARTCHAR 5358
ENCODING 21336
SWIDTH 1020 0
DWIDTH 17 0
BBX 16 17 0 -2
BITMAP
2208
1188
1188
0990
1FF8
2184
2184
3FFC
2184
2184
1FF8
0180
0180
FFFF
0180
0180
0180
ENDCHAR
STARTCHAR 535A
ENCODING 21338
SWIDTH 1020 0
DWIDTH 17 0
BBX 16 17 0 -2
BITMAP
2024
2022
2022
2FFF
2020
FBFC
2422
27FE
2422
2422
23FC
2008
2FFF
2208
2188
2188
20F0
ENDCHAR
STARTCHAR 535C
ENCODING 21340
SWIDTH 1020 0
DWIDTH 17 0
BBX 9 17 6 -2
BITMAP
8000
8000
8000
8000
8000
8000
F000
8C00
8200
8100
8080
8000
8000
8000
8000
8000
8000
ENDCHAR
STARTCHAR 535E
ENCODING 21342
SWIDTH 1020 0
DWIDTH 17 0
BBX 16 17 0 -2
BITMAP
0180
0180
0180
0180
FFFF
0180
0180
0180
01E0
0198
0184
0182
0180
0180
0180
0180
0180
ENDCHAR
STARTCHAR 5360
ENCODING 21344
SWIDTH 1020 0
DWIDTH 17 0
BBX 14 16 1 -1
BITMAP
0400
0400
0400
0400
0400
07FC
0400
0400
0400
0400
7FF8
8004
8004
8004
8004
7FF8
ENDCHAR
STARTCHAR 5366
ENCODING 21350
SWIDTH 1020 0
DWIDTH 17 0
BBX 16 17 0 -2
BITMAP
0810
0810
0810
7F90
0810
0810
FFD8
0814
0812
0811
7F91
0810
0810
0810
0FD0
F810
0010
ENDCHAR
STARTCHAR 5369
ENCODING 21353
SWIDTH 1020 0
DWIDTH 17 0
BBX 9 16 4 -2
BITMAP
7F00
7F00
8080
8080
8080
8080
8080
8080
8080
8080
9880
8F00
8000
8000
8000
8000
ENDCHAR
STARTCHAR 536E
ENCODING 21358
SWIDTH 1020 0
DWIDTH 17 0
BBX 16 17 0 -2
BITMAP
0006
0038
0038
1FC0
2000
2000
3FFF
2000
2000
23F0
2408
2408
2408
4431
4401
8401
03FE
ENDCHAR
STARTCHAR 536F
ENCODING 21359
SWIDTH 1020 0
DWIDTH 17 0
BBX 16 17 0 -2
BITMAP
0180
0600
0600
381E
4221
4221
4221
4221
4221
4221
4621
4A21
7221
C42E
0420
0820
3020
ENDCHAR
STARTCHAR 5370
ENCODING 21360
SWIDTH 1020 0
DWIDTH 17 0
BBX 15 17 1 -2
BITMAP
0300
0C00
0C00
707C
8182
8182
8182
8182
FD82
8182
8182
8182
8182
8182
7DBC
0180
0180
ENDCHAR
STARTCHAR 5371
ENCODING 21361
SWIDTH 1020 0
DWIDTH 17 0
BBX 16 17 0 -2
BITMAP
0800
0FC0
0FC0
1020
2020
5FFF
A000
23F8
2404
2404
2404
24F8
2400
4401
4401
8401
03FE
ENDCHAR
STARTCHAR 5373
ENCODING 21363
SWIDTH 1020 0
DWIDTH 17 0
BBX 16 16 0 -2
BITMAP
3E1E
3E1E
41A1
41A1
7FA1
41A1
41A1
7E21
4021
4421
4221
4221
47AE
59A0
E1A0
0020
ENDCHAR
STARTCHAR 5374
ENCODING 21364
SWIDTH 1020 0
DWIDTH 17 0
BBX 16 17 0 -2
BITMAP
0800
081E
081E
0821
7FA1
0821
0821
0821
FFE1
1021
1021
2421
2221
41AE
8FA0
71A0
0020
ENDCHAR
STARTCHAR 5375
ENCODING 21365
SWIDTH 1020 0
DWIDTH 17 0
BBX 16 17 0 -2
BITMAP
00C0
0380
0380
3C1E
4221
5229
5229
4A25
4A25
4A25
4225
4621
5A21
E42E
0420
0820
7020
ENDCHAR
STARTCHAR 5377
ENCODING 21367
SWIDTH 1020 0
DWIDTH 17 0
BBX 16 17 0 -2
BITMAP
1188
1188
1188
0990
7FFE
02C0
0420
FFFF
0810
1008
27E4
C813
0810
08E4
0804
0804
07F8
ENDCHAR
STARTCHAR 5378
ENCODING 21368
SWIDTH 1020 0
DWIDTH 17 0
BBX 16 17 0 -2
BITMAP
2000
2000
2000
7F9E
4821
8821
FFE1
0821
0821
4FA1
4821
4821
4821
4FAE
F020
0020
0020
ENDCHAR
STARTCHAR 537B
ENCODING 21371
SWIDTH 1020 0
DWIDTH 17 0
BBX 16 17 0 -2
BITMAP
2400
221E
221E
41A1
8821
1421
1221
21A1
41A1
9C21
2221
2229
2226
2220
2220
1C20
0020
ENDCHAR
STARTCHAR 537F
ENCODING 21375
SWIDTH 1020 0
DWIDTH 17 0
BBX 16 17 0 -2
BITMAP
0400
39C6
39C6
4229
4A29
4BE9
4A29
4A29
4A29
4BC9
4A09
5AC9
EA29
122E
12E8
27A8
C008
ENDCHAR
STARTCHAR 5382
ENCODING 21378
SWIDTH 1020 0
DWIDTH 17 0
BBX 16 16 0 -2
BITMAP
1FFF
1FFF
2000
2000
2000
2000
2000
2000
2000
2000
2000
2000
2000
4000
4000
8000
ENDCHAR
STARTCHAR 5384
ENCODING 21380
SWIDTH 1020 0
DWIDTH 17 0
BBX 16 16 0 -2
BITMAP
1FFF
1FFF
2000
2000
23F8
2404
2404
2404
2404
24F8
2400
2400
4401
4401
8401
03FE
ENDCHAR
STARTCHAR 5396
ENCODING 21398
SWIDTH 1020 0
DWIDTH 17 0
BBX 16 16 0 -2
BITMAP
1FFF
1FFF
22C0
2220
2224
3FE4
220A
2232
23C4
2589
25B1
2582
498C
49B1
9181
60FE
ENDCHAR
STARTCHAR 5398
ENCODING 21400
SWIDTH 1020 0
DWIDTH 17 0
BBX 16 15 0 -1
BITMAP
1FFF
1FFF
2000
27F8
28C4
28C4
2FFC
28C4
28C4
27F8
20C0
2FFE
40C0
40C0
BFFF
ENDCHAR
STARTCHAR 539A
ENCODING 21402
SWIDTH 1020 0
DWIDTH 17 0
BBX 16 16 0 -2
BITMAP
3FFF
3FFF
4000
47F8
4804
4FFC
4804
47F8
4000
4FF8
4004
4188
7FFF
4020
8020
03C0
ENDCHAR
STARTCHAR 539F
ENCODING 21407
SWIDTH 1020 0
DWIDTH 17 0
BBX 16 16 0 -2
BITMAP
1FFF
1FFF
20C0
2180
27F8
2804
2804
2FFC
2804
2804
27F8
20C0
44C8
48C4
B0C3
0780
ENDCHAR
STARTCHAR 53A0
ENCODING 21408
SWIDTH 1020 0
DWIDTH 17 0
BBX 16 16 0 -2
BITMAP
1FFF
1FFF
2000
2602
2992
2992
2F92
2992
2992
2F92
2992
2992
4612
4402
8982
30CC
ENDCHAR
STARTCHAR 53A5
ENCODING 21413
SWIDTH 1020 0
DWIDTH 17 0
BBX 16 16 0 -2
BITMAP
1FFF
1FFF
28C8
28C8
2590
3FFE
2221
2AC9
2ACA
2AC8
2AD4
2794
4214
4222
84C2
1981
ENDCHAR
STARTCHAR 53A6
ENCODING 21414
SWIDTH 1020 0
DWIDTH 17 0
BBX 16 16 0 -2
BITMAP
1FFF
1FFF
2000
3FFE
2180
23F0
2408
27F8
2408
23F0
2180
23F0
4590
58E0
8398
3C07
ENDCHAR
STARTCHAR 53A8
ENCODING 21416
SWIDTH 1020 0
DWIDTH 17 0
BBX 16 16 0 -2
BITMAP
3FFF
3FFF
4000
4004
7FC4
4004
4EFF
5184
51A4
4E14
5194
4994
4A04
4BC4
BC04
0038
ENDCHAR
STARTCHAR 53A9
ENCODING 21417
SWIDTH 1020 0
DWIDTH 17 0
BBX 16 16 0 -2
BITMAP
1FFF
1FFF
2400
26FE
29A8
29A8
2FA8
29A8
29FF
2E08
2A18
2998
4BA9
4DA9
98C9
0386
ENDCHAR
STARTCHAR 53AD
ENCODING 21421
SWIDTH 1020 0
DWIDTH 17 0
BBX 16 16 0 -2
BITMAP
1FFF
1FFF
2000
2788
28CC
278A
200A
27BF
28C8
2FC8
28D4
2FD4
48D4
48D2
88D2
0BA1
ENDCHAR
STARTCHAR 53AE
ENCODING 21422
SWIDTH 1020 0
DWIDTH 17 0
BBX 16 16 0 -2
BITMAP
1FFF
1FFF
2000
2983
299C
3FF0
2990
2F9F
2992
2F92
2992
3FD2
4212
49A2
91A2
20C2
ENDCHAR
STARTCHAR 53B0
ENCODING 21424
SWIDTH 1020 0
DWIDTH 17 0
BBX 16 16 0 -2
BITMAP
1FFF
1FFF
2200
2AD0
2AD0
2210
279F
28E4
2CD4
2AD4
2AC8
2AC8
4CD4
48D4
88D2
0BA1
ENDCHAR
STARTCHAR 53B3
ENCODING 21427
SWIDTH 1020 0
DWIDTH 17 0
BBX 16 17 0 -2
BITMAP
1184
08C8
08C8
3FFF
4010
5FD0
4410
7FFF
51A4
5FE4
5194
5F94
5188
5188
5F94
B1A2
01C1
ENDCHAR
STARTCHAR 53B6
ENCODING 21430
SWIDTH 1020 0
DWIDTH 17 0
BBX 16 17 0 -2
BITMAP
0200
0200
0200
0200
0200
0400
0400
0400
0400
0810
0808
0804
1002
1002
20FF
FF81
0001
ENDCHAR
STARTCHAR 53BB
ENCODING 21435
SWIDTH 1020 0
DWIDTH 17 0
BBX 16 16 0 -1
BITMAP
0180
0180
0180
0180
7FFE
0180
0180
0180
FFFF
0400
0400
0810
0808
1004
20FE
3F82
ENDCHAR
STARTCHAR 53C2
ENCODING 21442
SWIDTH 1020 0
DWIDTH 17 0
BBX 16 17 0 -2
BITMAP
0200
0210
0210
0408
7FFE
0182
0200
FFFF
0420
08D0
338C
CC23
01C0
3E08
0030
03C0
3C00
ENDCHAR
STARTCHAR 53C3
ENCODING 21443
SWIDTH 1020 0
DWIDTH 17 0
BBX 16 17 0 -2
BITMAP
0410
0408
0408
09FC
7E0A
2008
4992
F5BD
06C1
0420
19D8
E607
18E0
0388
1C30
01C0
1E00
ENDCHAR
STARTCHAR 53C8
ENCODING 21448
SWIDTH 1020 0
DWIDTH 17 0
BBX 16 14 0 -2
BITMAP
FFF8
1004
1004
1004
0808
0808
0410
0420
02C0
0180
02C0
0C30
300C
C003
ENDCHAR
STARTCHAR 53C9
ENCODING 21449
SWIDTH 1020 0
DWIDTH 17 0
BBX 16 14 0 -2
BITMAP
FFF8
1004
1204
0988
08C8
04D0
0420
02C0
0180
02C0
0420
0810
300C
C003
ENDCHAR
STARTCHAR 53CA
ENCODING 21450
SWIDTH 1020 0
DWIDTH 17 0
BBX 16 16 0 -2
BITMAP
FFE0
FFE0
0810
0810
0820
0820
0C18
0A04
0A04
0988
1188
10D0
2020
20D0
438C
9C03
ENDCHAR
STARTCHAR 53CB
ENCODING 21451
SWIDTH 1020 0
DWIDTH 17 0
BBX 16 17 0 -2
BITMAP
0400
0400
0400
0400
FFFF
0400
0400
07F0
0408
0A08
0A10
11A0
20C0
C1A0
0610
180C
E003
ENDCHAR
STARTCHAR 53CC
ENCODING 21452
SWIDTH 1020 0
DWIDTH 17 0
BBX 16 16 0 -2
BITMAP
FDFC
FDFC
0202
02C2
42C2
24C4
1424
1428
0828
0C10
1410
1228
2228
20C4
4182
8601
ENDCHAR
STARTCHAR 53CD
ENCODING 21453
SWIDTH 1020 0
DWIDTH 17 0
BBX 16 16 0 -2
BITMAP
1FFF
1FFF
2000
2000
2000
3FF0
2408
2408
2210
2210
21A0
20C0
41A0
4210
8C0C
3003
ENDCHAR
STARTCHAR 53CE
ENCODING 21454
SWIDTH 1020 0
DWIDTH 17 0
BBX 16 17 0 -2
BITMAP
0800
4800
4800
4BF8
4804
4984
4984
4988
48C8
48D0
4830
5820
68D0
C8C8
0984
0A02
0C01
ENDCHAR
STARTCHAR 53D4
ENCODING 21460
SWIDTH 1020 0
DWIDTH 17 0
BBX 16 17 0 -2
BITMAP
1000
1000
1000
1FFC
1002
10C2
10C2
FFA4
1024
5428
5418
5210
5228
9228
10C4
1182
6601
ENDCHAR
STARTCHAR 53D6
ENCODING 21462
SWIDTH 1020 0
DWIDTH 17 0
BBX 16 16 0 -2
BITMAP
FFC0
FFC0
4400
45FC
7C02
44C2
44C4
4424
7C28
4418
4410
4C28
7428
C4C4
0582
0601
ENDCHAR
STARTCHAR 53D7
ENCODING 21463
SWIDTH 1020 0
DWIDTH 17 0
BBX 16 17 0 -2
BITMAP
000E
7FF4
7FF4
2204
1188
1188
7FFE
8001
8001
3FF0
0808
0410
0220
01C0
0620
1818
E007
ENDCHAR
STARTCHAR 53D9
ENCODING 21465
SWIDTH 1020 0
DWIDTH 17 0
BBX 16 17 0 -2
BITMAP
1000
1800
1800
25FC
2202
7EC2
90C2
1024
FFA4
1028
5818
5410
5228
9228
90C4
1182
6601
ENDCHAR
STARTCHAR 53DB
ENCODING 21467
SWIDTH 1020 0
DWIDTH 17 0
BBX 16 17 0 -2
BITMAP
2000
A9FF
A9FF
AA00
B200
2200
FFFC
2202
22C2
22C4
3A24
E228
2410
2428
48C8
5384
8C03
ENDCHAR
STARTCHAR 53DF
ENCODING 21471
SWIDTH 1020 0
DWIDTH 17 0
BBX 16 17 0 -2
BITMAP
0580
19B8
19B8
2184
2184
3DBC
2184
2184
1FF8
0180
7FF8
0808
0410
0220
03C0
1C38
E007
ENDCHAR
STARTCHAR 53E1
ENCODING 21473
SWIDTH 1020 0
DWIDTH 17 0
BBX 16 17 0 -2
BITMAP
0800
0800
0800
7EFC
81A2
BFA2
4A22
4994
94D4
3E14
6388
BEC8
2214
3E14
2222
1CC2
0181
ENDCHAR
STARTCHAR 53E2
ENCODING 21474
SWIDTH 1020 0
DWIDTH 17 0
BBX 16 17 0 -2
BITMAP
4422
2424
2424
FFFF
0810
0420
FFFF
0180
7FFE
0180
FFFF
4200
7FFC
4222
5E1C
E234
03C3
ENDCHAR
STARTCHAR 53E3
ENCODING 21475
SWIDTH 1020 0
DWIDTH 17 0
BBX 12 12 2 0
BITMAP
7FE0
8010
8010
8010
8010
8010
8010
8010
8010
8010
8010
7FE0
ENDCHAR
STARTCHAR 53E4
ENCODING 21476
SWIDTH 1020 0
DWIDTH 17 0
BBX 16 16 0 -1
BITMAP
0180
0180
0180
0180
0180
FFFF
0180
0180
0180
0180
1FF8
2004
2004
2004
2004
1FF8
ENDCHAR
STARTCHAR 53E5
ENCODING 21477
SWIDTH 1020 0
DWIDTH 17 0
BBX 15 17 0 -2
BITMAP
1000
1000
1000
1000
1FFC
2002
2002
4F82
90C2
10C2
10C2
10C2
0F82
0004
0004
0008
00F0
ENDCHAR
STARTCHAR 53E8
ENCODING 21480
SWIDTH 1020 0
DWIDTH 17 0
BBX 14 14 1 -2
BITMAP
6FF8
9044
9044
9044
9044
9044
9184
9184
6184
0304
0308
0408
0990
1060
ENDCHAR
STARTCHAR 53E9
ENCODING 21481
SWIDTH 1020 0
DWIDTH 17 0
BBX 16 14 0 -2
BITMAP
783E
84C1
84C1
84C1
84C1
84C1
84C1
84C1
84C1
84C1
78DE
00C0
00C0
00C0
ENDCHAR
STARTCHAR 53EA
ENCODING 21482
SWIDTH 1020 0
DWIDTH 17 0
BBX 16 16 0 -2
BITMAP
1FF8
1FF8
2004
2004
2004
2004
2004
2004
2004
1FF8
0000
0000
0810
1008
2004
C003
ENDCHAR
STARTCHAR 53EB
ENCODING 21483
SWIDTH 1020 0
DWIDTH 17 0
BBX 16 17 0 -2
BITMAP
0004
00C4
00C4
70C4
88C4
88C4
88C4
88C4
88C4
88C4
88C4
88C7
88FC
77C4
0004
0004
0004
ENDCHAR
STARTCHAR 53EC
ENCODING 21484
SWIDTH 1020 0
DWIDTH 17 0
BBX 15 15 0 -1
BITMAP
FFFC
FFFC
0202
0202
0402
0402
08C4
3038
C000
1FF8
2004
2004
2004
2004
1FF8
ENDCHAR
STARTCHAR 53ED
ENCODING 21485
SWIDTH 1020 0
DWIDTH 17 0
BBX 15 17 1 -2
BITMAP
0320
0320
0320
6320
9320
9320
9320
9320
9320
9410
6410
0410
0810
0808
1008
2004
4002
ENDCHAR
STARTCHAR 53EE
ENCODING 21486
SWIDTH 1020 0
DWIDTH 17 0
BBX 15 16 1 -2
BITMAP
0FFE
0FFE
7020
8820
8820
8820
8820
8820
8820
8820
7020
0020
0020
0020
0020
03C0
ENDCHAR
STARTCHAR 53EF
ENCODING 21487
SWIDTH 1020 0
DWIDTH 17 0
BBX 16 14 0 -2
BITMAP
FFFF
0004
0004
0F84
10C4
10C4
10C4
10C4
10C4
0F84
0004
0004
0004
0038
ENDCHAR
STARTCHAR 53F0
ENCODING 21488
SWIDTH 1020 0
DWIDTH 17 0
BBX 16 16 0 -1
BITMAP
0200
0200
0200
0410
0408
0804
11FE
FE01
0001
0000
1FF8
2004
2004
2004
2004
1FF8
ENDCHAR
STARTCHAR 53F1
ENCODING 21489
SWIDTH 1020 0
DWIDTH 17 0
BBX 16 17 0 -2
BITMAP
0180
0180
0180
0180
7180
8980
8983
899C
89E0
8F80
8980
8980
8980
7181
0181
0181
00FE
ENDCHAR
STARTCHAR 53F2
ENCODING 21490
SWIDTH 1020 0
DWIDTH 17 0
BBX 16 17 0 -2
BITMAP
0180
0180
0180
0180
3FFC
4182
4182
4182
4182
3FFC
1180
0980
0580
0200
05C0
1830
E00F
ENDCHAR
STARTCHAR 53F3
ENCODING 21491
SWIDTH 1020 0
DWIDTH 17 0
BBX 16 16 0 -1
BITMAP
0200
0200
0200
0200
FFFF
0400
0400
0800
1000
2FF8
D004
1004
1004
1004
1004
0FF8
ENDCHAR
STARTCHAR 53F6
ENCODING 21494
SWIDTH 1020 0
DWIDTH 17 0
BBX 16 17 0 -2
BITMAP
0020
0020
0020
0020
7020
8820
8820
8820
8FFF
8820
8820
8820
7020
0020
0020
0020
0020
ENDCHAR
STARTCHAR 53F7
ENCODING 21495
SWIDTH 1020 0
DWIDTH 17 0
BBX 16 16 0 -2
BITMAP
1FF8
1FF8
2004
2004
2004
1FF8
0000
FFFF
1000
1000
0FF8
0004
0004
0004
0008
03F0
ENDCHAR
STARTCHAR 53F8
ENCODING 21496
SWIDTH 1020 0
DWIDTH 17 0
BBX 15 16 0 -2
BITMAP
FFFC
FFFC
0002
0002
7FE2
0002
0002
1F82
20C2
20C2
20C2
20C2
1F82
0002
0002
001C
ENDCHAR
STARTCHAR 53FA
ENCODING 21498
SWIDTH 1020 0
DWIDTH 17 0
BBX 15 16 1 -2
BITMAP
0F00
0F00
6180
9180
9180
9180
9180
9340
9340
9340
6320
0420
0410
0810
1008
6006
ENDCHAR
STARTCHAR 5401
ENCODING 21505
SWIDTH 1020 0
DWIDTH 17 0
BBX 15 16 1 -2
BITMAP
07FC
07FC
6040
9040
9040
9040
9040
9FFE
9040
9040
6040
0040
0040
0040
0040
0380
ENDCHAR
STARTCHAR 5403
ENCODING 21507
SWIDTH 1020 0
DWIDTH 17 0
BBX 16 17 0 -2
BITMAP
0200
0200
0200
6200
97FF
9400
9800
97F0
9008
9010
9020
90C0
9180
6201
0401
0401
03FE
ENDCHAR
STARTCHAR 5404
ENCODING 21508
SWIDTH 1020 0
DWIDTH 17 0
BBX 16 16 0 -1
BITMAP
0400
0400
0400
0FF0
0808
1410
6220
01C0
0220
0C10
300C
CFF3
1008
1008
1008
0FF0
ENDCHAR
STARTCHAR 5408
ENCODING 21512
SWIDTH 1020 0
DWIDTH 17 0
BBX 16 16 0 -1
BITMAP
0180
0180
0180
02C0
0420
0810
1008
2FF4
C003
0000
1FF8
2004
2004
2004
2004
1FF8
ENDCHAR
STARTCHAR 5409
ENCODING 21513
SWIDTH 1020 0
DWIDTH 17 0
BBX 16 16 0 -1
BITMAP
0180
0180
0180
0180
FFFF
0180
0180
0180
7FFE
0000
0000
1FF8
2004
2004
2004
1FF8
ENDCHAR
STARTCHAR 540A
ENCODING 21514
SWIDTH 1020 0
DWIDTH 17 0
BBX 14 16 1 -2
BITMAP
3FF0
3FF0
4008
4008
4008
3FF0
0300
0300
7FF8
8304
8304
8304
8304
8338
0300
0300
ENDCHAR
STARTCHAR 540B
ENCODING 21515
SWIDTH 1020 0
DWIDTH 17 0
BBX 16 17 0 -2
BITMAP
0008
0008
0008
7008
8808
8FFF
8808
8A08
8988
88C8
88C8
8808
7008
0008
0008
0008
00F0
ENDCHAR
STARTCHAR 540C
ENCODING 21516
SWIDTH 1020 0
DWIDTH 17 0
BBX 14 16 1 -2
BITMAP
7FF8
7FF8
8004
8004
BFF4
8004
8004
8FC4
9024
9024
9024
8FC4
8004
8004
8004
8038
ENDCHAR
STARTCHAR 540D
ENCODING 21517
SWIDTH 1020 0
DWIDTH 17 0
BBX 15 16 0 -1
BITMAP
0200
0200
0200
07F8
0804
3004
CC08
0230
01C0
0200
0FFC
3802
C802
0802
0802
07FC
ENDCHAR
STARTCHAR 540E
ENCODING 21518
SWIDTH 1020 0
DWIDTH 17 0
BBX 16 16 0 -1
BITMAP
0006
0038
0038
1FC0
2000
2000
3FFF
2000
2000
27F8
2804
2804
4804
4804
8804
07F8
ENDCHAR
STARTCHAR 540F
ENCODING 21519
SWIDTH 1020 0
DWIDTH 17 0
BBX 16 17 0 -2
BITMAP
0180
0180
0180
FFFF
0180
0180
3FFC
4182
4182
4182
3FFC
1180
0980
0600
0380
0CF0
F00F
ENDCHAR
STARTCHAR 5410
ENCODING 21520
SWIDTH 1020 0
DWIDTH 17 0
BBX 16 16 0 -1
BITMAP
0020
0020
0020
7020
8820
8820
8FFE
8820
8820
8820
8820
8820
8820
7020
0020
0FFF
ENDCHAR
STARTCHAR 5411
ENCODING 21521
SWIDTH 1020 0
DWIDTH 17 0
BBX 14 17 1 -2
BITMAP
0400
0400
0400
0800
7FF8
8004
8004
8FC4
9024
9024
9024
9024
8FC4
8004
8004
8004
8038
ENDCHAR
STARTCHAR 541B
ENCODING 21531
SWIDTH 1020 0
DWIDTH 17 0
BBX 16 15 0 -1
BITMAP
7FF8
7FF8
0204
0204
FFFF
0204
0204
7FF8
0400
0800
1FFC
3002
D002
1002
0FFC
ENDCHAR
STARTCHAR 541D
ENCODING 21533
SWIDTH 1020 0
DWIDTH 17 0
BBX 16 16 0 -1
BITMAP
0180
0180
0180
FFFF
0810
0420
02C0
0180
06E0
1818
E007
0FF0
1008
1008
1008
0FF0
ENDCHAR
STARTCHAR 541F
ENCODING 21535
SWIDTH 1020 0
DWIDTH 17 0
BBX 16 17 0 -2
BITMAP
00C0
00C0
00C0
61A0
9190
9208
9404
9BFB
9000
9000
97F8
9004
9004
6008
0008
0030
01C0
ENDCHAR
STARTCHAR 5420
ENCODING 21536
SWIDTH 1020 0
DWIDTH 17 0
BBX 16 17 0 -2
BITMAP
0020
0028
0028
0024
7024
8820
8FFF
8820
8820
88D0
88D0
88D0
7188
0188
0204
0402
1801
ENDCHAR
STARTCHAR 5426
ENCODING 21542
SWIDTH 1020 0
DWIDTH 17 0
BBX 16 15 0 -1
BITMAP
FFFF
FFFF
0020
00C0
01B0
078C
1982
E181
0180
1FF8
2004
2004
2004
2004
1FF8
ENDCHAR
STARTCHAR 5429
ENCODING 21545
SWIDTH 1020 0
DWIDTH 17 0
BBX 15 17 1 -2
BITMAP
01A0
01A0
01A0
61A0
9310
9310
9408
9804
97F2
9188
9188
6188
0308
0308
0410
0990
3060
ENDCHAR
STARTCHAR 542B
ENCODING 21547
SWIDTH 1020 0
DWIDTH 17 0
BBX 16 16 0 -1
BITMAP
0180
0180
0180
02C0
0420
0810
17E8
2004
DFF3
0008
0010
00E0
1FF8
2004
2004
1FF8
ENDCHAR
STARTCHAR 542C
ENCODING 21548
SWIDTH 1020 0
DWIDTH 17 0
BBX 15 17 1 -2
BITMAP
0004
0018
0018
61E0
9300
9300
93FE
9310
9310
9310
9310
6310
0410
0410
0810
1010
0010
ENDCHAR
STARTCHAR 542D
ENCODING 21549
SWIDTH 1020 0
DWIDTH 17 0
BBX 15 17 1 -2
BITMAP
0040
0040
0040
6040
9FFE
9000
9000
91E0
9310
9310
9310
6310
0310
0412
0412
0812
300C
ENDCHAR
STARTCHAR 542E
ENCODING 21550
SWIDTH 1020 0
DWIDTH 17 0
BBX 15 17 1 -2
BITMAP
0180
0180
0180
6320
9310
9408
947C
9FA4
9324
9320
9320
6320
0420
0422
0822
1022
601C
ENDCHAR
STARTCHAR 5436
ENCODING 21558
SWIDTH 1020 0
DWIDTH 17 0
BBX 14 17 1 -2
BITMAP
0040
0040
0040
6040
93F8
9444
9444
9444
9444
95A4
9594
670C
0404
0404
0404
0404
0418
ENDCHAR
STARTCHAR 5438
ENCODING 21560
SWIDTH 1020 0
DWIDTH 17 0
BBX 16 16 0 -2
BITMAP
0FF0
0FF0
6208
9208
9210
9210
938C
92C2
92C2
92C4
9224
6428
0410
0828
31C4
0603
ENDCHAR
STARTCHAR 5439
ENCODING 21561
SWIDTH 1020 0
DWIDTH 17 0
BBX 16 17 0 -2
BITMAP
0180
0180
0180
6180
93FE
9201
9421
9822
902C
9020
90D0
90D0
6188
0188
0204
0402
1801
ENDCHAR
STARTCHAR 543B
ENCODING 21563
SWIDTH 1020 0
DWIDTH 17 0
BBX 16 17 0 -2
BITMAP
0180
0180
0180
6180
93FE
92C9
94C9
9989
9191
9211
9421
9821
90C1
6182
0602
0004
0038
ENDCHAR
STARTCHAR 543C
ENCODING 21564
SWIDTH 1020 0
DWIDTH 17 0
BBX 16 17 0 -2
BITMAP
0010
1F90
1F90
60D0
94D0
9390
9210
9230
93D0
9E10
9210
6210
0210
0211
0211
0211
0C0E
ENDCHAR
STARTCHAR 543D
ENCODING 21565
SWIDTH 1020 0
DWIDTH 17 0
BBX 15 17 1 -2
BITMAP
0020
0320
0320
6320
93FC
9420
9420
9820
9020
9FFE
9020
6020
0020
0020
0020
0020
0020
ENDCHAR
STARTCHAR 543E
ENCODING 21566
SWIDTH 1020 0
DWIDTH 17 0
BBX 16 15 0 -1
BITMAP
FFFF
FFFF
0400
0400
7FF0
0808
0808
0808
FFFF
0000
1FF8
2004
2004
2004
1FF8
ENDCHAR
STARTCHAR 5440
ENCODING 21568
SWIDTH 1020 0
DWIDTH 17 0
BBX 15 16 1 -2
BITMAP
07FC
07FC
6190
9190
9190
9190
9190
9FFE
9050
9190
6190
0310
0410
0810
3190
0060
ENDCHAR
STARTCHAR 5442
ENCODING 21570
SWIDTH 1020 0
DWIDTH 17 0
BBX 14 15 1 -1
BITMAP
3FF0
3FF0
4008
4008
4008
4008
3FF0
0400
0800
7FF8
8004
8004
8004
8004
7FF8
ENDCHAR
STARTCHAR 5446
ENCODING 21574
SWIDTH 1020 0
DWIDTH 17 0
BBX 16 16 0 -2
BITMAP
0FF0
0FF0
1008
1008
1008
1008
0FF0
0180
0180
FFFF
03C0
05A0
0990
318C
C183
0180
ENDCHAR
STARTCHAR 5448
ENCODING 21576
SWIDTH 1020 0
DWIDTH 17 0
BBX 16 15 0 -1
BITMAP
1FF8
1FF8
2004
2004
2004
1FF8
0000
0000
FFFF
0180
0180
7FFE
0180
0180
FFFF
ENDCHAR
STARTCHAR 5449
ENCODING 21577
SWIDTH 1020 0
DWIDTH 17 0
BBX 16 16 0 -2
BITMAP
07F8
07F8
4804
4804
4804
47F8
4000
4000
3FFC
0002
0002
FFFF
0000
0810
300C
C003
ENDCHAR
STARTCHAR 544A
ENCODING 21578
SWIDTH 1020 0
DWIDTH 17 0
BBX 16 16 0 -1
BITMAP
0180
1180
1180
1180
3FFE
2180
4180
8180
FFFF
0000
0000
1FF8
2004
2004
2004
1FF8
ENDCHAR
STARTCHAR 544E
ENCODING 21582
SWIDTH 1020 0
DWIDTH 17 0
BBX 15 16 1 -2
BITMAP
03F8
03F8
6404
9404
9404
9404
9404
97F8
9440
9420
6420
0410
0810
0808
1008
2006
ENDCHAR
STARTCHAR 5451
ENCODING 21585
SWIDTH 1020 0
DWIDTH 17 0
BBX 16 16 0 -1
BITMAP
0006
00F8
00F8
7F80
0180
0180
FFFF
0420
0810
300C
CFF3
1008
1008
1008
1008
0FF0
ENDCHAR
STARTCHAR 545F
ENCODING 21599
SWIDTH 1020 0
DWIDTH 17 0
BBX 15 17 1 -2
BITMAP
0040
0040
0040
6040
9FFE
9040
9190
9190
9720
9320
91C0
9040
6190
0308
047C
1F84
0004
ENDCHAR
STARTCHAR 5468
ENCODING 21608
SWIDTH 1020 0
DWIDTH 17 0
BBX 15 16 0 -2
BITMAP
1FFC
1FFC
2182
2182
2FF2
2182
2182
3FFA
2002
27E2
2812
2812
2812
47E2
4002
801C
ENDCHAR
STARTCHAR 546A
ENCODING 21610
SWIDTH 1020 0
DWIDTH 17 0
BBX 16 16 0 -2
BITMAP
03FC
03FC
6402
9402
9402
9402
9402
93FC
9010
9190
9190
6190
0211
0211
0411
180E
ENDCHAR
STARTCHAR 5470
ENCODING 21616
SWIDTH 1020 0
DWIDTH 17 0
BBX 16 16 0 -1
BITMAP
0820
2822
2822
2824
2FB8
2821
2821
2BA1
3C1E
E000
0FF0
1008
1008
1008
1008
0FF0
ENDCHAR
STARTCHAR 5471
ENCODING 21617
SWIDTH 1020 0
DWIDTH 17 0
BBX 15 17 1 -2
BITMAP
000C
0038
0038
63C8
9408
9448
9448
9448
9448
9448
9448
6448
0464
0854
0874
178A
200A
ENDCHAR
STARTCHAR 5473
ENCODING 21619
SWIDTH 1020 0
DWIDTH 17 0
BBX 16 17 0 -2
BITMAP
0020
0020
0020
6020
97FE
9020
9020
9020
9FFF
90F0
91A8
91A8
6224
0422
0821
0020
0020
ENDCHAR
STARTCHAR 5475
ENCODING 21621
SWIDTH 1020 0
DWIDTH 17 0
BBX 15 16 1 -2
BITMAP
0FFE
0FFE
6008
9008
9388
9448
9448
9448
9448
9448
9388
6008
0008
0008
0008
0070
ENDCHAR
STARTCHAR 5476
ENCODING 21622
SWIDTH 1020 0
DWIDTH 17 0
BBX 16 17 0 -2
BITMAP
0200
0200
0200
623C
9FD2
92D2
92D2
92D2
94D4
94D4
9588
9388
6188
02D4
02D4
0422
08C1
ENDCHAR
STARTCHAR 5477
ENCODING 21623
SWIDTH 1020 0
DWIDTH 17 0
BBX 15 16 1 -2
BITMAP
03FC
03FC
6422
9422
9422
97FE
9422
9422
9422
9422
93FC
6020
0020
0020
0020
0020
ENDCHAR
STARTCHAR 547B
ENCODING 21627
SWIDTH 1020 0
DWIDTH 17 0
BBX 15 17 1 -2
BITMAP
0020
0020
0020
0020
63FC
9422
9422
9422
97FE
9422
9422
9422
63FC
0020
0020
0020
0020
ENDCHAR
STARTCHAR 547C
ENCODING 21628
SWIDTH 1020 0
DWIDTH 17 0
BBX 16 17 0 -2
BITMAP
0002
001C
001C
6FE2
9422
9224
9224
9228
9020
9FFF
9020
9020
9020
6020
0020
0020
03C0
ENDCHAR
STARTCHAR 547D
ENCODING 21629
SWIDTH 1020 0
DWIDTH 17 0
BBX 16 17 0 -2
BITMAP
0180
02C0
02C0
0420
0810
17E8
2004
C003
383C
44C2
44C2
44C2
44C2
44C2
38DC
00C0
00C0
ENDCHAR
STARTCHAR 5480
ENCODING 21632
SWIDTH 1020 0
DWIDTH 17 0
BBX 15 15 1 -1
BITMAP
01F0
01F0
6308
9308
9308
93F8
9308
9308
9308
93F8
9308
6308
0308
0308
1FFE
ENDCHAR
STARTCHAR 5484
ENCODING 21636
SWIDTH 1020 0
DWIDTH 17 0
BBX 15 16 0 -1
BITMAP
0020
0224
0224
6224
9224
9224
9224
91F8
9020
9422
9422
9422
6422
0422
0422
03FC
ENDCHAR
STARTCHAR 5486
ENCODING 21638
SWIDTH 1020 0
DWIDTH 17 0
BBX 16 17 0 -2
BITMAP
0200
0200
0200
63FC
9202
9402
97E2
9812
9012
9012
93E2
9404
6438
0401
0401
0401
03FE
ENDCHAR
STARTCHAR 548B
ENCODING 21643
SWIDTH 1020 0
DWIDTH 17 0
BBX 16 17 0 -2
BITMAP
0180
0180
0180
7180
8BFF
8A20
8A20
8C20
883E
8820
8820
8820
883E
7020
0020
0020
0020
ENDCHAR
STARTCHAR 548C
ENCODING 21644
SWIDTH 1020 0
DWIDTH 17 0
BBX 16 17 0 -2
BITMAP
0200
0C00
0C00
F000
103E
10C1
FFC1
10C1
38C1
34C1
52C1
52C1
90C1
10C1
103E
1000
1000
ENDCHAR
STARTCHAR 548E
ENCODING 21646
SWIDTH 1020 0
DWIDTH 17 0
BBX 16 16 0 -1
BITMAP
1010
1010
1010
1E10
2190
31A8
4A24
84C3
0B80
30FF
C000
0FF0
1008
1008
1008
0FF0
ENDCHAR
STARTCHAR 548F
ENCODING 21647
SWIDTH 1020 0
DWIDTH 17 0
BBX 16 17 0 -2
BITMAP
01C0
0030
0030
6008
97E0
9022
9022
9E2C
91B0
91A8
91A8
9224
6224
0422
0821
0020
01C0
ENDCHAR
STARTCHAR 5490
ENCODING 21648
SWIDTH 1020 0
DWIDTH 17 0
BBX 15 17 1 -2
BITMAP
0188
0188
0188
6188
9308
9308
95FE
9D88
9448
9448
9448
9408
6408
0408
0408
0408
0430
ENDCHAR
STARTCHAR 5492
ENCODING 21650
SWIDTH 1020 0
DWIDTH 17 0
BBX 16 16 0 -2
BITMAP
3C3C
3C3C
42C2
42C2
42C2
42C2
3C3C
0000
07C0
0820
0820
0820
0821
1021
2021
C01E
ENDCHAR
STARTCHAR 54A2
ENCODING 21666
SWIDTH 1020 0
DWIDTH 17 0
BBX 16 16 0 -2
BITMAP
3C3C
3C3C
42C2
42C2
3C3C
0000
3FFC
0000
FFFF
0800
1000
0FF0
0008
0008
0010
01E0
ENDCHAR
STARTCHAR 54A4
ENCODING 21668
SWIDTH 1020 0
DWIDTH 17 0
BBX 16 17 0 -2
BITMAP
0020
0020
0020
63FE
9401
940D
93F0
90C0
90C0
97FF
90C0
90C0
60C0
00C1
00C1
00C1
003E
ENDCHAR
STARTCHAR 54A5
ENCODING 21669
SWIDTH 1020 0
DWIDTH 17 0
BBX 15 15 1 -1
BITMAP
0FFE
0FFE
6180
9190
9308
9438
9FC4
9044
9040
9040
97FC
6040
0040
0040
1FFE
ENDCHAR
STARTCHAR 54A8
ENCODING 21672
SWIDTH 1020 0
DWIDTH 17 0
BBX 16 16 0 -1
BITMAP
0180
0180
0180
FBFE
04C1
08C2
01A4
31A0
C210
0C0C
3003
0FF0
1008
1008
1008
0FF0
ENDCHAR
STARTCHAR 54AB
ENCODING 21675
SWIDTH 1020 0
DWIDTH 17 0
BBX 16 16 0 -2
BITMAP
1C3C
1C3C
22C2
22C2
22C2
22C2
3C3C
2800
2828
2824
24C2
2581
2201
4180
40E0
801F
ENDCHAR
STARTCHAR 54AC
ENCODING 21676
SWIDTH 1020 0
DWIDTH 17 0
BBX 15 17 1 -2
BITMAP
0020
0020
0020
6020
97FE
9050
9188
9306
9D88
9188
9050
9050
6020
0050
0190
0308
0C06
ENDCHAR
STARTCHAR 54AF
ENCODING 21679
SWIDTH 1020 0
DWIDTH 17 0
BBX 16 16 0 -1
BITMAP
00C0
00C0
00C0
61F8
9184
92C4
94C8
9030
90C8
9184
9603
91F8
6204
0204
0204
01F8
ENDCHAR
STARTCHAR 54B2
ENCODING 21682
SWIDTH 1020 0
DWIDTH 17 0
BBX 16 17 0 -2
BITMAP
0204
0184
0184
0188
7010
8FFE
8820
8820
8820
8FFF
8820
88D0
88D0
7188
0188
0204
0C03
ENDCHAR
STARTCHAR 54B3
ENCODING 21683
SWIDTH 1020 0
DWIDTH 17 0
BBX 16 17 0 -2
BITMAP
0020
0020
0020
6020
9FFF
90C0
90C8
9588
9212
91A2
90C4
9388
6C10
0028
00C4
0382
0C02
ENDCHAR
STARTCHAR 54B8
ENCODING 21688
SWIDTH 1020 0
DWIDTH 17 0
BBX 16 17 0 -2
BITMAP
0028
0024
0024
0024
1FFF
2020
2024
3FE4
2024
2628
29A8
2990
2990
4631
40C9
8389
1C06
ENDCHAR
STARTCHAR 54BC
ENCODING 21692
SWIDTH 1020 0
DWIDTH 17 0
BBX 14 16 1 -2
BITMAP
1FE0
1FE0
2010
2010
23F0
2410
2410
7FF8
8004
8FC4
9024
9024
9024
8FC4
8004
8038
ENDCHAR
STARTCHAR 54BD
ENCODING 21693
SWIDTH 1020 0
DWIDTH 17 0
BBX 15 15 0 -1
BITMAP
03FC
03FC
6402
9422
9422
97FE
9422
9422
94D2
94D2
958A
958A
6606
0402
03FC
ENDCHAR
STARTCHAR 54BE
ENCODING 21694
SWIDTH 1020 0
DWIDTH 17 0
BBX 16 17 0 -2
BITMAP
00C0
00C0
00C0
60C4
97FE
90C8
90D0
9FFF
9020
90C0
9384
6598
09E0
3182
0182
0182
00FC
ENDCHAR
STARTCHAR 54C0
ENCODING 21696
SWIDTH 1020 0
DWIDTH 17 0
BBX 16 17 0 -2
BITMAP
0180
0180
0180
FFFF
0000
0FF0
1008
1008
1008
0FF0
04C2
08C4
3828
C810
09C8
0E04
3803
ENDCHAR
STARTCHAR 54C1
ENCODING 21697
SWIDTH 1020 0
DWIDTH 17 0
BBX 16 15 0 -1
BITMAP
0FF0
0FF0
1008
1008
1008
1008
0FF0
0000
783E
84C1
84C1
84C1
84C1
84C1
783E
ENDCHAR
STARTCHAR 54C2
ENCODING 21698
SWIDTH 1020 0
DWIDTH 17 0
BBX 16 15 0 -1
BITMAP
1FFF
1FFF
60D0
90D0
93FC
94D2
94D2
94D2
94D2
94D2
978E
6402
0402
0402
03FC
ENDCHAR
STARTCHAR 54C4
ENCODING 21700
SWIDTH 1020 0
DWIDTH 17 0
BBX 15 17 1 -2
BITMAP
0190
0190
0190
6190
9190
97FC
9190
9190
9190
9190
9FFE
9000
6310
0310
0408
0804
1002
ENDCHAR
STARTCHAR 54C7
ENCODING 21703
SWIDTH 1020 0
DWIDTH 17 0
BBX 15 16 1 -1
BITMAP
0040
0040
0040
6040
97F8
9040
9040
9FFC
9000
9040
9040
67FC
0040
0040
0040
1FFE
ENDCHAR
STARTCHAR 54C8
ENCODING 21704
SWIDTH 1020 0
DWIDTH 17 0
BBX 15 16 1 -1
BITMAP
0040
0040
0040
61A0
91A0
9310
9308
9404
9BFA
9000
9000
93F0
6408
0408
0408
03F0
ENDCHAR
STARTCHAR 54C9
ENCODING 21705
SWIDTH 1020 0
DWIDTH 17 0
BBX 16 17 0 -2
BITMAP
0820
0828
0828
7FA4
0822
0822
0820
FFFF
0020
0022
3C12
4214
4218
4211
3C29
01C9
0E06
ENDCHAR
ENDFONT
